<mxfile host="Electron" agent="Mozilla/5.0 (Macintosh; Intel Mac OS X 10_15_7) AppleWebKit/537.36 (KHTML, like Gecko) draw.io/25.0.2 Chrome/128.0.6613.186 Electron/32.2.5 Safari/537.36" version="25.0.2" pages="4">
  <diagram name="concept" id="uP2VtJeilBSQQl1bGuM7">
    <mxGraphModel dx="1595" dy="921" grid="1" gridSize="10" guides="1" tooltips="1" connect="1" arrows="1" fold="1" page="1" pageScale="1" pageWidth="1600" pageHeight="900" math="0" shadow="0">
      <root>
        <mxCell id="0" />
        <mxCell id="1" parent="0" />
        <mxCell id="ToZxlwKgEHcJ9AsKF1VZ-18" value="&lt;b&gt;Object Storage&lt;/b&gt;" style="rounded=1;whiteSpace=wrap;html=1;verticalAlign=top;align=center;spacingLeft=30;spacingTop=4;arcSize=6;" parent="1" vertex="1">
          <mxGeometry x="260" y="40" width="180" height="240" as="geometry" />
        </mxCell>
        <mxCell id="ToZxlwKgEHcJ9AsKF1VZ-19" value="&lt;b&gt;Bucket&lt;/b&gt;" style="rounded=1;whiteSpace=wrap;html=1;verticalAlign=top;align=center;spacingLeft=0;spacingTop=4;arcSize=12;" parent="1" vertex="1">
          <mxGeometry x="280" y="100" width="140" height="160" as="geometry" />
        </mxCell>
        <mxCell id="ToZxlwKgEHcJ9AsKF1VZ-21" value="" style="group" parent="1" vertex="1" connectable="0">
          <mxGeometry x="300" y="170" width="100" height="70" as="geometry" />
        </mxCell>
        <mxCell id="ToZxlwKgEHcJ9AsKF1VZ-22" value="" style="shape=document;whiteSpace=wrap;html=1;boundedLbl=1;" parent="ToZxlwKgEHcJ9AsKF1VZ-21" vertex="1">
          <mxGeometry width="77.77777777777779" height="50" as="geometry" />
        </mxCell>
        <mxCell id="ToZxlwKgEHcJ9AsKF1VZ-23" value="" style="shape=document;whiteSpace=wrap;html=1;boundedLbl=1;" parent="ToZxlwKgEHcJ9AsKF1VZ-21" vertex="1">
          <mxGeometry x="11.11111111111111" y="10" width="77.77777777777779" height="50" as="geometry" />
        </mxCell>
        <mxCell id="ToZxlwKgEHcJ9AsKF1VZ-24" value="JSON" style="shape=document;whiteSpace=wrap;html=1;boundedLbl=1;" parent="ToZxlwKgEHcJ9AsKF1VZ-21" vertex="1">
          <mxGeometry x="22.22222222222222" y="20" width="77.77777777777779" height="50" as="geometry" />
        </mxCell>
        <mxCell id="ToZxlwKgEHcJ9AsKF1VZ-25" value="&lt;b&gt;Autonomous Data Warehouse&lt;/b&gt;" style="rounded=1;whiteSpace=wrap;html=1;verticalAlign=top;align=center;spacingLeft=0;spacingTop=4;arcSize=6;" parent="1" vertex="1">
          <mxGeometry x="480" y="40" width="350" height="240" as="geometry" />
        </mxCell>
        <mxCell id="ToZxlwKgEHcJ9AsKF1VZ-26" value="" style="shape=image;verticalLabelPosition=bottom;labelBackgroundColor=default;verticalAlign=top;aspect=fixed;imageAspect=0;image=data:image/svg+xml,PHN2ZyB4bWxuczp4bGluaz0iaHR0cDovL3d3dy53My5vcmcvMTk5OS94bGluayIgeG1sbnM9Imh0dHA6Ly93d3cudzMub3JnLzIwMDAvc3ZnIiB4bWw6c3BhY2U9InByZXNlcnZlIiBzdHlsZT0iZW5hYmxlLWJhY2tncm91bmQ6bmV3IDAgMCA0OC40NyA0Mi4wMjsiIHZpZXdCb3g9IjAgMCA0OC40NyA0Mi4wMiIgeT0iMHB4IiB4PSIwcHgiIGlkPSJMYXllcl8xIiB2ZXJzaW9uPSIxLjEiPiYjeGE7PG1ldGFkYXRhPiYjeGE7JiN4YTsgICAmI3hhOyAgICAgICYjeGE7ICAgICAgICAgMjAyMi0wMy0wNFQxNjoxODowMi0wNjowMCYjeGE7ICAgICAgICAgeG1wLmlpZDphNmVlNzM0Ni03ZWNmLTQyNjItODczYy01MzIxYjBkYTAzZjMmI3hhOyAgICAgICAgIHhtcC5kaWQ6MmQ5YmYzNDgtODYzYy00ZDkzLWFjMzAtYTgxMDcyMDE0NDJhJiN4YTsgICAgICAgICB4bXAuZGlkOjJkOWJmMzQ4LTg2M2MtNGQ5My1hYzMwLWE4MTA3MjAxNDQyYSYjeGE7ICAgICAgICAgJiN4YTsgICAgICAgICAgICAmI3hhOyAgICAgICAgICAgICAgICYjeGE7ICAgICAgICAgICAgICAgICAgJiN4YTsgICAgICAgICAgICAgICAgICAgICBzYXZlZCYjeGE7ICAgICAgICAgICAgICAgICAgICAgeG1wLmlpZDoyZDliZjM0OC04NjNjLTRkOTMtYWMzMC1hODEwNzIwMTQ0MmEmI3hhOyAgICAgICAgICAgICAgICAgICAgIDIwMjEtMDQtMjdUMTM6NDE6MjgtMDU6MDAmI3hhOyAgICAgICAgICAgICAgICAgICAgIEFkb2JlIEJyaWRnZSAyMDIxIChNYWNpbnRvc2gpJiN4YTsgICAgICAgICAgICAgICAgICAgICAvbWV0YWRhdGEmI3hhOyAgICAgICAgICAgICAgICAgICYjeGE7ICAgICAgICAgICAgICAgJiN4YTsgICAgICAgICAgICAgICAmI3hhOyAgICAgICAgICAgICAgICAgICYjeGE7ICAgICAgICAgICAgICAgICAgICAgc2F2ZWQmI3hhOyAgICAgICAgICAgICAgICAgICAgIHhtcC5paWQ6YTZlZTczNDYtN2VjZi00MjYyLTg3M2MtNTMyMWIwZGEwM2YzJiN4YTsgICAgICAgICAgICAgICAgICAgICAyMDIyLTAzLTA0VDE2OjE4OjAyLTA2OjAwJiN4YTsgICAgICAgICAgICAgICAgICAgICBBZG9iZSBCcmlkZ2UgMjAyMSAoTWFjaW50b3NoKSYjeGE7ICAgICAgICAgICAgICAgICAgICAgL21ldGFkYXRhJiN4YTsgICAgICAgICAgICAgICAgICAmI3hhOyAgICAgICAgICAgICAgICYjeGE7ICAgICAgICAgICAgJiN4YTsgICAgICAgICAmI3hhOyAgICAgICAgIFRydWUmI3hhOyAgICAgICAgICYjeGE7ICAgICAgICAgICAgJiN4YTsgICAgICAgICAgICAgICBpY29uJiN4YTsgICAgICAgICAgICAgICBEYXRhJiN4YTsgICAgICAgICAgICAgICBhZ2dyZWdhdGlvbiYjeGE7ICAgICAgICAgICAgICAgbWFuYWdlbWVudCYjeGE7ICAgICAgICAgICAgICAgc3lzdGVtJiN4YTsgICAgICAgICAgICAgICBidXNpbmVzcyYjeGE7ICAgICAgICAgICAgICAgaW50ZWxsaWdlbmNlJiN4YTsgICAgICAgICAgICAgICBhbmFseXRpY3MmI3hhOyAgICAgICAgICAgICAgIHN0b3JlJiN4YTsgICAgICAgICAgICAgICBhbmFseXNpcyYjeGE7ICAgICAgICAgICAgICAgaWNvbiYjeGE7ICAgICAgICAgICAgICAgQnVzaW5lc3MmI3hhOyAgICAgICAgICAgICAgIERhdGEmI3hhOyAgICAgICAgICAgICAgIG1hY2hpbmUgbGVhcm5pbmcmI3hhOyAgICAgICAgICAgICAgIGFydGlmaWNpYWwgaW50ZWxsaWdlbmNlJiN4YTsgICAgICAgICAgICAgICBhdXRvbWF0ZSYjeGE7ICAgICAgICAgICAgICAgYXV0b21hdGl6YXRpb24mI3hhOyAgICAgICAgICAgICAgIHNlY3VyaXR5JiN4YTsgICAgICAgICAgICAgICBiYWNrdXAmI3hhOyAgICAgICAgICAgICAgIHVwZGF0ZSYjeGE7ICAgICAgICAgICAgICAgdGFzayYjeGE7ICAgICAgICAgICAgICAgQURDUyYjeGE7ICAgICAgICAgICAgICAgYXV0b25vbW91cyYjeGE7ICAgICAgICAgICAgICAgc2VydmljZSYjeGE7ICAgICAgICAgICAgJiN4YTsgICAgICAgICAmI3hhOyAgICAgICAgICYjeGE7ICAgICAgICAgICAgJiN4YTsgICAgICAgICAgICAgICBPcmFjbGUgQWxsIFJpZ2h0cyBSZXNlcnZlZCYjeGE7ICAgICAgICAgICAgJiN4YTsgICAgICAgICAmI3hhOyAgICAgICAgICYjeGE7ICAgICAgICAgICAgJiN4YTsgICAgICAgICAgICAgICBEYXRhIE1hbmFnZW1lbnQmI3hhOyAgICAgICAgICAgICAgIFNlcnZpY2UmI3hhOyAgICAgICAgICAgICAgIEF1dG9ub21vdXMmI3hhOyAgICAgICAgICAgICAgIERhdGFiYXNlJiN4YTsgICAgICAgICAgICAgICBDbG91ZCYjeGE7ICAgICAgICAgICAgICAgaWNvbiYjeGE7ICAgICAgICAgICAgJiN4YTsgICAgICAgICAmI3hhOyAgICAgICYjeGE7ICAgJiN4YTsmI3hhOyAgICAgICAgICAgICAgICAgICAgICAgICAgICAgICAgICAgICAgICAgICAgICAgICAgICAgICAgICAgICAgICAgICAgICAgICAgICAgICAgICAgICAgICAgICAgICAgICAgICAmI3hhOyAgICAgICAgICAgICAgICAgICAgICAgICAgICAgICAgICAgICAgICAgICAgICAgICAgICAgICAgICAgICAgICAgICAgICAgICAgICAgICAgICAgICAgICAgICAgICAgICAgICAmI3hhOyAgICAgICAgICAgICAgICAgICAgICAgICAgICAgICAgICAgICAgICAgICAgICAgICAgICAgICAgICAgICAgICAgICAgICAgICAgICAgICAgICAgICAgICAgICAgICAgICAgICAmI3hhOyAgICAgICAgICAgICAgICAgICAgICAgICAgICAgICAgICAgICAgICAgICAgICAgICAgICAgICAgICAgICAgICAgICAgICAgICAgICAgICAgICAgICAgICAgICAgICAgICAgICAmI3hhOyAgICAgICAgICAgICAgICAgICAgICAgICAgICAgICAgICAgICAgICAgICAgICAgICAgICAgICAgICAgICAgICAgICAgICAgICAgICAgICAgICAgICAgICAgICAgICAgICAgICAmI3hhOyAgICAgICAgICAgICAgICAgICAgICAgICAgICAgICAgICAgICAgICAgICAgICAgICAgICAgICAgICAgICAgICAgICAgICAgICAgICAgICAgICAgICAgICAgICAgICAgICAgICAmI3hhOyAgICAgICAgICAgICAgICAgICAgICAgICAgICAgICAgICAgICAgICAgICAgICAgICAgICAgICAgICAgICAgICAgICAgICAgICAgICAgICAgICAgICAgICAgICAgICAgICAgICAmI3hhOyAgICAgICAgICAgICAgICAgICAgICAgICAgICAgICAgICAgICAgICAgICAgICAgICAgICAgICAgICAgICAgICAgICAgICAgICAgICAgICAgICAgICAgICAgICAgICAgICAgICAmI3hhOyAgICAgICAgICAgICAgICAgICAgICAgICAgICAgICAgICAgICAgICAgICAgICAgICAgICAgICAgICAgICAgICAgICAgICAgICAgICAgICAgICAgICAgICAgICAgICAgICAgICAmI3hhOyAgICAgICAgICAgICAgICAgICAgICAgICAgICAgICAgICAgICAgICAgICAgICAgICAgICAgICAgICAgICAgICAgICAgICAgICAgICAgICAgICAgICAgICAgICAgICAgICAgICAmI3hhOyAgICAgICAgICAgICAgICAgICAgICAgICAgICAgICAgICAgICAgICAgICAgICAgICAgICAgICAgICAgICAgICAgICAgICAgICAgICAgICAgICAgICAgICAgICAgICAgICAgICAmI3hhOyAgICAgICAgICAgICAgICAgICAgICAgICAgICAgICAgICAgICAgICAgICAgICAgICAgICAgICAgICAgICAgICAgICAgICAgICAgICAgICAgICAgICAgICAgICAgICAgICAgICAmI3hhOyAgICAgICAgICAgICAgICAgICAgICAgICAgICAgICAgICAgICAgICAgICAgICAgICAgICAgICAgICAgICAgICAgICAgICAgICAgICAgICAgICAgICAgICAgICAgICAgICAgICAmI3hhOyAgICAgICAgICAgICAgICAgICAgICAgICAgICAgICAgICAgICAgICAgICAgICAgICAgICAgICAgICAgICAgICAgICAgICAgICAgICAgICAgICAgICAgICAgICAgICAgICAgICAmI3hhOyAgICAgICAgICAgICAgICAgICAgICAgICAgICAgICAgICAgICAgICAgICAgICAgICAgICAgICAgICAgICAgICAgICAgICAgICAgICAgICAgICAgICAgICAgICAgICAgICAgICAmI3hhOyAgICAgICAgICAgICAgICAgICAgICAgICAgICAgICAgICAgICAgICAgICAgICAgICAgICAgICAgICAgICAgICAgICAgICAgICAgICAgICAgICAgICAgICAgICAgICAgICAgICAmI3hhOyAgICAgICAgICAgICAgICAgICAgICAgICAgICAgICAgICAgICAgICAgICAgICAgICAgICAgICAgICAgICAgICAgICAgICAgICAgICAgICAgICAgICAgICAgICAgICAgICAgICAmI3hhOyAgICAgICAgICAgICAgICAgICAgICAgICAgICAgICAgICAgICAgICAgICAgICAgICAgICAgICAgICAgICAgICAgICAgICAgICAgICAgICAgICAgICAgICAgICAgICAgICAgICAmI3hhOyAgICAgICAgICAgICAgICAgICAgICAgICAgICAgICAgICAgICAgICAgICAgICAgICAgICAgICAgICAgICAgICAgICAgICAgICAgICAgICAgICAgICAgICAgICAgICAgICAgICAmI3hhOyAgICAgICAgICAgICAgICAgICAgICAgICAgICAgICAgICAgICAgICAgICAgICAgICAgICAgICAgICAgICAgICAgICAgICAgICAgICAgICAgICAgICAgICAgICAgICAgICAgICAmI3hhOyAgICAgICAgICAgICAgICAgICAgICAgICAgICYjeGE7PC9tZXRhZGF0YT4mI3hhOzxzdHlsZSB0eXBlPSJ0ZXh0L2NzcyI+JiN4YTsJLnN0MHtmaWxsOiNGRkZGRkY7fSYjeGE7CS5zdDF7ZmlsbDojMkM1OTY3O30mI3hhOzwvc3R5bGU+JiN4YTs8Zz4mI3hhOwk8Zz4mI3hhOwkJPHBhdGggZD0iTTIyLjUsNDEuNTJjLTMuMTIsMC02LjA3LTAuMjktOC4yOS0wLjgzYy0yLjk1LTAuNzEtNC4zOS0xLjc4LTQuMzktMy4yOVYyMi45SDAuNTRsMC4xMS0xLjUyJiMxMDsmIzk7JiM5OyYjOTtjMC4yNy0zLjY3LDIuMzktNi44OSw1LjY1LTguNjFjMC43MS0wLjM4LDEuMjEtMS4wNCwxLjM2LTEuODFjMC41MS0yLjYsMi4yNi00Ljc4LDQuNjgtNS44NWMxLjAyLTAuNDUsMi4xNS0wLjY4LDMuMjYtMC42OCYjMTA7JiM5OyYjOTsmIzk7YzAuMjUsMCwwLjUsMC4wMSwwLjc1LDAuMDNjMC4wOSwwLjAxLDAuMTcsMC4wMSwwLjI2LDAuMDFjMC43MSwwLDEuMzYtMC4yOCwxLjgyLTAuNzhjMS43Mi0xLjg1LDQuMDEtMi45Niw2LjUxLTMuMTVWMC41NGwxLTAuMDImIzEwOyYjOTsmIzk7JiM5O2wwLDAuMDFjMy42OSwwLjA4LDYuOTksMi4xNyw4LjY1LDUuNDljMC4xMiwwLjI0LDAuMjksMC40NywwLjQ4LDAuNjdjMC4yNCwwLjM1LDAuNTYsMC44LDAuODQsMS4yYzMsMC4xLDUuNzMsMS42Nyw3LjMzLDQuMjQmIzEwOyYjOTsmIzk7JiM5O2wwLjA0LDAuMDdsMC4zNSwxLjUzbDQuMTIsNC4xMmwtMi4wMSwyLjAxbC0xLjMtMS4zYy0wLjc5LDQuMTktNC40OSw3LjM0LTguODUsNy4zNGMtMC4xNCwwLTAuMjgsMC0wLjQyLTAuMDF2MTEuNTMmIzEwOyYjOTsmIzk7JiM5O2MwLDEuNS0xLjQ0LDIuNTgtNC4zOSwzLjI5QzI4LjU3LDQxLjIzLDI1LjYyLDQxLjUyLDIyLjUsNDEuNTJ6IiBjbGFzcz0ic3QwIi8+JiN4YTsJCTxwYXRoIGQ9Ik0yNS43MiwxLjAyYzMuNTksMCw2LjgzLDIsOC40Myw1LjIyYzAuMTUsMC4zLDAuMzUsMC41NywwLjU4LDAuOGMwLjIyLDAuMzQsMC42MiwwLjksMC45MywxLjM0JiMxMDsmIzk7JiM5OyYjOTtjMi45OCwwLjAyLDUuNjYsMS41OSw3LjE2LDQuMDFsMC4zNywxLjU4bDMuODcsMy44N2wtMS4zLDEuM2wtMS42Ny0xLjY3Yy0wLjMsNC40Mi0zLjk5LDcuOTItOC40OCw3LjkyJiMxMDsmIzk7JiM5OyYjOTtjLTAuMzEsMC0wLjYyLTAuMDMtMC45Mi0wLjA2djEyLjA4YzAsMS4yNC0xLjMxLDIuMTYtNCwyLjhjLTIuMiwwLjUzLTUuMSwwLjgxLTguMTgsMC44MXMtNS45OC0wLjI5LTguMTgtMC44MSYjMTA7JiM5OyYjOTsmIzk7Yy0yLjY5LTAuNjQtNC0xLjU2LTQtMi44VjIyLjRIMS4wOGwwLjA3LTAuOTljMC4yNi0zLjUsMi4yNy02LjU2LDUuMzktOC4yYzAuODUtMC40NSwxLjQ0LTEuMjMsMS42Mi0yLjE2JiMxMDsmIzk7JiM5OyYjOTtjMC40OC0yLjQ0LDIuMTItNC40OSw0LjM5LTUuNDljMC45Ny0wLjQyLDIuMDEtMC42NCwzLjA2LTAuNjRjMC4yNCwwLDAuNDcsMC4wMSwwLjcsMC4wM2MwLjEsMC4wMSwwLjIsMC4wMSwwLjMxLDAuMDEmIzEwOyYjOTsmIzk7JiM5O2MwLjg0LDAsMS42My0wLjMzLDIuMTktMC45NGMxLjc0LTEuODcsNC4xLTIuOTQsNi42NS0zLjAxbDAuMDIsMC45MmwtMC4wMi0wLjkyQzI1LjU1LDEuMDIsMjUuNjMsMS4wMiwyNS43MiwxLjAyIE0yNi40NCwwJiMxMDsmIzk7JiM5OyYjOTtsLTEsMC4wM2MtMC4wMSwwLTAuMDEsMC0wLjAyLDBsLTAuOTgsMC4wM2wwLDAuMDVDMjIsMC40LDE5Ljc3LDEuNTMsMTguMDgsMy4zNmMtMC4zNywwLjQtMC44OSwwLjYyLTEuNDYsMC42MiYjMTA7JiM5OyYjOTsmIzk7Yy0wLjA3LDAtMC4xNCwwLTAuMjEtMC4wMWMtMC4yNy0wLjAyLTAuNTMtMC4wNC0wLjgtMC4wNGMtMS4xOCwwLTIuMzgsMC4yNS0zLjQ2LDAuNzNjLTIuNTcsMS4xMy00LjQzLDMuNDUtNC45Nyw2LjIxJiMxMDsmIzk7JiM5OyYjOTtjLTAuMTIsMC42My0wLjUzLDEuMTYtMS4xMSwxLjQ2Yy0zLjQyLDEuOC01LjYzLDUuMTctNS45Miw5LjAxbC0wLjA3LDAuOTlMMCwyMy40aDEuMDhoOC4yNHYxNC4wMWMwLDIuNjMsMy41OSwzLjQ5LDQuNzcsMy43NyYjMTA7JiM5OyYjOTsmIzk7YzIuMjcsMC41NCw1LjI2LDAuODQsOC40MSwwLjg0YzMuMTYsMCw2LjE0LTAuMyw4LjQxLTAuODRjMS4xOC0wLjI4LDQuNzctMS4xNCw0Ljc3LTMuNzdWMjYuMzljNC4yNS0wLjA0LDcuOS0yLjkxLDkuMDUtNi44NiYjMTA7JiM5OyYjOTsmIzk7bDAuMzIsMC4zMmwwLjcxLDAuNzFsMC43MS0wLjcxbDEuMy0xLjNsMC43MS0wLjcxbC0wLjcxLTAuNzFsLTMuNjctMy42N2wtMC4zLTEuMzFMNDMuNzYsMTJsLTAuMDktMC4xNCYjMTA7JiM5OyYjOTsmIzk7Yy0xLjY0LTIuNjMtNC40MS00LjI3LTcuNDgtNC40NmMtMC4yMy0wLjMzLTAuNDctMC42OC0wLjYzLTAuOTFsLTAuMDUtMC4wOGwtMC4wNy0wLjA3Yy0wLjE2LTAuMTctMC4zLTAuMzUtMC4zOS0wLjU1JiMxMDsmIzk7JiM5OyYjOTtjLTEuNjctMy4zNC00LjkyLTUuNS04LjYxLTUuNzVMMjYuNDQsMEwyNi40NCwweiIgY2xhc3M9InN0MCIvPiYjeGE7CTwvZz4mI3hhOwk8cGF0aCBkPSJNMy4xMiwyMC41Nmg1LjgydjEuODRIMS4wOGwwLjA3LTAuOTljMC4yNi0zLjUsMi4yNy02LjU2LDUuMzktOC4yYzAuODUtMC40NSwxLjQ0LTEuMjMsMS42Mi0yLjE2JiMxMDsmIzk7JiM5O2MwLjQ4LTIuNDQsMi4xMi00LjQ5LDQuMzktNS40OWMxLjE4LTAuNTIsMi40OC0wLjczLDMuNzYtMC42MWMwLjk2LDAuMDksMS44Ny0wLjI1LDIuNS0wLjkzYzEuNzQtMS44Nyw0LjEtMi45NCw2LjY1LTMuMDFoMCYjMTA7JiM5OyYjOTtjMC4wOCwwLDAuMTcsMCwwLjI1LDBjMy41OSwwLDYuODMsMiw4LjQzLDUuMjJjMC4xNSwwLjMsMC4zNSwwLjU3LDAuNTgsMC44Yy0wLjY5LDAuMDYtMS4zNywwLjE5LTIuMDEsMC4zOSYjMTA7JiM5OyYjOTtjLTAuMDctMC4xMi0wLjE0LTAuMjQtMC4yMS0wLjM3Yy0xLjI5LTIuNTktMy45LTQuMi02Ljc5LTQuMmMtMC4wNywwLTAuMTQsMC0wLjIxLDBjLTIuMDUsMC4wNS0zLjk2LDAuOTItNS4zNiwyLjQyJiMxMDsmIzk7JiM5O2MtMS4wMiwxLjEtMi40OSwxLjY1LTQuMDIsMS41MWMtMC45Ny0wLjA5LTEuOTUsMC4wNy0yLjg1LDAuNDZjLTEuNzIsMC43Ni0yLjk2LDIuMzEtMy4zMyw0LjE2Yy0wLjI5LDEuNDctMS4yMywyLjcyLTIuNTcsMy40MyYjMTA7JiM5OyYjOTtDNS4xNCwxNi4wMiwzLjU5LDE4LjEyLDMuMTIsMjAuNTYgTTM0LjY5LDEyaDEuODJsMi41NSw4Ljg2aC0xLjk2TDM2LjY2LDE5aC0yLjIxbC0wLjQzLDEuODZoLTEuOUwzNC42OSwxMnogTTM0LjgsMTcuNDloMS41MiYjMTA7JiM5OyYjOTtsLTAuNzYtMy4zMUwzNC44LDE3LjQ5eiBNMjcuMTIsMTYuM2wtMS42Ny0xLjY3bC0xLjMsMS4zbDMuODcsMy44N2wzLjg3LTMuODdsLTEuMy0xLjNsLTEuNjIsMS42MmMwLjMyLTMuMzgsMy4xOC02LjAyLDYuNjMtNi4wMiYjMTA7JiM5OyYjOTtjMi41LDAsNC43NCwxLjQsNS44OCwzLjUybDEuMzQtMS4zNGMtMS41Mi0yLjQzLTQuMjItNC4wMS03LjIyLTQuMDFDMzEuMTEsOC4zOCwyNy40MiwxMS44OCwyNy4xMiwxNi4zIE00Ny4wNiwxNy44NGwtMy44Ny0zLjg3JiMxMDsmIzk7JiM5O2wtMy44NywzLjg3bDEuMywxLjNsMS42Mi0xLjYyYy0wLjMyLDMuMzgtMy4xOCw2LjAyLTYuNjMsNi4wMmMtMi41LDAtNC43NC0xLjQtNS44OC0zLjUybC0xLjM0LDEuMzQmIzEwOyYjOTsmIzk7YzEuNTIsMi40Myw0LjIyLDQuMDEsNy4yMiw0LjAxYzQuNDksMCw4LjE4LTMuNSw4LjQ4LTcuOTJsMS42NywxLjY3TDQ3LjA2LDE3Ljg0eiBNMzIuODUsMjYuNThjMC41OSwwLjE4LDEuMjEsMC4zLDEuODQsMC4zNiYjMTA7JiM5OyYjOTt2MTAuNDZjMCwxLjI0LTEuMzEsMi4xNi00LDIuOGMtMi4yLDAuNTMtNS4xLDAuODEtOC4xOCwwLjgxcy01Ljk4LTAuMjktOC4xOC0wLjgxYy0yLjY5LTAuNjQtNC0xLjU2LTQtMi44VjE3LjgmIzEwOyYjOTsmIzk7YzAtMS4yNSwxLjMyLTIuMTQsNC4wMi0yLjczYzIuMTMtMC40Niw1LjAzLTAuNzIsOC4xNi0wLjcyYzAuMTUsMCwwLjMxLDAsMC40NiwwdjEuODRjLTAuMTUsMC0wLjMsMC0wLjQ2LDAmIzEwOyYjOTsmIzk7Yy02LjU1LDAtOS45MywxLjA3LTEwLjM0LDEuNjd2MC4xMWMwLjQ0LDAuNjcsNC4xOSwxLjg0LDEwLjM0LDEuODRjMS4yNywwLDIuNDQtMC4wNSwzLjUtMC4xM2MwLjE4LDAuNjIsMC40MSwxLjIyLDAuNywxLjc4JiMxMDsmIzk7JiM5O2MtMS4zMiwwLjEyLTIuNzQsMC4xOS00LjIsMC4xOWMtMy4wOCwwLTUuOTgtMC4yOS04LjE4LTAuODFjLTAuODYtMC4yMS0xLjU4LTAuNDQtMi4xNy0wLjcxdjQuMjhjMC40NCwwLjY3LDQuMTksMS44NCwxMC4zNCwxLjg0JiMxMDsmIzk7JiM5O2MzLjQxLDAsNi4wNy0wLjM2LDcuODUtMC43OWMwLjc2LDAuNDgsMS41OSwwLjg2LDIuNDcsMS4xMmMtMC41OCwwLjI2LTEuMjksMC40OS0yLjE0LDAuNjljLTIuMiwwLjUzLTUuMSwwLjgxLTguMTgsMC44MSYjMTA7JiM5OyYjOTtzLTUuOTgtMC4yOS04LjE4LTAuODFjLTAuODYtMC4yMS0xLjU4LTAuNDQtMi4xNy0wLjcxdjQuMzNjMC40NCwwLjY3LDQuMTksMS44NCwxMC4zNCwxLjg0czkuOTEtMS4xNywxMC4zNC0xLjg0VjI2LjU4eiYjMTA7JiM5OyYjOTsgTTMyLjg1LDMzLjA2Yy0wLjU4LDAuMjYtMS4zLDAuNS0yLjE3LDAuNzFjLTIuMiwwLjUzLTUuMSwwLjgxLTguMTgsMC44MXMtNS45OC0wLjI5LTguMTgtMC44MWMtMC44Ni0wLjIxLTEuNTgtMC40NC0yLjE3LTAuNzEmIzEwOyYjOTsmIzk7djQuMjljMC4zOSwwLjU2LDMuNzksMS44NCwxMC4zNCwxLjg0czkuOTYtMS4yNywxMC4zNC0xLjg0VjMzLjA2eiIgY2xhc3M9InN0MSIvPiYjeGE7PC9nPiYjeGE7PC9zdmc+;" parent="1" vertex="1">
          <mxGeometry x="490" y="50" width="45.71" height="40" as="geometry" />
        </mxCell>
        <mxCell id="ToZxlwKgEHcJ9AsKF1VZ-27" style="edgeStyle=orthogonalEdgeStyle;rounded=0;orthogonalLoop=1;jettySize=auto;html=1;exitX=1;exitY=0.5;exitDx=0;exitDy=0;entryX=0;entryY=0.5;entryDx=0;entryDy=0;" parent="1" source="ToZxlwKgEHcJ9AsKF1VZ-28" target="ToZxlwKgEHcJ9AsKF1VZ-34" edge="1">
          <mxGeometry relative="1" as="geometry" />
        </mxCell>
        <mxCell id="ToZxlwKgEHcJ9AsKF1VZ-28" value="&lt;b&gt;JSON Collection Table&lt;/b&gt;" style="rounded=1;whiteSpace=wrap;html=1;verticalAlign=top;align=center;spacingLeft=0;spacingTop=4;arcSize=12;" parent="1" vertex="1">
          <mxGeometry x="500" y="100" width="140" height="160" as="geometry" />
        </mxCell>
        <mxCell id="ToZxlwKgEHcJ9AsKF1VZ-29" value="" style="group" parent="1" vertex="1" connectable="0">
          <mxGeometry x="520" y="170" width="100" height="70" as="geometry" />
        </mxCell>
        <mxCell id="ToZxlwKgEHcJ9AsKF1VZ-30" value="" style="shape=document;whiteSpace=wrap;html=1;boundedLbl=1;" parent="ToZxlwKgEHcJ9AsKF1VZ-29" vertex="1">
          <mxGeometry width="77.77777777777779" height="50" as="geometry" />
        </mxCell>
        <mxCell id="ToZxlwKgEHcJ9AsKF1VZ-31" value="" style="shape=document;whiteSpace=wrap;html=1;boundedLbl=1;" parent="ToZxlwKgEHcJ9AsKF1VZ-29" vertex="1">
          <mxGeometry x="11.11111111111111" y="10" width="77.77777777777779" height="50" as="geometry" />
        </mxCell>
        <mxCell id="ToZxlwKgEHcJ9AsKF1VZ-32" value="JSON" style="shape=document;whiteSpace=wrap;html=1;boundedLbl=1;" parent="ToZxlwKgEHcJ9AsKF1VZ-29" vertex="1">
          <mxGeometry x="22.22222222222222" y="20" width="77.77777777777779" height="50" as="geometry" />
        </mxCell>
        <mxCell id="ToZxlwKgEHcJ9AsKF1VZ-33" style="edgeStyle=orthogonalEdgeStyle;rounded=0;orthogonalLoop=1;jettySize=auto;html=1;exitX=1;exitY=0.5;exitDx=0;exitDy=0;entryX=0;entryY=0.5;entryDx=0;entryDy=0;" parent="1" source="ToZxlwKgEHcJ9AsKF1VZ-19" target="ToZxlwKgEHcJ9AsKF1VZ-28" edge="1">
          <mxGeometry relative="1" as="geometry" />
        </mxCell>
        <mxCell id="ToZxlwKgEHcJ9AsKF1VZ-34" value="&lt;b&gt;Views&lt;/b&gt;" style="rounded=1;whiteSpace=wrap;html=1;verticalAlign=top;align=center;spacingLeft=0;spacingTop=4;arcSize=12;" parent="1" vertex="1">
          <mxGeometry x="670" y="100" width="140" height="160" as="geometry" />
        </mxCell>
        <mxCell id="ToZxlwKgEHcJ9AsKF1VZ-43" value="&lt;b&gt;Oracle Analytics Cloud&lt;/b&gt;" style="rounded=1;whiteSpace=wrap;html=1;verticalAlign=top;align=center;spacingLeft=0;spacingTop=4;arcSize=6;" parent="1" vertex="1">
          <mxGeometry x="870" y="40" width="350" height="240" as="geometry" />
        </mxCell>
        <mxCell id="ToZxlwKgEHcJ9AsKF1VZ-44" style="edgeStyle=orthogonalEdgeStyle;rounded=0;orthogonalLoop=1;jettySize=auto;html=1;exitX=1;exitY=0.5;exitDx=0;exitDy=0;entryX=0;entryY=0.5;entryDx=0;entryDy=0;" parent="1" source="ToZxlwKgEHcJ9AsKF1VZ-45" target="ToZxlwKgEHcJ9AsKF1VZ-51" edge="1">
          <mxGeometry relative="1" as="geometry" />
        </mxCell>
        <mxCell id="ToZxlwKgEHcJ9AsKF1VZ-45" value="&lt;b&gt;Data Sets&lt;/b&gt;" style="rounded=1;whiteSpace=wrap;html=1;verticalAlign=top;align=center;spacingLeft=0;spacingTop=4;arcSize=12;" parent="1" vertex="1">
          <mxGeometry x="890" y="100" width="140" height="160" as="geometry" />
        </mxCell>
        <mxCell id="ToZxlwKgEHcJ9AsKF1VZ-46" style="edgeStyle=orthogonalEdgeStyle;rounded=0;orthogonalLoop=1;jettySize=auto;html=1;exitX=1;exitY=0.5;exitDx=0;exitDy=0;entryX=0;entryY=0.5;entryDx=0;entryDy=0;" parent="1" source="ToZxlwKgEHcJ9AsKF1VZ-34" target="ToZxlwKgEHcJ9AsKF1VZ-45" edge="1">
          <mxGeometry relative="1" as="geometry" />
        </mxCell>
        <mxCell id="ToZxlwKgEHcJ9AsKF1VZ-47" value="" style="shape=image;verticalLabelPosition=bottom;labelBackgroundColor=default;verticalAlign=top;aspect=fixed;imageAspect=0;image=data:image/svg+xml,PHN2ZyB4bWxuczp4bGluaz0iaHR0cDovL3d3dy53My5vcmcvMTk5OS94bGluayIgeG1sbnM9Imh0dHA6Ly93d3cudzMub3JnLzIwMDAvc3ZnIiB4bWw6c3BhY2U9InByZXNlcnZlIiBzdHlsZT0iZW5hYmxlLWJhY2tncm91bmQ6bmV3IDAgMCA0OS4yIDQyOyIgdmlld0JveD0iMCAwIDQ5LjIgNDIiIHk9IjBweCIgeD0iMHB4IiBpZD0iTGF5ZXJfMSIgdmVyc2lvbj0iMS4xIj4mI3hhOzxtZXRhZGF0YT4mI3hhOyYjeGE7ICAgJiN4YTsgICAgICAmI3hhOyAgICAgICAgIDIwMjItMTEtMTFUMTQ6Mzk6MTYtMDY6MDAmI3hhOyAgICAgICAgIHhtcC5paWQ6MTA5YTY4YjMtZDk2Ny00YmY5LTk5NWQtYjRjYjc5NWRlMGNlJiN4YTsgICAgICAgICB4bXAuZGlkOjVkNjZlNzYwLWM4YjYtNDgyMS1hNWQyLWJhYjFkMDQyZTVlYyYjeGE7ICAgICAgICAgeG1wLmRpZDo1ZDY2ZTc2MC1jOGI2LTQ4MjEtYTVkMi1iYWIxZDA0MmU1ZWMmI3hhOyAgICAgICAgICYjeGE7ICAgICAgICAgICAgJiN4YTsgICAgICAgICAgICAgICAmI3hhOyAgICAgICAgICAgICAgICAgICYjeGE7ICAgICAgICAgICAgICAgICAgICAgc2F2ZWQmI3hhOyAgICAgICAgICAgICAgICAgICAgIHhtcC5paWQ6NWQ2NmU3NjAtYzhiNi00ODIxLWE1ZDItYmFiMWQwNDJlNWVjJiN4YTsgICAgICAgICAgICAgICAgICAgICAyMDIxLTA0LTI3VDEzOjM0OjMzLTA1OjAwJiN4YTsgICAgICAgICAgICAgICAgICAgICBBZG9iZSBCcmlkZ2UgMjAyMSAoTWFjaW50b3NoKSYjeGE7ICAgICAgICAgICAgICAgICAgICAgL21ldGFkYXRhJiN4YTsgICAgICAgICAgICAgICAgICAmI3hhOyAgICAgICAgICAgICAgICYjeGE7ICAgICAgICAgICAgICAgJiN4YTsgICAgICAgICAgICAgICAgICAmI3hhOyAgICAgICAgICAgICAgICAgICAgIHNhdmVkJiN4YTsgICAgICAgICAgICAgICAgICAgICB4bXAuaWlkOjEwOWE2OGIzLWQ5NjctNGJmOS05OTVkLWI0Y2I3OTVkZTBjZSYjeGE7ICAgICAgICAgICAgICAgICAgICAgMjAyMi0xMS0xMVQxNDozOToxNi0wNjowMCYjeGE7ICAgICAgICAgICAgICAgICAgICAgQWRvYmUgQnJpZGdlIDIwMjEgKE1hY2ludG9zaCkmI3hhOyAgICAgICAgICAgICAgICAgICAgIC9tZXRhZGF0YSYjeGE7ICAgICAgICAgICAgICAgICAgJiN4YTsgICAgICAgICAgICAgICAmI3hhOyAgICAgICAgICAgICYjeGE7ICAgICAgICAgJiN4YTsgICAgICAgICBUcnVlJiN4YTsgICAgICAgICAmI3hhOyAgICAgICAgICAgICYjeGE7ICAgICAgICAgICAgICAgQW5hbHl0aWNzJiN4YTsgICAgICAgICAgICAgICBTZXJ2aWNlJiN4YTsgICAgICAgICAgICAgICBEYXRhJiN4YTsgICAgICAgICAgICAgICBPdGhlciYjeGE7ICAgICAgICAgICAgICAgaWNvbiYjeGE7ICAgICAgICAgICAgJiN4YTsgICAgICAgICAmI3hhOyAgICAgICAgICYjeGE7ICAgICAgICAgICAgJiN4YTsgICAgICAgICAgICAgICBBbmFseXRpY3MmI3hhOyAgICAgICAgICAgICAgIFNlcnZpY2UmI3hhOyAgICAgICAgICAgICAgIERhdGEmI3hhOyAgICAgICAgICAgICAgIGdyYXBoJiN4YTsgICAgICAgICAgICAgICBCdXNpbmVzcyYjeGE7ICAgICAgICAgICAgICAgYW5hbHlzaXMmI3hhOyAgICAgICAgICAgICAgIGRhdGEmI3hhOyAgICAgICAgICAgICAgIGljb24mI3hhOyAgICAgICAgICAgICAgIG1vbml0b3ImI3hhOyAgICAgICAgICAgICYjeGE7ICAgICAgICAgJiN4YTsgICAgICAgICAmI3hhOyAgICAgICAgICAgICYjeGE7ICAgICAgICAgICAgICAgT3JhY2xlIEFsbCBSaWdodHMgUmVzZXJ2ZWQmI3hhOyAgICAgICAgICAgICYjeGE7ICAgICAgICAgJiN4YTsgICAgICAmI3hhOyAgICYjeGE7JiN4YTsgICAgICAgICAgICAgICAgICAgICAgICAgICAgICAgICAgICAgICAgICAgICAgICAgICAgICAgICAgICAgICAgICAgICAgICAgICAgICAgICAgICAgICAgICAgICAgICAgICAgJiN4YTsgICAgICAgICAgICAgICAgICAgICAgICAgICAgICAgICAgICAgICAgICAgICAgICAgICAgICAgICAgICAgICAgICAgICAgICAgICAgICAgICAgICAgICAgICAgICAgICAgICAgJiN4YTsgICAgICAgICAgICAgICAgICAgICAgICAgICAgICAgICAgICAgICAgICAgICAgICAgICAgICAgICAgICAgICAgICAgICAgICAgICAgICAgICAgICAgICAgICAgICAgICAgICAgJiN4YTsgICAgICAgICAgICAgICAgICAgICAgICAgICAgICAgICAgICAgICAgICAgICAgICAgICAgICAgICAgICAgICAgICAgICAgICAgICAgICAgICAgICAgICAgICAgICAgICAgICAgJiN4YTsgICAgICAgICAgICAgICAgICAgICAgICAgICAgICAgICAgICAgICAgICAgICAgICAgICAgICAgICAgICAgICAgICAgICAgICAgICAgICAgICAgICAgICAgICAgICAgICAgICAgJiN4YTsgICAgICAgICAgICAgICAgICAgICAgICAgICAgICAgICAgICAgICAgICAgICAgICAgICAgICAgICAgICAgICAgICAgICAgICAgICAgICAgICAgICAgICAgICAgICAgICAgICAgJiN4YTsgICAgICAgICAgICAgICAgICAgICAgICAgICAgICAgICAgICAgICAgICAgICAgICAgICAgICAgICAgICAgICAgICAgICAgICAgICAgICAgICAgICAgICAgICAgICAgICAgICAgJiN4YTsgICAgICAgICAgICAgICAgICAgICAgICAgICAgICAgICAgICAgICAgICAgICAgICAgICAgICAgICAgICAgICAgICAgICAgICAgICAgICAgICAgICAgICAgICAgICAgICAgICAgJiN4YTsgICAgICAgICAgICAgICAgICAgICAgICAgICAgICAgICAgICAgICAgICAgICAgICAgICAgICAgICAgJiN4YTs8L21ldGFkYXRhPiYjeGE7PGc+JiN4YTsJPGc+JiN4YTsJCTxwYXRoIGQ9Ik0xNy4zLDQxLjV2LTEuOGwyLjQtMS4ySDIwbDAuMS0wLjVoLTguOFYyNUgwLjVsMC4xLTEuNmMwLjMtNCwyLjYtNy42LDYuMi05LjQmIzEwOyYjOTsmIzk7JiM5O2MwLjgtMC40LDEuNC0xLjIsMS41LTJjMC42LTIuOCwyLjUtNS4yLDUuMS02LjRjMS4xLTAuNSwyLjMtMC43LDMuNi0wLjdjMC4zLDAsMC41LDAsMC44LDBjMC4xLDAsMC4yLDAsMC4zLDAmIzEwOyYjOTsmIzk7JiM5O2MwLjgsMCwxLjUtMC4zLDItMC45YzIuMS0yLjIsNS0zLjUsOC0zLjVjNC4xLDAsNy45LDIuMyw5LjcsNmMwLjQsMC44LDEuMSwxLjQsMiwxLjZjMS4yLDAuMywyLjQsMC44LDMuNSwxLjUmIzEwOyYjOTsmIzk7JiM5O2M0LjksMy4xLDYuNiw5LjYsMy45LDE0LjdMNDcsMjVoLTguOVYzOGgtOC44bDAuMSwwLjVoMC41bDIuNCwxLjJ2MS44SDE3LjN6IiBzdHlsZT0iZmlsbDojRkZGRkZGOyIvPiYjeGE7CQk8cGF0aCBkPSJNMjguMiwxYzQsMCw3LjUsMi4yLDkuMyw1LjdjMC41LDAuOSwxLjMsMS42LDIuNCwxLjhjMS4yLDAuMywyLjMsMC43LDMuNCwxLjQmIzEwOyYjOTsmIzk7JiM5O2M0LjcsMyw2LjMsOS4xLDMuNywxNGwtMC4zLDAuNWgtOS4xdjEyLjloLTguOWwwLjIsMS41aDAuOWwyLDF2MWgtMmgtOS45aC0ydi0xbDItMWgwLjZsMC4yLTEuNWgtOC45VjI0LjVIMS4xbDAuMS0xLjEmIzEwOyYjOTsmIzk7JiM5O2MwLjMtMy45LDIuNS03LjIsNS45LTljMC45LTAuNSwxLjYtMS40LDEuOC0yLjRjMC41LTIuNywyLjMtNC45LDQuOC02YzEuMS0wLjUsMi4yLTAuNywzLjQtMC43YzAuMywwLDAuNSwwLDAuOCwwJiMxMDsmIzk7JiM5OyYjOTtjMC4xLDAsMC4yLDAsMC4zLDBjMC45LDAsMS44LTAuNCwyLjQtMUMyMi42LDIuMiwyNS4zLDEsMjguMiwxIE0yOC4yLDBjLTMuMiwwLTYuMiwxLjMtOC4zLDMuNmMtMC40LDAuNS0xLDAuNy0xLjcsMC43JiMxMDsmIzk7JiM5OyYjOTtjLTAuMSwwLTAuMiwwLTAuMiwwYy0wLjMsMC0wLjYsMC0wLjksMGMtMS4zLDAtMi42LDAuMy0zLjgsMC44Yy0yLjgsMS4yLTQuOCwzLjgtNS40LDYuOGMtMC4xLDAuNy0wLjYsMS4zLTEuMywxLjcmIzEwOyYjOTsmIzk7JiM5O2MtMy43LDItNi4yLDUuNi02LjUsOS44bC0wLjEsMS4xTDAsMjUuNWgxLjFoOS43djExLjl2MWgxaDYuOWwtMS4zLDAuNmwtMC42LDAuM1Y0MHYxdjFoMWgyaDkuOWgyaDF2LTF2LTF2LTAuNmwtMC42LTAuMyYjMTA7JiM5OyYjOTsmIzk7bC0xLjMtMC42aDYuNmgxdi0xVjI1LjVoOC4xaDAuNmwwLjMtMC41bDAuMy0wLjVjMi45LTUuNCwxLjEtMTIuMS00LTE1LjRjLTEuMS0wLjctMi40LTEuMi0zLjctMS41Yy0wLjctMC4yLTEuNC0wLjYtMS43LTEuMyYjMTA7JiM5OyYjOTsmIzk7QzM2LjUsMi40LDMyLjYsMCwyOC4yLDBMMjguMiwweiIgc3R5bGU9ImZpbGw6I0ZGRkZGRjsiLz4mI3hhOwk8L2c+JiN4YTsJPGc+JiN4YTsJCTxwYXRoIGQ9Ik0xMS44LDM3LjVoOC45TDIwLjUsMzloLTAuNnYwbC0yLDF2MWgydjBoOS45djBoMnYtMWwtMi0xdjBoLTAuOWwtMC4yLTEuNWg4Ljl2LTIwSDExLjhWMzcuNXomIzEwOyYjOTsmIzk7JiM5OyBNMjIuNSwzOWwwLjItMS41aDRsMC4yLDEuNUgyMi41eiBNMTMuOCwxOS41aDIxLjh2MTIuNGgtMy4zdjFoLTJ2LTFoLTIuNHYxaC0ydi0xaC0yLjR2MWgtMnYtMWgtMi40djFoLTJ2LTFoLTNWMTkuNXomIzEwOyYjOTsmIzk7JiM5OyBNMTMuOCwzMy45aDIxLjh2MS41SDEzLjhWMzMuOXoiIHN0eWxlPSJmaWxsOiMyQzU5Njc7Ii8+JiN4YTsJCTxwYXRoIGQ9Ik00My4yLDEwYy0xLTAuNy0yLjItMS4xLTMuNC0xLjRjLTEtMC4yLTEuOS0wLjktMi40LTEuOEMzNS43LDMuMiwzMi4yLDEsMjguMiwxJiMxMDsmIzk7JiM5OyYjOTtjLTIuOSwwLTUuNywxLjItNy42LDMuM2MtMC43LDAuNy0xLjcsMS4xLTIuNywxQzE2LjQsNS4yLDE1LDUuNCwxMy43LDZjLTIuNSwxLjEtNC4zLDMuNC00LjgsNmMtMC4yLDEtMC45LDEuOS0xLjgsMi40JiMxMDsmIzk7JiM5OyYjOTtjLTMuNCwxLjgtNS42LDUuMi01LjksOWwtMC4xLDEuMWg5LjJ2LTJIMy4zYzAuNS0yLjcsMi4yLTUsNC43LTYuM2MxLjUtMC44LDIuNS0yLjIsMi44LTMuOGMwLjQtMiwxLjgtMy43LDMuNy00LjYmIzEwOyYjOTsmIzk7JiM5O2MxLTAuNCwyLjEtMC42LDMuMS0wLjVjMS43LDAuMiwzLjMtMC40LDQuNC0xLjdDMjMuNyw0LDI1LjksMywyOC4yLDNjMy4yLDAsNi4xLDEuOCw3LjUsNC42YzAuNywxLjUsMi4xLDIuNiwzLjgsMi45JiMxMDsmIzk7JiM5OyYjOTtjMSwwLjIsMS45LDAuNiwyLjcsMS4xYzMuNiwyLjMsNSw3LDMuMywxMC44aC02LjN2Mmg3LjZsMC4zLTAuNUM0OS42LDE5LjEsNDgsMTIuOSw0My4yLDEweiIgc3R5bGU9ImZpbGw6IzJDNTk2NzsiLz4mI3hhOwkJPHBvbHlnb24gcG9pbnRzPSIxNi44LDI4LjMgMTYuOCwzMS45IDE2LjgsMzIuOSAxOC44LDMyLjkgMTguOCwzMS45IDE4LjgsMjguMyIgc3R5bGU9ImZpbGw6IzJDNTk2NzsiLz4mI3hhOwkJPHBvbHlnb24gcG9pbnRzPSIyMS4zLDI2LjMgMjEuMywzMS45IDIxLjMsMzIuOSAyMy4zLDMyLjkgMjMuMywzMS45IDIzLjMsMjYuMyIgc3R5bGU9ImZpbGw6IzJDNTk2NzsiLz4mI3hhOwkJPHBvbHlnb24gcG9pbnRzPSIyNS44LDIzLjUgMjUuOCwzMS45IDI1LjgsMzIuOSAyNy44LDMyLjkgMjcuOCwzMS45IDI3LjgsMjMuNSIgc3R5bGU9ImZpbGw6IzJDNTk2NzsiLz4mI3hhOwkJPHBvbHlnb24gcG9pbnRzPSIzMC4yLDIxIDMwLjIsMzEuOSAzMC4yLDMyLjkgMzIuMywzMi45IDMyLjMsMzEuOSAzMi4zLDIxIiBzdHlsZT0iZmlsbDojMkM1OTY3OyIvPiYjeGE7CTwvZz4mI3hhOzwvZz4mI3hhOzwvc3ZnPg==;" parent="1" vertex="1">
          <mxGeometry x="880" y="50" width="46.66" height="40" as="geometry" />
        </mxCell>
        <mxCell id="ToZxlwKgEHcJ9AsKF1VZ-51" value="&lt;b&gt;Visualizations&lt;/b&gt;" style="rounded=1;whiteSpace=wrap;html=1;verticalAlign=top;align=center;spacingLeft=0;spacingTop=4;arcSize=12;" parent="1" vertex="1">
          <mxGeometry x="1060" y="100" width="140" height="160" as="geometry" />
        </mxCell>
        <mxCell id="ToZxlwKgEHcJ9AsKF1VZ-54" value="" style="shape=image;verticalLabelPosition=bottom;labelBackgroundColor=default;verticalAlign=top;aspect=fixed;imageAspect=0;image=data:image/svg+xml,PHN2ZyB4bWxuczp4bGluaz0iaHR0cDovL3d3dy53My5vcmcvMTk5OS94bGluayIgeG1sbnM9Imh0dHA6Ly93d3cudzMub3JnLzIwMDAvc3ZnIiB4bWw6c3BhY2U9InByZXNlcnZlIiBzdHlsZT0iZW5hYmxlLWJhY2tncm91bmQ6bmV3IDAgMCA0MiA0MjsiIHZpZXdCb3g9IjAgMCA0MiA0MiIgeT0iMHB4IiB4PSIwcHgiIGlkPSJMYXllcl8xIiB2ZXJzaW9uPSIxLjEiPiYjeGE7PG1ldGFkYXRhPiYjeGE7JiN4YTsgICAmI3hhOyAgICAgICYjeGE7ICAgICAgICAgMjAyMi0xMC0yMVQxMzo1Ny0wNTowMCYjeGE7ICAgICAgICAgeG1wLmlpZDo2ZTQyNThhZC0yODYwLTQ0MzUtYWE5Mi1mZTM2ZGY1MjllYmQmI3hhOyAgICAgICAgIHhtcC5kaWQ6NDI0NzZhNmItMzQ3ZS00ZWJjLTg0YmYtNThmMGViZjQ3NjU2JiN4YTsgICAgICAgICB4bXAuZGlkOjQyNDc2YTZiLTM0N2UtNGViYy04NGJmLTU4ZjBlYmY0NzY1NiYjeGE7ICAgICAgICAgJiN4YTsgICAgICAgICAgICAmI3hhOyAgICAgICAgICAgICAgICYjeGE7ICAgICAgICAgICAgICAgICAgJiN4YTsgICAgICAgICAgICAgICAgICAgICBzYXZlZCYjeGE7ICAgICAgICAgICAgICAgICAgICAgeG1wLmlpZDo0MjQ3NmE2Yi0zNDdlLTRlYmMtODRiZi01OGYwZWJmNDc2NTYmI3hhOyAgICAgICAgICAgICAgICAgICAgIDIwMjEtMDQtMjdUMTM6NDE6MzAtMDU6MDAmI3hhOyAgICAgICAgICAgICAgICAgICAgIEFkb2JlIEJyaWRnZSAyMDIxIChNYWNpbnRvc2gpJiN4YTsgICAgICAgICAgICAgICAgICAgICAvbWV0YWRhdGEmI3hhOyAgICAgICAgICAgICAgICAgICYjeGE7ICAgICAgICAgICAgICAgJiN4YTsgICAgICAgICAgICAgICAmI3hhOyAgICAgICAgICAgICAgICAgICYjeGE7ICAgICAgICAgICAgICAgICAgICAgc2F2ZWQmI3hhOyAgICAgICAgICAgICAgICAgICAgIHhtcC5paWQ6NmU0MjU4YWQtMjg2MC00NDM1LWFhOTItZmUzNmRmNTI5ZWJkJiN4YTsgICAgICAgICAgICAgICAgICAgICAyMDIyLTEwLTIxVDEzOjU3LTA1OjAwJiN4YTsgICAgICAgICAgICAgICAgICAgICBBZG9iZSBCcmlkZ2UgMjAyMSAoTWFjaW50b3NoKSYjeGE7ICAgICAgICAgICAgICAgICAgICAgL21ldGFkYXRhJiN4YTsgICAgICAgICAgICAgICAgICAmI3hhOyAgICAgICAgICAgICAgICYjeGE7ICAgICAgICAgICAgJiN4YTsgICAgICAgICAmI3hhOyAgICAgICAgIFRydWUmI3hhOyAgICAgICAgICYjeGE7ICAgICAgICAgICAgJiN4YTsgICAgICAgICAgICAgICBTdG9yYWdlJiN4YTsgICAgICAgICAgICAgICBPYmplY3QmI3hhOyAgICAgICAgICAgICAgIGljb24mI3hhOyAgICAgICAgICAgICAgIHNoYXBlJiN4YTsgICAgICAgICAgICAmI3hhOyAgICAgICAgICYjeGE7ICAgICAgICAgJiN4YTsgICAgICAgICAgICAmI3hhOyAgICAgICAgICAgICAgIE9yYWNsZSBBbGwgUmlnaHRzIFJlc2VydmVkJiN4YTsgICAgICAgICAgICAmI3hhOyAgICAgICAgICYjeGE7ICAgICAgICAgJiN4YTsgICAgICAgICAgICAmI3hhOyAgICAgICAgICAgICAgIFN0b3JhZ2UmI3hhOyAgICAgICAgICAgICAgIE9iamVjdCYjeGE7ICAgICAgICAgICAgICAgaWNvbiYjeGE7ICAgICAgICAgICAgJiN4YTsgICAgICAgICAmI3hhOyAgICAgICYjeGE7ICAgJiN4YTsmI3hhOyAgICAgICAgICAgICAgICAgICAgICAgICAgICAgICAgICAgICAgICAgICAgICAgICAgICAgICAgICAgICAgICAgICAgICAgICAgICAgICAgICAgICAgICAgICAgICAgICAgICAmI3hhOyAgICAgICAgICAgICAgICAgICAgICAgICAgICAgICAgICAgICAgICAgICAgICAgICAgICAgICAgICAgICAgICAgICAgICAgICAgICAgICAgICAgICAgICAgICAgICAgICAgICAmI3hhOyAgICAgICAgICAgICAgICAgICAgICAgICAgICAgICAgICAgICAgICAgICAgICAgICAgICAgICAgICAgICAgICAgICAgICAgICAgICAgICAgICAgICAgICAgICAgICAgICAgICAmI3hhOyAgICAgICAgICAgICAgICAgICAgICAgICAgICAgICAgICAgICAgICAgICAgICAgICAgICAgICAgICAgICAgICAgICAgICAgICAgICAgICAgICAgICAgICAgICAgICAgICAgICAmI3hhOyAgICAgICAgICAgICAgICAgICAgICAgICAgICAgICAgICAgICAgICAgICAgICAgICAgICAgICAgICAgICAgICAgICAgICAgICAgICAgICAgICAgICAgICAgICAgICAgICAgICAmI3hhOyAgICAgICAgICAgICAgICAgICAgICAgICAgICAgICAgICAgICAgICAgICAgICAgICAgICAgICAgICAgICAgICAgICAgICAgICAgICAgICAgICAgICAgICAgICAgICAgICAgICAmI3hhOyAgICAgICAgICAgICAgICAgICAgICAgICAgICAgICAgICAgICAgICAgICAgICAgICAgICAgICAgICAgICAgICAgICAgICAgICAgICAgICAgICAgICAgICAgICAgICAgICAgICAmI3hhOyAgICAgICAgICAgICAgICAgICAgICAgICAgICAgICAgICAgICAgICAgICAgICAgICAgICAgICAgICAgICAgICAgICAgICAgICAgICAgICAgICAgICAgICAgICAgICAgICAgICAmI3hhOyAgICAgICAgICAgICAgICAgICAgICAgICAgICAgICAgICAgICAgICAgICAgICYjeGE7PC9tZXRhZGF0YT4mI3hhOzxzdHlsZSB0eXBlPSJ0ZXh0L2NzcyI+JiN4YTsJLnN0MHtmaWxsOiNGRkZGRkY7fSYjeGE7CS5zdDF7ZmlsbDojMkM1OTY3O30mI3hhOzwvc3R5bGU+JiN4YTs8Zz4mI3hhOwk8Zz4mI3hhOwkJPGc+JiN4YTsJCQk8cGF0aCBkPSJNMi42Nyw0MS41Yy0xLjE5LDAtMi4xNy0wLjk3LTIuMTctMi4xN1YyLjY3YzAtMS4yLDAuOTctMi4xNywyLjE3LTIuMTdoMzYuNjdjMS4xOSwwLDIuMTcsMC45NywyLjE3LDIuMTcmIzEwOyYjOTsmIzk7JiM5OyYjOTt2MzYuNjdjMCwxLjItMC45NywyLjE3LTIuMTcsMi4xN0gyLjY3eiIgY2xhc3M9InN0MCIvPiYjeGE7CQkJPHBhdGggZD0iTTM5LjMzLDFDNDAuMjUsMSw0MSwxLjc1LDQxLDIuNjd2MzYuNjdjMCwwLjkyLTAuNzUsMS42Ny0xLjY3LDEuNjdIMi42N0MxLjc1LDQxLDEsNDAuMjUsMSwzOS4zM1YyLjY3JiMxMDsmIzk7JiM5OyYjOTsmIzk7QzEsMS43NSwxLjc1LDEsMi42NywxSDM5LjMzIE0zOS4zMywwSDIuNjdDMS4yLDAsMCwxLjIsMCwyLjY3djM2LjY3QzAsNDAuOCwxLjIsNDIsMi42Nyw0MmgzNi42N0M0MC44LDQyLDQyLDQwLjgsNDIsMzkuMzNWMi42NyYjMTA7JiM5OyYjOTsmIzk7JiM5O0M0MiwxLjIsNDAuOCwwLDM5LjMzLDBMMzkuMzMsMHoiIGNsYXNzPSJzdDAiLz4mI3hhOwkJPC9nPiYjeGE7CQk8Zz4mI3hhOwkJCTxnPiYjeGE7CQkJCTxwYXRoIGQ9Ik0zMC40NCwxMS42NWwyLjcxLDQuNzJsLTIuNzQsNC43MmgtNS40NWwtMi43MS00LjcybDIuNzQtNC43MkgzMC40NCBNMzEuMywxMC4xN2gtNy4xNmwtMy41OSw2LjJsMy41Nyw2LjImIzEwOyYjOTsmIzk7JiM5OyYjOTsmIzk7aDcuMTZsMy41OS02LjJMMzEuMywxMC4xN0wzMS4zLDEwLjE3eiIgY2xhc3M9InN0MSIvPiYjeGE7CQkJPC9nPiYjeGE7CQkJPGc+JiN4YTsJCQkJPHBhdGggZD0iTTIwLjcyLDI1Ljk0YzIuNTksMCw0LjY5LDIuMSw0LjY5LDQuNjljMCwyLjU5LTIuMSw0LjY5LTQuNjksNC42OWMtMi41OSwwLTQuNjktMi4xLTQuNjktNC42OSYjMTA7JiM5OyYjOTsmIzk7JiM5OyYjOTtDMTYuMDQsMjguMDUsMTguMTQsMjUuOTQsMjAuNzIsMjUuOTQgTTIwLjcyLDI0LjQ2Yy0zLjQyLDAtNi4xNywyLjc2LTYuMTcsNi4xN2MwLDMuNDIsMi43OSw2LjE3LDYuMTcsNi4xNyYjMTA7JiM5OyYjOTsmIzk7JiM5OyYjOTtjMy4zOSwwLDYuMTctMi43Niw2LjE3LTYuMTdDMjYuOSwyNy4yMiwyNC4xNCwyNC40NiwyMC43MiwyNC40NkwyMC43MiwyNC40NnoiIGNsYXNzPSJzdDEiLz4mI3hhOwkJCTwvZz4mI3hhOwkJCTxnPiYjeGE7CQkJCTxwYXRoIGQ9Ik0xMy42LDEyLjgzbDQuMzgsNy45M0g5LjI2TDEzLjYsMTIuODMgTTEzLjU5LDkuNzVMNi43NiwyMi4yNGgxMy43MkwxMy41OSw5Ljc1TDEzLjU5LDkuNzV6IiBjbGFzcz0ic3QxIi8+JiN4YTsJCQk8L2c+JiN4YTsJCTwvZz4mI3hhOwkJPGc+JiN4YTsJCQk8cGF0aCBkPSJNMzkuMzMsNDFIMi42N0MxLjc1LDQxLDEsNDAuMjUsMSwzOS4zM1Y0Ljk5aDQwdjM0LjM1QzQxLDQwLjI1LDQwLjI1LDQxLDM5LjMzLDQxeiBNMi40OCw2LjQ3djMyLjg3JiMxMDsmIzk7JiM5OyYjOTsmIzk7YzAsMC4xLDAuMDgsMC4xOSwwLjE5LDAuMTloMzYuNjdjMC4xLDAsMC4xOS0wLjA4LDAuMTktMC4xOVY2LjQ3SDIuNDh6IiBjbGFzcz0ic3QxIi8+JiN4YTsJCTwvZz4mI3hhOwkJPGc+JiN4YTsJCQk8cGF0aCBkPSJNNDEsMy44N0gxVjIuNjdDMSwxLjc1LDEuNzUsMSwyLjY3LDFoMzYuNjdDNDAuMjUsMSw0MSwxLjc1LDQxLDIuNjdWMy44N3oiIGNsYXNzPSJzdDEiLz4mI3hhOwkJPC9nPiYjeGE7CTwvZz4mI3hhOzwvZz4mI3hhOzwvc3ZnPg==;" parent="1" vertex="1">
          <mxGeometry x="270" y="50" width="42" height="42" as="geometry" />
        </mxCell>
        <mxCell id="ToZxlwKgEHcJ9AsKF1VZ-55" value="&lt;b&gt;Data Source&lt;/b&gt;" style="rounded=1;whiteSpace=wrap;html=1;verticalAlign=top;align=center;spacingLeft=30;spacingTop=4;arcSize=6;strokeColor=default;fontFamily=Helvetica;fontSize=12;fontColor=default;fillColor=default;" parent="1" vertex="1">
          <mxGeometry x="40" y="40" width="180" height="240" as="geometry" />
        </mxCell>
        <mxCell id="ToZxlwKgEHcJ9AsKF1VZ-59" style="edgeStyle=orthogonalEdgeStyle;rounded=0;orthogonalLoop=1;jettySize=auto;html=1;exitX=1;exitY=0.5;exitDx=0;exitDy=0;entryX=0;entryY=0.5;entryDx=0;entryDy=0;" parent="1" source="ToZxlwKgEHcJ9AsKF1VZ-56" target="ToZxlwKgEHcJ9AsKF1VZ-19" edge="1">
          <mxGeometry relative="1" as="geometry" />
        </mxCell>
        <mxCell id="ToZxlwKgEHcJ9AsKF1VZ-56" value="&lt;b&gt;Application&lt;/b&gt;" style="rounded=1;whiteSpace=wrap;html=1;verticalAlign=top;align=center;spacingLeft=0;spacingTop=4;arcSize=12;" parent="1" vertex="1">
          <mxGeometry x="60" y="100" width="140" height="160" as="geometry" />
        </mxCell>
        <mxCell id="ToZxlwKgEHcJ9AsKF1VZ-58" value="" style="shape=image;verticalLabelPosition=bottom;labelBackgroundColor=default;verticalAlign=top;aspect=fixed;imageAspect=0;image=data:image/svg+xml,PHN2ZyB4bWxucz0iaHR0cDovL3d3dy53My5vcmcvMjAwMC9zdmciIHZpZXdCb3g9IjAgMCA0NC40NCA0MiIgZGF0YS1uYW1lPSJMYXllciAxIiBpZD0iTGF5ZXJfMSI+PGRlZnM+PHN0eWxlPi5jbHMtMXtmaWxsOiNmZmY7fS5jbHMtMntmaWxsOiMyYzU5Njc7fTwvc3R5bGU+PC9kZWZzPjx0aXRsZT5TdXBwbHktQ2hhaW4tUGxhbm5pbmctQ2xvdWQtU2VydmljZTwvdGl0bGU+PG1ldGFkYXRhPiYjeGE7JiN4YTsgICAmI3hhOyAgICAgICYjeGE7ICAgICAgICAgMjAyMi0xMS0yOFQxMzoyNTo1Ni0wNjowMCYjeGE7ICAgICAgICAgeG1wLmlpZDo1OWEzN2VjZC00YjI4LTQ5NDEtOWMwNi1iYzAwZWRhZTlkNjYmI3hhOyAgICAgICAgIHhtcC5kaWQ6NWNjM2I5YzYtZWM0Zi00MDQ4LThjZjItMTA2ODFlZTlhMTgzJiN4YTsgICAgICAgICB4bXAuZGlkOjVjYzNiOWM2LWVjNGYtNDA0OC04Y2YyLTEwNjgxZWU5YTE4MyYjeGE7ICAgICAgICAgJiN4YTsgICAgICAgICAgICAmI3hhOyAgICAgICAgICAgICAgICYjeGE7ICAgICAgICAgICAgICAgICAgJiN4YTsgICAgICAgICAgICAgICAgICAgICBzYXZlZCYjeGE7ICAgICAgICAgICAgICAgICAgICAgeG1wLmlpZDo1Y2MzYjljNi1lYzRmLTQwNDgtOGNmMi0xMDY4MWVlOWExODMmI3hhOyAgICAgICAgICAgICAgICAgICAgIDIwMjEtMDctMTZUMTQ6MTk6NTktMDU6MDAmI3hhOyAgICAgICAgICAgICAgICAgICAgIEFkb2JlIEJyaWRnZSAyMDIxIChNYWNpbnRvc2gpJiN4YTsgICAgICAgICAgICAgICAgICAgICAvbWV0YWRhdGEmI3hhOyAgICAgICAgICAgICAgICAgICYjeGE7ICAgICAgICAgICAgICAgJiN4YTsgICAgICAgICAgICAgICAmI3hhOyAgICAgICAgICAgICAgICAgICYjeGE7ICAgICAgICAgICAgICAgICAgICAgc2F2ZWQmI3hhOyAgICAgICAgICAgICAgICAgICAgIHhtcC5paWQ6NTlhMzdlY2QtNGIyOC00OTQxLTljMDYtYmMwMGVkYWU5ZDY2JiN4YTsgICAgICAgICAgICAgICAgICAgICAyMDIyLTExLTI4VDEzOjI1OjU2LTA2OjAwJiN4YTsgICAgICAgICAgICAgICAgICAgICBBZG9iZSBCcmlkZ2UgMjAyMSAoTWFjaW50b3NoKSYjeGE7ICAgICAgICAgICAgICAgICAgICAgL21ldGFkYXRhJiN4YTsgICAgICAgICAgICAgICAgICAmI3hhOyAgICAgICAgICAgICAgICYjeGE7ICAgICAgICAgICAgJiN4YTsgICAgICAgICAmI3hhOyAgICAgICAgICYjeGE7ICAgICAgICAgICAgJiN4YTsgICAgICAgICAgICAgICBTdXBwbHktQ2hhaW4tUGxhbm5pbmctQ2xvdWQtU2VydmljZSYjeGE7ICAgICAgICAgICAgJiN4YTsgICAgICAgICAmI3hhOyAgICAgICAgICYjeGE7ICAgICAgICAgICAgJiN4YTsgICAgICAgICAgICAgICBpY29uJiN4YTsgICAgICAgICAgICAgICBhZG1pbmlzdHJhdGlvbiYjeGE7ICAgICAgICAgICAgICAgQnVzaW5lc3MmI3hhOyAgICAgICAgICAgICAgIE1hbmFnZW1lbnQmI3hhOyAgICAgICAgICAgICAgIGxvZ2lzdGljcyYjeGE7ICAgICAgICAgICAgICAgc2VydmljZSYjeGE7ICAgICAgICAgICAgICAgc3RvcmUmI3hhOyAgICAgICAgICAgICAgIGluZHVzdHJ5JiN4YTsgICAgICAgICAgICAgICBzaG9wJiN4YTsgICAgICAgICAgICAgICB2ZWhpY2xlJiN4YTsgICAgICAgICAgICAgICB0cnVjayYjeGE7ICAgICAgICAgICAgICAgdHJhbnNwb3J0YXRpb24mI3hhOyAgICAgICAgICAgICAgIGZhY3RvcnkmI3hhOyAgICAgICAgICAgICAgIGN5Y2xlJiN4YTsgICAgICAgICAgICAgICBjaXJjdWxhciYjeGE7ICAgICAgICAgICAgICAgU0NNJiN4YTsgICAgICAgICAgICAmI3hhOyAgICAgICAgICYjeGE7ICAgICAgICAgJiN4YTsgICAgICAgICAgICAmI3hhOyAgICAgICAgICAgICAgIGljb24mI3hhOyAgICAgICAgICAgICAgIE90aGVyIEtleXdvcmRzfGFkbWluaXN0cmF0aW9uJiN4YTsgICAgICAgICAgICAgICBCdXNpbmVzcyYjeGE7ICAgICAgICAgICAgICAgTWFuYWdlbWVudCYjeGE7ICAgICAgICAgICAgICAgc2VydmljZSYjeGE7ICAgICAgICAgICAgJiN4YTsgICAgICAgICAmI3hhOyAgICAgICYjeGE7ICAgJiN4YTsmI3hhOyAgICAgICAgICAgICAgICAgICAgICAgICAgICAgICAgICAgICAgICAgICAgICAgICAgICAgICAgICAgICAgICAgICAgICAgICAgICAgICAgICAgICAgICAgICAgICAgICAgICAmI3hhOyAgICAgICAgICAgICAgICAgICAgICAgICAgICAgICAgICAgICAgICAgICAgICAgICAgICAgICAgICAgICAgICAgICAgICAgICAgICAgICAgICAgICAgICAgICAgICAgICAgICAmI3hhOyAgICAgICAgICAgICAgICAgICAgICAgICAgICAgICAgICAgICAgICAgICAgICAgICAgICAgICAgICAgICAgICAgICAgICAgICAgICAgICAgICAgICAgICAgICAgICAgICAgICAmI3hhOyAgICAgICAgICAgICAgICAgICAgICAgICAgICAgICAgICAgICAgICAgICAgICAgICAgICAgICAgICAgICAgICAgICAgICAgICAgICAgICAgICAgICAgICAgICAgICAgICAgICAmI3hhOyAgICAgICAgICAgICAgICAgICAgICAgICAgICAgICAgICAgICAgICAgICAgICAgICAgICAgICAgICAgICAgICAgICAgICAgICAgICAgICAgICAgICAgICAgICAgICAgICAgICAmI3hhOyAgICAgICAgICAgICAgICAgICAgICAgICAgICAgICAgICAgICAgICAgICAgICAgICAgICAgICAgICAgICAgICAgICAgICAgICAgICAgICAgICAgICAgICAgICAgICAgICAgICAmI3hhOyAgICAgICAgICAgICAgICAgICAgICAgICAgICAgICAgICAgICAgICAgICAgICAgICAgICAgICAgICAgICAgICAgICAgICAgICAgICAgICAgICAgICAgICAgICAgICAgICAgICAmI3hhOyAgICAgICAgICAgICAgICAgICAgICAgICAgICAgICAgICAgICYjeGE7PC9tZXRhZGF0YT4mI3hhOzxwYXRoIGQ9Ik0zMS4yNCw0MS41YTEuNzksMS43OSwwLDAsMS0xLjczLTEuMzNoLTIuNmExLjc3LDEuNzcsMCwwLDEtMS43MiwxLjMzLDEuOCwxLjgsMCwwLDEtMS43My0xLjMzaC0uMTRhMS43OCwxLjc4LDAsMCwxLTMuNDUsMEgxOC40OVYzNWwtLjM3LS4xMnYwbC0uNy0uMjhhNy4wOSw3LjA5LDAsMCwxLS43OC0uMzlsLS4zNC0uMTdjLS4yNS0uMTQtLjQ5LS4yOS0uNzItLjQ0cy0uMzQtLjIyLS41LS4zNC0uMzgtLjI3LS41Ni0uNDItLjQ4LS40LS43Mi0uNjJsLS4xMS0uMUwxMy41MSwzMkExMSwxMSwwLDAsMSwxMi41NywzMWwtLjY2LS44MUgxMmwtLjI3LS40Mkg3LjlWMjIuNjdILjU0bC4xMS0xLjUyYTEwLjQzLDEwLjQzLDAsMCwxLDUuNi04LjUyQTIuNjMsMi42MywwLDAsMCw3LjYsMTAuODRhOCw4LDAsMCwxLDcuODYtNi40N3EuMzgsMCwuNzUsMGwuMjYsMGEyLjQxLDIuNDEsMCwwLDAsMS43OS0uNzhBOS45Miw5LjkyLDAsMCwxLDI1LjQ3LjVhOS43OCw5Ljc4LDAsMCwxLDguOCw1LjQ0LDIuNjUsMi42NSwwLDAsMCwxLjgsMS40LDEwLDEwLDAsMCwxLDMuMTgsMS4zMSwxMC4wOCwxMC4wOCwwLDAsMSwzLjUsMTMuMjdsLS40Ljc1SDM2Ljc3VjIzbDEuNjcuODNWMjUuNWgtNGMwLC4xMiwwLC4yNS0uMDcuMzdoMGwtLjEyLjYzYTEyLjM0LDEyLjM0LDAsMCwxLTIuMjMsNC40MWwtLjE1LjE5aC0uMDdhMTEuNDgsMTEuNDgsMCwwLDEtMS4xOCwxLjI0djEuOGgxLjY3bDEuODMsMi40NXYzLjU4SDMzQTEuNzksMS43OSwwLDAsMSwzMS4yNCw0MS41WiIgY2xhc3M9ImNscy0xIi8+PHBhdGggZD0iTTI1LjQ3LDFhOS4yOSw5LjI5LDAsMCwxLDguMzUsNS4xNkEzLjA5LDMuMDksMCwwLDAsMzYsNy44MmE5LjU4LDkuNTgsMCwwLDEsNi4zNSwxMy44N2wtLjI2LjQ4SDM2LjI3djEuMDlsLjU4LjI5LDEuMDkuNTRWMjVIMzRhMTAuNDEsMTAuNDEsMCwwLDEtLjI5LDEuMzdoLjA2YTExLjkzLDExLjkzLDAsMCwxLTIuMTUsNC4yM0gzMS42YTEyLjA4LDEyLjA4LDAsMCwxLTEuNDMsMS41MnYyLjUyaDEuOTFsMS41OCwyLjEydjIuOTFIMzIuNTN2MGExLjI5LDEuMjksMCwxLDEtMi41OCwwdjBIMjYuNDh2MGExLjI5LDEuMjksMCwxLDEtMi41NywwdjBoLTF2MGExLjI5LDEuMjksMCwxLDEtMi41OCwwdjBIMTl2LTVhMTAuNTMsMTAuNTMsMCwwLDEtMS4zNy0uNDd2MGE5LjI3LDkuMjcsMCwwLDEtLjg5LS40NWwtLjE5LS4wOWMtLjI0LS4xMy0uNDctLjI4LS42OS0uNDJsLS40OS0uMzNjLS4xOC0uMTMtLjM2LS4yNi0uNTMtLjRzLS40Ni0uMzktLjY4LS41OWwtLjI5LS4yNmExMi4yNSwxMi4yNSwwLDAsMS0uOS0xbC0uMDUtLjA1aDBBMTIuNjksMTIuNjksMCwwLDEsMTIsMjkuMjRIOC40VjIyLjE3SDEuMDhsLjA3LTFhMTAsMTAsMCwwLDEsNS4zMy04LjEyLDMuMDksMy4wOSwwLDAsMCwxLjYxLTIuMTMsNy40OSw3LjQ5LDAsMCwxLDcuMzctNi4wN2MuMjMsMCwuNDcsMCwuNywwbC4zMSwwQTIuOTMsMi45MywwLDAsMCwxOC42Myw0YTkuMzgsOS4zOCwwLDAsMSw2Ljg0LTNtMC0xQTEwLjM2LDEwLjM2LDAsMCwwLDE3LjksMy4zYTEuOTMsMS45MywwLDAsMS0xLjQzLjYyaC0uMjFhNy4yNiw3LjI2LDAsMCwwLS44LDBBOC42MSw4LjYxLDAsMCwwLDEyLDQuNTlhOC41MSw4LjUxLDAsMCwwLTQuOTIsNi4xNUEyLjEsMi4xLDAsMCwxLDYsMTIuMTgsMTEsMTEsMCwwLDAsLjE1LDIxLjExbC0uMDcsMUwwLDIzLjE3SDcuNHY3LjA3aDMuOTVsLjc4LDEsMCwwLDAsMGMuMzIuMzkuNjMuNzQsMSwxLjA3bC4yMS4xOS4wOS4wOWMuMjguMjYuNTIuNDYuNzUuNjRzLjM4LjI5LjU3LjQzLjM1LjI1LjUzLjM2LjQ5LjMxLjc1LjQ1bC4xNS4wOC4wNSwwLC4xNS4wN2E3LDcsMCwwLDAsLjgyLjQxbC43Ni4zM3Y1LjIxaDEuNTNhMi4yOSwyLjI5LDAsMCwwLDMuODguNDYsMi4yOCwyLjI4LDAsMCwwLDMuODctLjQ2aDEuODlhMi4yOSwyLjI5LDAsMCwwLDQuMTYsMGgxLjM0VjM2LjQzbC0uMi0uMjdMMzIuODgsMzRsLS4zLS40SDMxLjE3VjMyLjU2cS40OC0uNDcuOS0xaC4wOGwuMy0uMzhhMTIuODUsMTIuODUsMCwwLDAsMi4zMi00LjU5bC4xNy0uNjNoNFYyMy40N2wtLjU2LS4yNy0uMDYsMGg0LjMzbC4yOC0uNTMuMjYtLjQ4YTEwLjU0LDEwLjU0LDAsMCwwLTctMTUuMzEsMi4xNSwyLjE1LDAsMCwxLTEuNDYtMS4xM0ExMC4yNywxMC4yNywwLDAsMCwyNS40NywwWiIgY2xhc3M9ImNscy0xIi8+PHBhdGggZD0iTTE1LjM4LDMwLjYxSDEyLjkxYTEyLDEyLDAsMCwwLDQuNzEsMy42di0yQTEwLjQ1LDEwLjQ1LDAsMCwxLDE1LjM4LDMwLjYxWiIgY2xhc3M9ImNscy0yIi8+PHBhdGggZD0iTTI5LjIsMzAuNmgyLjQ2YTExLjkzLDExLjkzLDAsMCwwLDIuMTUtNC4yM2gtMS45QTEwLjE3LDEwLjE3LDAsMCwxLDI5LjIsMzAuNloiIGNsYXNzPSJjbHMtMiIvPjxwYXRoIGQ9Ik0xNS4xNSwxNmExMC4wNiwxMC4wNiwwLDAsMSw5LjcyLTIuNjJoNC4yNUExMS45MSwxMS45MSwwLDAsMCwxMi43NCwxNmgyLjQxWiIgY2xhc3M9ImNscy0yIi8+PHBhdGggZD0iTTM5LDkuMDdhOS41Miw5LjUyLDAsMCwwLTMtMS4yNSwzLjA5LDMuMDksMCwwLDEtMi4xNC0xLjY2QTkuMzQsOS4zNCwwLDAsMCwxOC42Myw0YTIuOTQsMi45NCwwLDAsMS0yLjQ3LjkyLDcuNSw3LjUsMCwwLDAtOC4wNyw2LDMuMDksMy4wOSwwLDAsMS0xLjYxLDIuMTMsMTAsMTAsMCwwLDAtNS4zMyw4LjEybC0uMDcsMUg3VjIwLjM0SDMuMWE4LjEyLDguMTIsMCwwLDEsNC4yMy01LjY2LDQuODgsNC44OCwwLDAsMCwyLjU0LTMuMzlBNS43MSw1LjcxLDAsMCwxLDE2LDYuNzFhNC43Nyw0Ljc3LDAsMCwwLDQtMS40OUE3LjUxLDcuNTEsMCwwLDEsMzIuMTksNyw0LjkyLDQuOTIsMCwwLDAsMzUuNTcsOS42YTcuNTYsNy41NiwwLDAsMSwyLjQ0LDEsNy43NSw3Ljc1LDAsMCwxLDIuOTMsOS43M0gzNy41MnYxLjgyaDQuNTNsLjI2LS40N0E5LjU5LDkuNTksMCwwLDAsMzksOS4wN1oiIGNsYXNzPSJjbHMtMiIvPjxwYXRoIGQ9Ik0zNS43MiwxNC43OUgyNS4zMWwtMSwyLjA1YTEuNDYsMS40NiwwLDAsMC0uMTguMzgsMS44MiwxLjgyLDAsMCwwLC4wOSwxLjQ4LDEuNzksMS43OSwwLDAsMCwuNi42OHYzLjg4bC0xLjM1LjY3LS4zMi4xNlYyNUgzNy45NHYtLjkxbC0xLjA5LS41NC0uNTgtLjI5VjE5LjM4YTEuNzksMS43OSwwLDAsMCwuNi0uNjhBMS44MiwxLjgyLDAsMCwwLDM3LDE3LjIyYTEuNSwxLjUsMCwwLDAtLjE5LS4zOFptLTQuMjksOC4zOXYtMkgyOS42MXYyaC0zVjE5LjcxaDcuODZ2My40N1ptLTUuNjQtNS4zNS42NC0xLjIyaDguMThsLjU3LDEuMTEuMDcuMTFzMCwwLDAsMCwwLDAsMCwwaC05LjRzMCwwLDAsMFMyNS43OCwxNy44NCwyNS43OSwxNy44M1oiIGNsYXNzPSJjbHMtMiIvPjxwYXRoIGQ9Ik0zMC4xNywzMkgxOXY3LjY3aDEuMzN2MGExLjI5LDEuMjksMCwxLDAsMi41OCwwdjBoMXYwYTEuMjksMS4yOSwwLDEsMCwyLjU3LDB2MEgzMHYwYTEuMjksMS4yOSwwLDEsMCwyLjU4LDB2MGgxLjEzVjM2Ljc2bC0xLjU4LTIuMTJIMzAuMTdabS05LjM2LDUuODV2LTRoNy41M3Y0Wm0xMSwwSDMwLjE3VjM2LjQ2aDFsLjY4LjkxWiIgY2xhc3M9ImNscy0yIi8+PHBhdGggZD0iTTIwLjgxLDI5LjI0di05LjZsLTMuNywxLjUxdi0xLjVsLTMuNzgsMS41MVYxNy40SDguNFYyOS4yNFpNMTEuNSwyMy44NWwzLjc5LTEuNTF2MS41MkwxOSwyMi4zNXY1LjA3SDE3LjgyVjI1LjY3SDE2djEuNzVIMTMuMzhWMjUuNjdIMTEuNTZ2MS43NUgxMC4yMnYtOC4ySDExLjVaIiBjbGFzcz0iY2xzLTIiLz48L3N2Zz4=;" parent="1" vertex="1">
          <mxGeometry x="50" y="50.94999999999999" width="42" height="40.09" as="geometry" />
        </mxCell>
        <mxCell id="ToZxlwKgEHcJ9AsKF1VZ-66" value="" style="group" parent="1" vertex="1" connectable="0">
          <mxGeometry x="915" y="170" width="90" height="80" as="geometry" />
        </mxCell>
        <mxCell id="ToZxlwKgEHcJ9AsKF1VZ-48" value="" style="rounded=0;whiteSpace=wrap;html=1;" parent="ToZxlwKgEHcJ9AsKF1VZ-66" vertex="1">
          <mxGeometry width="90" height="20" as="geometry" />
        </mxCell>
        <mxCell id="ToZxlwKgEHcJ9AsKF1VZ-49" value="" style="rounded=0;whiteSpace=wrap;html=1;" parent="ToZxlwKgEHcJ9AsKF1VZ-66" vertex="1">
          <mxGeometry y="30" width="90" height="20" as="geometry" />
        </mxCell>
        <mxCell id="ToZxlwKgEHcJ9AsKF1VZ-50" value="" style="rounded=0;whiteSpace=wrap;html=1;" parent="ToZxlwKgEHcJ9AsKF1VZ-66" vertex="1">
          <mxGeometry y="60" width="90" height="20" as="geometry" />
        </mxCell>
        <mxCell id="ToZxlwKgEHcJ9AsKF1VZ-35" value="" style="group" parent="1" vertex="1" connectable="0">
          <mxGeometry x="680" y="170" width="120" height="80" as="geometry" />
        </mxCell>
        <mxCell id="ToZxlwKgEHcJ9AsKF1VZ-36" style="edgeStyle=orthogonalEdgeStyle;rounded=0;orthogonalLoop=1;jettySize=auto;html=1;exitX=1;exitY=0.5;exitDx=0;exitDy=0;entryX=0;entryY=0.5;entryDx=0;entryDy=0;endArrow=ERmany;endFill=0;jumpSize=6;endSize=3;startSize=3;" parent="ToZxlwKgEHcJ9AsKF1VZ-35" source="ToZxlwKgEHcJ9AsKF1VZ-39" target="ToZxlwKgEHcJ9AsKF1VZ-40" edge="1">
          <mxGeometry relative="1" as="geometry">
            <Array as="points">
              <mxPoint x="60" y="40" />
              <mxPoint x="60" y="10" />
            </Array>
          </mxGeometry>
        </mxCell>
        <mxCell id="ToZxlwKgEHcJ9AsKF1VZ-37" style="edgeStyle=orthogonalEdgeStyle;rounded=0;orthogonalLoop=1;jettySize=auto;html=1;exitX=1;exitY=0.5;exitDx=0;exitDy=0;entryX=0;entryY=0.5;entryDx=0;entryDy=0;strokeColor=default;align=center;verticalAlign=middle;fontFamily=Helvetica;fontSize=11;fontColor=default;labelBackgroundColor=default;jumpSize=6;startSize=3;endArrow=ERmany;endFill=0;endSize=3;" parent="ToZxlwKgEHcJ9AsKF1VZ-35" source="ToZxlwKgEHcJ9AsKF1VZ-39" target="ToZxlwKgEHcJ9AsKF1VZ-42" edge="1">
          <mxGeometry relative="1" as="geometry" />
        </mxCell>
        <mxCell id="ToZxlwKgEHcJ9AsKF1VZ-38" style="edgeStyle=orthogonalEdgeStyle;rounded=0;orthogonalLoop=1;jettySize=auto;html=1;exitX=1;exitY=0.5;exitDx=0;exitDy=0;entryX=0;entryY=0.5;entryDx=0;entryDy=0;strokeColor=default;align=center;verticalAlign=middle;fontFamily=Helvetica;fontSize=11;fontColor=default;labelBackgroundColor=default;jumpSize=6;startSize=3;endArrow=ERmany;endFill=0;endSize=3;" parent="ToZxlwKgEHcJ9AsKF1VZ-35" source="ToZxlwKgEHcJ9AsKF1VZ-39" target="ToZxlwKgEHcJ9AsKF1VZ-41" edge="1">
          <mxGeometry relative="1" as="geometry">
            <Array as="points">
              <mxPoint x="60" y="40" />
              <mxPoint x="60" y="70" />
            </Array>
          </mxGeometry>
        </mxCell>
        <mxCell id="ToZxlwKgEHcJ9AsKF1VZ-39" value="" style="rounded=0;whiteSpace=wrap;html=1;" parent="ToZxlwKgEHcJ9AsKF1VZ-35" vertex="1">
          <mxGeometry y="30" width="48" height="20" as="geometry" />
        </mxCell>
        <mxCell id="ToZxlwKgEHcJ9AsKF1VZ-40" value="" style="rounded=0;whiteSpace=wrap;html=1;" parent="ToZxlwKgEHcJ9AsKF1VZ-35" vertex="1">
          <mxGeometry x="72" width="48" height="20" as="geometry" />
        </mxCell>
        <mxCell id="ToZxlwKgEHcJ9AsKF1VZ-41" value="" style="rounded=0;whiteSpace=wrap;html=1;" parent="ToZxlwKgEHcJ9AsKF1VZ-35" vertex="1">
          <mxGeometry x="72" y="60" width="48" height="20" as="geometry" />
        </mxCell>
        <mxCell id="ToZxlwKgEHcJ9AsKF1VZ-42" value="" style="rounded=0;whiteSpace=wrap;html=1;" parent="ToZxlwKgEHcJ9AsKF1VZ-35" vertex="1">
          <mxGeometry x="72" y="30" width="48" height="20" as="geometry" />
        </mxCell>
        <mxCell id="ToZxlwKgEHcJ9AsKF1VZ-67" value="Landing Area" style="rounded=0;whiteSpace=wrap;html=1;fillColor=#E6E6E6;fontColor=#333333;strokeColor=none;" parent="1" vertex="1">
          <mxGeometry x="300" y="130" width="100" height="20" as="geometry" />
        </mxCell>
        <mxCell id="ToZxlwKgEHcJ9AsKF1VZ-68" value="Bronze Layer" style="rounded=0;whiteSpace=wrap;html=1;align=center;verticalAlign=middle;fontFamily=Helvetica;fontSize=12;fontColor=#FFFFFF;fontStyle=1;fillColor=#CD7F32;strokeColor=none;" parent="1" vertex="1">
          <mxGeometry x="520" y="130" width="100" height="20" as="geometry" />
        </mxCell>
        <mxCell id="ToZxlwKgEHcJ9AsKF1VZ-69" value="Silver Layer" style="rounded=0;whiteSpace=wrap;html=1;align=center;verticalAlign=middle;fontFamily=Helvetica;fontSize=12;fontColor=#FFFFFF;fontStyle=1;fillColor=#C0C0C0;strokeColor=none;" parent="1" vertex="1">
          <mxGeometry x="690" y="130" width="100" height="20" as="geometry" />
        </mxCell>
        <mxCell id="nbJX5i4xBPy8ID5QMUNJ-1" value="Gold Layer" style="rounded=0;whiteSpace=wrap;html=1;align=center;verticalAlign=middle;fontFamily=Helvetica;fontSize=12;fontColor=#FFFFFF;fontStyle=1;fillColor=#FFC000;strokeColor=none;" vertex="1" parent="1">
          <mxGeometry x="910" y="130" width="100" height="20" as="geometry" />
        </mxCell>
      </root>
    </mxGraphModel>
  </diagram>
  <diagram id="tS8DX5MYhc_fSwwL2uSq" name="pipeline">
    <mxGraphModel dx="2522" dy="1519" grid="1" gridSize="10" guides="1" tooltips="1" connect="1" arrows="1" fold="1" page="1" pageScale="1" pageWidth="1169" pageHeight="827" math="0" shadow="0">
      <root>
        <mxCell id="0" />
        <mxCell id="1" parent="0" />
        <mxCell id="SkLUeyNimd3eiYkChvTr-7" value="&lt;b&gt;Autonomous Data Warehouse&lt;/b&gt;" style="rounded=1;whiteSpace=wrap;html=1;verticalAlign=top;align=center;spacingLeft=0;spacingTop=4;arcSize=4;" parent="1" vertex="1">
          <mxGeometry x="260" y="40" width="800" height="420" as="geometry" />
        </mxCell>
        <mxCell id="SkLUeyNimd3eiYkChvTr-44" value="Schema" style="rounded=0;whiteSpace=wrap;html=1;strokeColor=default;align=center;verticalAlign=top;spacingLeft=0;spacingTop=4;arcSize=0;fontFamily=Helvetica;fontSize=12;fontColor=default;fillColor=default;fontStyle=1" parent="1" vertex="1">
          <mxGeometry x="280" y="100" width="760" height="340" as="geometry" />
        </mxCell>
        <mxCell id="SkLUeyNimd3eiYkChvTr-1" value="&lt;b&gt;Object Storage&lt;/b&gt;" style="rounded=1;whiteSpace=wrap;html=1;verticalAlign=top;align=center;spacingLeft=30;spacingTop=4;arcSize=8;" parent="1" vertex="1">
          <mxGeometry x="40" y="40" width="180" height="420" as="geometry" />
        </mxCell>
        <mxCell id="-AbonZFBZQS3PhslscCF-4" style="edgeStyle=orthogonalEdgeStyle;rounded=0;orthogonalLoop=1;jettySize=auto;html=1;exitX=1;exitY=0.5;exitDx=0;exitDy=0;entryX=0;entryY=0.5;entryDx=0;entryDy=0;" parent="1" source="SkLUeyNimd3eiYkChvTr-2" target="SkLUeyNimd3eiYkChvTr-46" edge="1">
          <mxGeometry relative="1" as="geometry" />
        </mxCell>
        <mxCell id="SkLUeyNimd3eiYkChvTr-2" value="&lt;b&gt;Bucket&lt;/b&gt;" style="rounded=1;whiteSpace=wrap;html=1;verticalAlign=top;align=center;spacingLeft=0;spacingTop=4;arcSize=12;" parent="1" vertex="1">
          <mxGeometry x="60" y="160" width="140" height="160" as="geometry" />
        </mxCell>
        <mxCell id="SkLUeyNimd3eiYkChvTr-3" value="" style="group" parent="1" vertex="1" connectable="0">
          <mxGeometry x="80" y="223" width="100" height="70" as="geometry" />
        </mxCell>
        <mxCell id="SkLUeyNimd3eiYkChvTr-4" value="" style="shape=document;whiteSpace=wrap;html=1;boundedLbl=1;" parent="SkLUeyNimd3eiYkChvTr-3" vertex="1">
          <mxGeometry width="77.77777777777779" height="50" as="geometry" />
        </mxCell>
        <mxCell id="SkLUeyNimd3eiYkChvTr-5" value="" style="shape=document;whiteSpace=wrap;html=1;boundedLbl=1;" parent="SkLUeyNimd3eiYkChvTr-3" vertex="1">
          <mxGeometry x="11.11111111111111" y="10" width="77.77777777777779" height="50" as="geometry" />
        </mxCell>
        <mxCell id="SkLUeyNimd3eiYkChvTr-6" value="JSON" style="shape=document;whiteSpace=wrap;html=1;boundedLbl=1;" parent="SkLUeyNimd3eiYkChvTr-3" vertex="1">
          <mxGeometry x="22.22222222222222" y="20" width="77.77777777777779" height="50" as="geometry" />
        </mxCell>
        <mxCell id="SkLUeyNimd3eiYkChvTr-8" value="" style="shape=image;verticalLabelPosition=bottom;labelBackgroundColor=default;verticalAlign=top;aspect=fixed;imageAspect=0;image=data:image/svg+xml,PHN2ZyB4bWxuczp4bGluaz0iaHR0cDovL3d3dy53My5vcmcvMTk5OS94bGluayIgeG1sbnM9Imh0dHA6Ly93d3cudzMub3JnLzIwMDAvc3ZnIiB4bWw6c3BhY2U9InByZXNlcnZlIiBzdHlsZT0iZW5hYmxlLWJhY2tncm91bmQ6bmV3IDAgMCA0OC40NyA0Mi4wMjsiIHZpZXdCb3g9IjAgMCA0OC40NyA0Mi4wMiIgeT0iMHB4IiB4PSIwcHgiIGlkPSJMYXllcl8xIiB2ZXJzaW9uPSIxLjEiPiYjeGE7PG1ldGFkYXRhPiYjeGE7JiN4YTsgICAmI3hhOyAgICAgICYjeGE7ICAgICAgICAgMjAyMi0wMy0wNFQxNjoxODowMi0wNjowMCYjeGE7ICAgICAgICAgeG1wLmlpZDphNmVlNzM0Ni03ZWNmLTQyNjItODczYy01MzIxYjBkYTAzZjMmI3hhOyAgICAgICAgIHhtcC5kaWQ6MmQ5YmYzNDgtODYzYy00ZDkzLWFjMzAtYTgxMDcyMDE0NDJhJiN4YTsgICAgICAgICB4bXAuZGlkOjJkOWJmMzQ4LTg2M2MtNGQ5My1hYzMwLWE4MTA3MjAxNDQyYSYjeGE7ICAgICAgICAgJiN4YTsgICAgICAgICAgICAmI3hhOyAgICAgICAgICAgICAgICYjeGE7ICAgICAgICAgICAgICAgICAgJiN4YTsgICAgICAgICAgICAgICAgICAgICBzYXZlZCYjeGE7ICAgICAgICAgICAgICAgICAgICAgeG1wLmlpZDoyZDliZjM0OC04NjNjLTRkOTMtYWMzMC1hODEwNzIwMTQ0MmEmI3hhOyAgICAgICAgICAgICAgICAgICAgIDIwMjEtMDQtMjdUMTM6NDE6MjgtMDU6MDAmI3hhOyAgICAgICAgICAgICAgICAgICAgIEFkb2JlIEJyaWRnZSAyMDIxIChNYWNpbnRvc2gpJiN4YTsgICAgICAgICAgICAgICAgICAgICAvbWV0YWRhdGEmI3hhOyAgICAgICAgICAgICAgICAgICYjeGE7ICAgICAgICAgICAgICAgJiN4YTsgICAgICAgICAgICAgICAmI3hhOyAgICAgICAgICAgICAgICAgICYjeGE7ICAgICAgICAgICAgICAgICAgICAgc2F2ZWQmI3hhOyAgICAgICAgICAgICAgICAgICAgIHhtcC5paWQ6YTZlZTczNDYtN2VjZi00MjYyLTg3M2MtNTMyMWIwZGEwM2YzJiN4YTsgICAgICAgICAgICAgICAgICAgICAyMDIyLTAzLTA0VDE2OjE4OjAyLTA2OjAwJiN4YTsgICAgICAgICAgICAgICAgICAgICBBZG9iZSBCcmlkZ2UgMjAyMSAoTWFjaW50b3NoKSYjeGE7ICAgICAgICAgICAgICAgICAgICAgL21ldGFkYXRhJiN4YTsgICAgICAgICAgICAgICAgICAmI3hhOyAgICAgICAgICAgICAgICYjeGE7ICAgICAgICAgICAgJiN4YTsgICAgICAgICAmI3hhOyAgICAgICAgIFRydWUmI3hhOyAgICAgICAgICYjeGE7ICAgICAgICAgICAgJiN4YTsgICAgICAgICAgICAgICBpY29uJiN4YTsgICAgICAgICAgICAgICBEYXRhJiN4YTsgICAgICAgICAgICAgICBhZ2dyZWdhdGlvbiYjeGE7ICAgICAgICAgICAgICAgbWFuYWdlbWVudCYjeGE7ICAgICAgICAgICAgICAgc3lzdGVtJiN4YTsgICAgICAgICAgICAgICBidXNpbmVzcyYjeGE7ICAgICAgICAgICAgICAgaW50ZWxsaWdlbmNlJiN4YTsgICAgICAgICAgICAgICBhbmFseXRpY3MmI3hhOyAgICAgICAgICAgICAgIHN0b3JlJiN4YTsgICAgICAgICAgICAgICBhbmFseXNpcyYjeGE7ICAgICAgICAgICAgICAgaWNvbiYjeGE7ICAgICAgICAgICAgICAgQnVzaW5lc3MmI3hhOyAgICAgICAgICAgICAgIERhdGEmI3hhOyAgICAgICAgICAgICAgIG1hY2hpbmUgbGVhcm5pbmcmI3hhOyAgICAgICAgICAgICAgIGFydGlmaWNpYWwgaW50ZWxsaWdlbmNlJiN4YTsgICAgICAgICAgICAgICBhdXRvbWF0ZSYjeGE7ICAgICAgICAgICAgICAgYXV0b21hdGl6YXRpb24mI3hhOyAgICAgICAgICAgICAgIHNlY3VyaXR5JiN4YTsgICAgICAgICAgICAgICBiYWNrdXAmI3hhOyAgICAgICAgICAgICAgIHVwZGF0ZSYjeGE7ICAgICAgICAgICAgICAgdGFzayYjeGE7ICAgICAgICAgICAgICAgQURDUyYjeGE7ICAgICAgICAgICAgICAgYXV0b25vbW91cyYjeGE7ICAgICAgICAgICAgICAgc2VydmljZSYjeGE7ICAgICAgICAgICAgJiN4YTsgICAgICAgICAmI3hhOyAgICAgICAgICYjeGE7ICAgICAgICAgICAgJiN4YTsgICAgICAgICAgICAgICBPcmFjbGUgQWxsIFJpZ2h0cyBSZXNlcnZlZCYjeGE7ICAgICAgICAgICAgJiN4YTsgICAgICAgICAmI3hhOyAgICAgICAgICYjeGE7ICAgICAgICAgICAgJiN4YTsgICAgICAgICAgICAgICBEYXRhIE1hbmFnZW1lbnQmI3hhOyAgICAgICAgICAgICAgIFNlcnZpY2UmI3hhOyAgICAgICAgICAgICAgIEF1dG9ub21vdXMmI3hhOyAgICAgICAgICAgICAgIERhdGFiYXNlJiN4YTsgICAgICAgICAgICAgICBDbG91ZCYjeGE7ICAgICAgICAgICAgICAgaWNvbiYjeGE7ICAgICAgICAgICAgJiN4YTsgICAgICAgICAmI3hhOyAgICAgICYjeGE7ICAgJiN4YTsmI3hhOyAgICAgICAgICAgICAgICAgICAgICAgICAgICAgICAgICAgICAgICAgICAgICAgICAgICAgICAgICAgICAgICAgICAgICAgICAgICAgICAgICAgICAgICAgICAgICAgICAgICAmI3hhOyAgICAgICAgICAgICAgICAgICAgICAgICAgICAgICAgICAgICAgICAgICAgICAgICAgICAgICAgICAgICAgICAgICAgICAgICAgICAgICAgICAgICAgICAgICAgICAgICAgICAmI3hhOyAgICAgICAgICAgICAgICAgICAgICAgICAgICAgICAgICAgICAgICAgICAgICAgICAgICAgICAgICAgICAgICAgICAgICAgICAgICAgICAgICAgICAgICAgICAgICAgICAgICAmI3hhOyAgICAgICAgICAgICAgICAgICAgICAgICAgICAgICAgICAgICAgICAgICAgICAgICAgICAgICAgICAgICAgICAgICAgICAgICAgICAgICAgICAgICAgICAgICAgICAgICAgICAmI3hhOyAgICAgICAgICAgICAgICAgICAgICAgICAgICAgICAgICAgICAgICAgICAgICAgICAgICAgICAgICAgICAgICAgICAgICAgICAgICAgICAgICAgICAgICAgICAgICAgICAgICAmI3hhOyAgICAgICAgICAgICAgICAgICAgICAgICAgICAgICAgICAgICAgICAgICAgICAgICAgICAgICAgICAgICAgICAgICAgICAgICAgICAgICAgICAgICAgICAgICAgICAgICAgICAmI3hhOyAgICAgICAgICAgICAgICAgICAgICAgICAgICAgICAgICAgICAgICAgICAgICAgICAgICAgICAgICAgICAgICAgICAgICAgICAgICAgICAgICAgICAgICAgICAgICAgICAgICAmI3hhOyAgICAgICAgICAgICAgICAgICAgICAgICAgICAgICAgICAgICAgICAgICAgICAgICAgICAgICAgICAgICAgICAgICAgICAgICAgICAgICAgICAgICAgICAgICAgICAgICAgICAmI3hhOyAgICAgICAgICAgICAgICAgICAgICAgICAgICAgICAgICAgICAgICAgICAgICAgICAgICAgICAgICAgICAgICAgICAgICAgICAgICAgICAgICAgICAgICAgICAgICAgICAgICAmI3hhOyAgICAgICAgICAgICAgICAgICAgICAgICAgICAgICAgICAgICAgICAgICAgICAgICAgICAgICAgICAgICAgICAgICAgICAgICAgICAgICAgICAgICAgICAgICAgICAgICAgICAmI3hhOyAgICAgICAgICAgICAgICAgICAgICAgICAgICAgICAgICAgICAgICAgICAgICAgICAgICAgICAgICAgICAgICAgICAgICAgICAgICAgICAgICAgICAgICAgICAgICAgICAgICAmI3hhOyAgICAgICAgICAgICAgICAgICAgICAgICAgICAgICAgICAgICAgICAgICAgICAgICAgICAgICAgICAgICAgICAgICAgICAgICAgICAgICAgICAgICAgICAgICAgICAgICAgICAmI3hhOyAgICAgICAgICAgICAgICAgICAgICAgICAgICAgICAgICAgICAgICAgICAgICAgICAgICAgICAgICAgICAgICAgICAgICAgICAgICAgICAgICAgICAgICAgICAgICAgICAgICAmI3hhOyAgICAgICAgICAgICAgICAgICAgICAgICAgICAgICAgICAgICAgICAgICAgICAgICAgICAgICAgICAgICAgICAgICAgICAgICAgICAgICAgICAgICAgICAgICAgICAgICAgICAmI3hhOyAgICAgICAgICAgICAgICAgICAgICAgICAgICAgICAgICAgICAgICAgICAgICAgICAgICAgICAgICAgICAgICAgICAgICAgICAgICAgICAgICAgICAgICAgICAgICAgICAgICAmI3hhOyAgICAgICAgICAgICAgICAgICAgICAgICAgICAgICAgICAgICAgICAgICAgICAgICAgICAgICAgICAgICAgICAgICAgICAgICAgICAgICAgICAgICAgICAgICAgICAgICAgICAmI3hhOyAgICAgICAgICAgICAgICAgICAgICAgICAgICAgICAgICAgICAgICAgICAgICAgICAgICAgICAgICAgICAgICAgICAgICAgICAgICAgICAgICAgICAgICAgICAgICAgICAgICAmI3hhOyAgICAgICAgICAgICAgICAgICAgICAgICAgICAgICAgICAgICAgICAgICAgICAgICAgICAgICAgICAgICAgICAgICAgICAgICAgICAgICAgICAgICAgICAgICAgICAgICAgICAmI3hhOyAgICAgICAgICAgICAgICAgICAgICAgICAgICAgICAgICAgICAgICAgICAgICAgICAgICAgICAgICAgICAgICAgICAgICAgICAgICAgICAgICAgICAgICAgICAgICAgICAgICAmI3hhOyAgICAgICAgICAgICAgICAgICAgICAgICAgICAgICAgICAgICAgICAgICAgICAgICAgICAgICAgICAgICAgICAgICAgICAgICAgICAgICAgICAgICAgICAgICAgICAgICAgICAmI3hhOyAgICAgICAgICAgICAgICAgICAgICAgICAgICYjeGE7PC9tZXRhZGF0YT4mI3hhOzxzdHlsZSB0eXBlPSJ0ZXh0L2NzcyI+JiN4YTsJLnN0MHtmaWxsOiNGRkZGRkY7fSYjeGE7CS5zdDF7ZmlsbDojMkM1OTY3O30mI3hhOzwvc3R5bGU+JiN4YTs8Zz4mI3hhOwk8Zz4mI3hhOwkJPHBhdGggZD0iTTIyLjUsNDEuNTJjLTMuMTIsMC02LjA3LTAuMjktOC4yOS0wLjgzYy0yLjk1LTAuNzEtNC4zOS0xLjc4LTQuMzktMy4yOVYyMi45SDAuNTRsMC4xMS0xLjUyJiMxMDsmIzk7JiM5OyYjOTtjMC4yNy0zLjY3LDIuMzktNi44OSw1LjY1LTguNjFjMC43MS0wLjM4LDEuMjEtMS4wNCwxLjM2LTEuODFjMC41MS0yLjYsMi4yNi00Ljc4LDQuNjgtNS44NWMxLjAyLTAuNDUsMi4xNS0wLjY4LDMuMjYtMC42OCYjMTA7JiM5OyYjOTsmIzk7YzAuMjUsMCwwLjUsMC4wMSwwLjc1LDAuMDNjMC4wOSwwLjAxLDAuMTcsMC4wMSwwLjI2LDAuMDFjMC43MSwwLDEuMzYtMC4yOCwxLjgyLTAuNzhjMS43Mi0xLjg1LDQuMDEtMi45Niw2LjUxLTMuMTVWMC41NGwxLTAuMDImIzEwOyYjOTsmIzk7JiM5O2wwLDAuMDFjMy42OSwwLjA4LDYuOTksMi4xNyw4LjY1LDUuNDljMC4xMiwwLjI0LDAuMjksMC40NywwLjQ4LDAuNjdjMC4yNCwwLjM1LDAuNTYsMC44LDAuODQsMS4yYzMsMC4xLDUuNzMsMS42Nyw3LjMzLDQuMjQmIzEwOyYjOTsmIzk7JiM5O2wwLjA0LDAuMDdsMC4zNSwxLjUzbDQuMTIsNC4xMmwtMi4wMSwyLjAxbC0xLjMtMS4zYy0wLjc5LDQuMTktNC40OSw3LjM0LTguODUsNy4zNGMtMC4xNCwwLTAuMjgsMC0wLjQyLTAuMDF2MTEuNTMmIzEwOyYjOTsmIzk7JiM5O2MwLDEuNS0xLjQ0LDIuNTgtNC4zOSwzLjI5QzI4LjU3LDQxLjIzLDI1LjYyLDQxLjUyLDIyLjUsNDEuNTJ6IiBjbGFzcz0ic3QwIi8+JiN4YTsJCTxwYXRoIGQ9Ik0yNS43MiwxLjAyYzMuNTksMCw2LjgzLDIsOC40Myw1LjIyYzAuMTUsMC4zLDAuMzUsMC41NywwLjU4LDAuOGMwLjIyLDAuMzQsMC42MiwwLjksMC45MywxLjM0JiMxMDsmIzk7JiM5OyYjOTtjMi45OCwwLjAyLDUuNjYsMS41OSw3LjE2LDQuMDFsMC4zNywxLjU4bDMuODcsMy44N2wtMS4zLDEuM2wtMS42Ny0xLjY3Yy0wLjMsNC40Mi0zLjk5LDcuOTItOC40OCw3LjkyJiMxMDsmIzk7JiM5OyYjOTtjLTAuMzEsMC0wLjYyLTAuMDMtMC45Mi0wLjA2djEyLjA4YzAsMS4yNC0xLjMxLDIuMTYtNCwyLjhjLTIuMiwwLjUzLTUuMSwwLjgxLTguMTgsMC44MXMtNS45OC0wLjI5LTguMTgtMC44MSYjMTA7JiM5OyYjOTsmIzk7Yy0yLjY5LTAuNjQtNC0xLjU2LTQtMi44VjIyLjRIMS4wOGwwLjA3LTAuOTljMC4yNi0zLjUsMi4yNy02LjU2LDUuMzktOC4yYzAuODUtMC40NSwxLjQ0LTEuMjMsMS42Mi0yLjE2JiMxMDsmIzk7JiM5OyYjOTtjMC40OC0yLjQ0LDIuMTItNC40OSw0LjM5LTUuNDljMC45Ny0wLjQyLDIuMDEtMC42NCwzLjA2LTAuNjRjMC4yNCwwLDAuNDcsMC4wMSwwLjcsMC4wM2MwLjEsMC4wMSwwLjIsMC4wMSwwLjMxLDAuMDEmIzEwOyYjOTsmIzk7JiM5O2MwLjg0LDAsMS42My0wLjMzLDIuMTktMC45NGMxLjc0LTEuODcsNC4xLTIuOTQsNi42NS0zLjAxbDAuMDIsMC45MmwtMC4wMi0wLjkyQzI1LjU1LDEuMDIsMjUuNjMsMS4wMiwyNS43MiwxLjAyIE0yNi40NCwwJiMxMDsmIzk7JiM5OyYjOTtsLTEsMC4wM2MtMC4wMSwwLTAuMDEsMC0wLjAyLDBsLTAuOTgsMC4wM2wwLDAuMDVDMjIsMC40LDE5Ljc3LDEuNTMsMTguMDgsMy4zNmMtMC4zNywwLjQtMC44OSwwLjYyLTEuNDYsMC42MiYjMTA7JiM5OyYjOTsmIzk7Yy0wLjA3LDAtMC4xNCwwLTAuMjEtMC4wMWMtMC4yNy0wLjAyLTAuNTMtMC4wNC0wLjgtMC4wNGMtMS4xOCwwLTIuMzgsMC4yNS0zLjQ2LDAuNzNjLTIuNTcsMS4xMy00LjQzLDMuNDUtNC45Nyw2LjIxJiMxMDsmIzk7JiM5OyYjOTtjLTAuMTIsMC42My0wLjUzLDEuMTYtMS4xMSwxLjQ2Yy0zLjQyLDEuOC01LjYzLDUuMTctNS45Miw5LjAxbC0wLjA3LDAuOTlMMCwyMy40aDEuMDhoOC4yNHYxNC4wMWMwLDIuNjMsMy41OSwzLjQ5LDQuNzcsMy43NyYjMTA7JiM5OyYjOTsmIzk7YzIuMjcsMC41NCw1LjI2LDAuODQsOC40MSwwLjg0YzMuMTYsMCw2LjE0LTAuMyw4LjQxLTAuODRjMS4xOC0wLjI4LDQuNzctMS4xNCw0Ljc3LTMuNzdWMjYuMzljNC4yNS0wLjA0LDcuOS0yLjkxLDkuMDUtNi44NiYjMTA7JiM5OyYjOTsmIzk7bDAuMzIsMC4zMmwwLjcxLDAuNzFsMC43MS0wLjcxbDEuMy0xLjNsMC43MS0wLjcxbC0wLjcxLTAuNzFsLTMuNjctMy42N2wtMC4zLTEuMzFMNDMuNzYsMTJsLTAuMDktMC4xNCYjMTA7JiM5OyYjOTsmIzk7Yy0xLjY0LTIuNjMtNC40MS00LjI3LTcuNDgtNC40NmMtMC4yMy0wLjMzLTAuNDctMC42OC0wLjYzLTAuOTFsLTAuMDUtMC4wOGwtMC4wNy0wLjA3Yy0wLjE2LTAuMTctMC4zLTAuMzUtMC4zOS0wLjU1JiMxMDsmIzk7JiM5OyYjOTtjLTEuNjctMy4zNC00LjkyLTUuNS04LjYxLTUuNzVMMjYuNDQsMEwyNi40NCwweiIgY2xhc3M9InN0MCIvPiYjeGE7CTwvZz4mI3hhOwk8cGF0aCBkPSJNMy4xMiwyMC41Nmg1LjgydjEuODRIMS4wOGwwLjA3LTAuOTljMC4yNi0zLjUsMi4yNy02LjU2LDUuMzktOC4yYzAuODUtMC40NSwxLjQ0LTEuMjMsMS42Mi0yLjE2JiMxMDsmIzk7JiM5O2MwLjQ4LTIuNDQsMi4xMi00LjQ5LDQuMzktNS40OWMxLjE4LTAuNTIsMi40OC0wLjczLDMuNzYtMC42MWMwLjk2LDAuMDksMS44Ny0wLjI1LDIuNS0wLjkzYzEuNzQtMS44Nyw0LjEtMi45NCw2LjY1LTMuMDFoMCYjMTA7JiM5OyYjOTtjMC4wOCwwLDAuMTcsMCwwLjI1LDBjMy41OSwwLDYuODMsMiw4LjQzLDUuMjJjMC4xNSwwLjMsMC4zNSwwLjU3LDAuNTgsMC44Yy0wLjY5LDAuMDYtMS4zNywwLjE5LTIuMDEsMC4zOSYjMTA7JiM5OyYjOTtjLTAuMDctMC4xMi0wLjE0LTAuMjQtMC4yMS0wLjM3Yy0xLjI5LTIuNTktMy45LTQuMi02Ljc5LTQuMmMtMC4wNywwLTAuMTQsMC0wLjIxLDBjLTIuMDUsMC4wNS0zLjk2LDAuOTItNS4zNiwyLjQyJiMxMDsmIzk7JiM5O2MtMS4wMiwxLjEtMi40OSwxLjY1LTQuMDIsMS41MWMtMC45Ny0wLjA5LTEuOTUsMC4wNy0yLjg1LDAuNDZjLTEuNzIsMC43Ni0yLjk2LDIuMzEtMy4zMyw0LjE2Yy0wLjI5LDEuNDctMS4yMywyLjcyLTIuNTcsMy40MyYjMTA7JiM5OyYjOTtDNS4xNCwxNi4wMiwzLjU5LDE4LjEyLDMuMTIsMjAuNTYgTTM0LjY5LDEyaDEuODJsMi41NSw4Ljg2aC0xLjk2TDM2LjY2LDE5aC0yLjIxbC0wLjQzLDEuODZoLTEuOUwzNC42OSwxMnogTTM0LjgsMTcuNDloMS41MiYjMTA7JiM5OyYjOTtsLTAuNzYtMy4zMUwzNC44LDE3LjQ5eiBNMjcuMTIsMTYuM2wtMS42Ny0xLjY3bC0xLjMsMS4zbDMuODcsMy44N2wzLjg3LTMuODdsLTEuMy0xLjNsLTEuNjIsMS42MmMwLjMyLTMuMzgsMy4xOC02LjAyLDYuNjMtNi4wMiYjMTA7JiM5OyYjOTtjMi41LDAsNC43NCwxLjQsNS44OCwzLjUybDEuMzQtMS4zNGMtMS41Mi0yLjQzLTQuMjItNC4wMS03LjIyLTQuMDFDMzEuMTEsOC4zOCwyNy40MiwxMS44OCwyNy4xMiwxNi4zIE00Ny4wNiwxNy44NGwtMy44Ny0zLjg3JiMxMDsmIzk7JiM5O2wtMy44NywzLjg3bDEuMywxLjNsMS42Mi0xLjYyYy0wLjMyLDMuMzgtMy4xOCw2LjAyLTYuNjMsNi4wMmMtMi41LDAtNC43NC0xLjQtNS44OC0zLjUybC0xLjM0LDEuMzQmIzEwOyYjOTsmIzk7YzEuNTIsMi40Myw0LjIyLDQuMDEsNy4yMiw0LjAxYzQuNDksMCw4LjE4LTMuNSw4LjQ4LTcuOTJsMS42NywxLjY3TDQ3LjA2LDE3Ljg0eiBNMzIuODUsMjYuNThjMC41OSwwLjE4LDEuMjEsMC4zLDEuODQsMC4zNiYjMTA7JiM5OyYjOTt2MTAuNDZjMCwxLjI0LTEuMzEsMi4xNi00LDIuOGMtMi4yLDAuNTMtNS4xLDAuODEtOC4xOCwwLjgxcy01Ljk4LTAuMjktOC4xOC0wLjgxYy0yLjY5LTAuNjQtNC0xLjU2LTQtMi44VjE3LjgmIzEwOyYjOTsmIzk7YzAtMS4yNSwxLjMyLTIuMTQsNC4wMi0yLjczYzIuMTMtMC40Niw1LjAzLTAuNzIsOC4xNi0wLjcyYzAuMTUsMCwwLjMxLDAsMC40NiwwdjEuODRjLTAuMTUsMC0wLjMsMC0wLjQ2LDAmIzEwOyYjOTsmIzk7Yy02LjU1LDAtOS45MywxLjA3LTEwLjM0LDEuNjd2MC4xMWMwLjQ0LDAuNjcsNC4xOSwxLjg0LDEwLjM0LDEuODRjMS4yNywwLDIuNDQtMC4wNSwzLjUtMC4xM2MwLjE4LDAuNjIsMC40MSwxLjIyLDAuNywxLjc4JiMxMDsmIzk7JiM5O2MtMS4zMiwwLjEyLTIuNzQsMC4xOS00LjIsMC4xOWMtMy4wOCwwLTUuOTgtMC4yOS04LjE4LTAuODFjLTAuODYtMC4yMS0xLjU4LTAuNDQtMi4xNy0wLjcxdjQuMjhjMC40NCwwLjY3LDQuMTksMS44NCwxMC4zNCwxLjg0JiMxMDsmIzk7JiM5O2MzLjQxLDAsNi4wNy0wLjM2LDcuODUtMC43OWMwLjc2LDAuNDgsMS41OSwwLjg2LDIuNDcsMS4xMmMtMC41OCwwLjI2LTEuMjksMC40OS0yLjE0LDAuNjljLTIuMiwwLjUzLTUuMSwwLjgxLTguMTgsMC44MSYjMTA7JiM5OyYjOTtzLTUuOTgtMC4yOS04LjE4LTAuODFjLTAuODYtMC4yMS0xLjU4LTAuNDQtMi4xNy0wLjcxdjQuMzNjMC40NCwwLjY3LDQuMTksMS44NCwxMC4zNCwxLjg0czkuOTEtMS4xNywxMC4zNC0xLjg0VjI2LjU4eiYjMTA7JiM5OyYjOTsgTTMyLjg1LDMzLjA2Yy0wLjU4LDAuMjYtMS4zLDAuNS0yLjE3LDAuNzFjLTIuMiwwLjUzLTUuMSwwLjgxLTguMTgsMC44MXMtNS45OC0wLjI5LTguMTgtMC44MWMtMC44Ni0wLjIxLTEuNTgtMC40NC0yLjE3LTAuNzEmIzEwOyYjOTsmIzk7djQuMjljMC4zOSwwLjU2LDMuNzksMS44NCwxMC4zNCwxLjg0czkuOTYtMS4yNywxMC4zNC0xLjg0VjMzLjA2eiIgY2xhc3M9InN0MSIvPiYjeGE7PC9nPiYjeGE7PC9zdmc+;" parent="1" vertex="1">
          <mxGeometry x="270" y="50" width="45.71" height="40" as="geometry" />
        </mxCell>
        <mxCell id="SkLUeyNimd3eiYkChvTr-10" value="&lt;b&gt;JSON Collection Table&lt;/b&gt;" style="rounded=1;whiteSpace=wrap;html=1;verticalAlign=top;align=center;spacingLeft=0;spacingTop=4;arcSize=12;" parent="1" vertex="1">
          <mxGeometry x="560" y="160" width="190" height="160" as="geometry" />
        </mxCell>
        <mxCell id="SkLUeyNimd3eiYkChvTr-11" value="" style="group" parent="1" vertex="1" connectable="0">
          <mxGeometry x="600" y="223" width="100" height="70" as="geometry" />
        </mxCell>
        <mxCell id="SkLUeyNimd3eiYkChvTr-12" value="" style="shape=document;whiteSpace=wrap;html=1;boundedLbl=1;" parent="SkLUeyNimd3eiYkChvTr-11" vertex="1">
          <mxGeometry width="77.77777777777779" height="50" as="geometry" />
        </mxCell>
        <mxCell id="SkLUeyNimd3eiYkChvTr-13" value="" style="shape=document;whiteSpace=wrap;html=1;boundedLbl=1;" parent="SkLUeyNimd3eiYkChvTr-11" vertex="1">
          <mxGeometry x="11.11111111111111" y="10" width="77.77777777777779" height="50" as="geometry" />
        </mxCell>
        <mxCell id="SkLUeyNimd3eiYkChvTr-14" value="JSON" style="shape=document;whiteSpace=wrap;html=1;boundedLbl=1;" parent="SkLUeyNimd3eiYkChvTr-11" vertex="1">
          <mxGeometry x="22.22222222222222" y="20" width="77.77777777777779" height="50" as="geometry" />
        </mxCell>
        <mxCell id="SkLUeyNimd3eiYkChvTr-23" value="" style="shape=image;verticalLabelPosition=bottom;labelBackgroundColor=default;verticalAlign=top;aspect=fixed;imageAspect=0;image=data:image/svg+xml,PHN2ZyB4bWxuczp4bGluaz0iaHR0cDovL3d3dy53My5vcmcvMTk5OS94bGluayIgeG1sbnM9Imh0dHA6Ly93d3cudzMub3JnLzIwMDAvc3ZnIiB4bWw6c3BhY2U9InByZXNlcnZlIiBzdHlsZT0iZW5hYmxlLWJhY2tncm91bmQ6bmV3IDAgMCA0MiA0MjsiIHZpZXdCb3g9IjAgMCA0MiA0MiIgeT0iMHB4IiB4PSIwcHgiIGlkPSJMYXllcl8xIiB2ZXJzaW9uPSIxLjEiPiYjeGE7PG1ldGFkYXRhPiYjeGE7JiN4YTsgICAmI3hhOyAgICAgICYjeGE7ICAgICAgICAgMjAyMi0xMC0yMVQxMzo1Ny0wNTowMCYjeGE7ICAgICAgICAgeG1wLmlpZDo2ZTQyNThhZC0yODYwLTQ0MzUtYWE5Mi1mZTM2ZGY1MjllYmQmI3hhOyAgICAgICAgIHhtcC5kaWQ6NDI0NzZhNmItMzQ3ZS00ZWJjLTg0YmYtNThmMGViZjQ3NjU2JiN4YTsgICAgICAgICB4bXAuZGlkOjQyNDc2YTZiLTM0N2UtNGViYy04NGJmLTU4ZjBlYmY0NzY1NiYjeGE7ICAgICAgICAgJiN4YTsgICAgICAgICAgICAmI3hhOyAgICAgICAgICAgICAgICYjeGE7ICAgICAgICAgICAgICAgICAgJiN4YTsgICAgICAgICAgICAgICAgICAgICBzYXZlZCYjeGE7ICAgICAgICAgICAgICAgICAgICAgeG1wLmlpZDo0MjQ3NmE2Yi0zNDdlLTRlYmMtODRiZi01OGYwZWJmNDc2NTYmI3hhOyAgICAgICAgICAgICAgICAgICAgIDIwMjEtMDQtMjdUMTM6NDE6MzAtMDU6MDAmI3hhOyAgICAgICAgICAgICAgICAgICAgIEFkb2JlIEJyaWRnZSAyMDIxIChNYWNpbnRvc2gpJiN4YTsgICAgICAgICAgICAgICAgICAgICAvbWV0YWRhdGEmI3hhOyAgICAgICAgICAgICAgICAgICYjeGE7ICAgICAgICAgICAgICAgJiN4YTsgICAgICAgICAgICAgICAmI3hhOyAgICAgICAgICAgICAgICAgICYjeGE7ICAgICAgICAgICAgICAgICAgICAgc2F2ZWQmI3hhOyAgICAgICAgICAgICAgICAgICAgIHhtcC5paWQ6NmU0MjU4YWQtMjg2MC00NDM1LWFhOTItZmUzNmRmNTI5ZWJkJiN4YTsgICAgICAgICAgICAgICAgICAgICAyMDIyLTEwLTIxVDEzOjU3LTA1OjAwJiN4YTsgICAgICAgICAgICAgICAgICAgICBBZG9iZSBCcmlkZ2UgMjAyMSAoTWFjaW50b3NoKSYjeGE7ICAgICAgICAgICAgICAgICAgICAgL21ldGFkYXRhJiN4YTsgICAgICAgICAgICAgICAgICAmI3hhOyAgICAgICAgICAgICAgICYjeGE7ICAgICAgICAgICAgJiN4YTsgICAgICAgICAmI3hhOyAgICAgICAgIFRydWUmI3hhOyAgICAgICAgICYjeGE7ICAgICAgICAgICAgJiN4YTsgICAgICAgICAgICAgICBTdG9yYWdlJiN4YTsgICAgICAgICAgICAgICBPYmplY3QmI3hhOyAgICAgICAgICAgICAgIGljb24mI3hhOyAgICAgICAgICAgICAgIHNoYXBlJiN4YTsgICAgICAgICAgICAmI3hhOyAgICAgICAgICYjeGE7ICAgICAgICAgJiN4YTsgICAgICAgICAgICAmI3hhOyAgICAgICAgICAgICAgIE9yYWNsZSBBbGwgUmlnaHRzIFJlc2VydmVkJiN4YTsgICAgICAgICAgICAmI3hhOyAgICAgICAgICYjeGE7ICAgICAgICAgJiN4YTsgICAgICAgICAgICAmI3hhOyAgICAgICAgICAgICAgIFN0b3JhZ2UmI3hhOyAgICAgICAgICAgICAgIE9iamVjdCYjeGE7ICAgICAgICAgICAgICAgaWNvbiYjeGE7ICAgICAgICAgICAgJiN4YTsgICAgICAgICAmI3hhOyAgICAgICYjeGE7ICAgJiN4YTsmI3hhOyAgICAgICAgICAgICAgICAgICAgICAgICAgICAgICAgICAgICAgICAgICAgICAgICAgICAgICAgICAgICAgICAgICAgICAgICAgICAgICAgICAgICAgICAgICAgICAgICAgICAmI3hhOyAgICAgICAgICAgICAgICAgICAgICAgICAgICAgICAgICAgICAgICAgICAgICAgICAgICAgICAgICAgICAgICAgICAgICAgICAgICAgICAgICAgICAgICAgICAgICAgICAgICAmI3hhOyAgICAgICAgICAgICAgICAgICAgICAgICAgICAgICAgICAgICAgICAgICAgICAgICAgICAgICAgICAgICAgICAgICAgICAgICAgICAgICAgICAgICAgICAgICAgICAgICAgICAmI3hhOyAgICAgICAgICAgICAgICAgICAgICAgICAgICAgICAgICAgICAgICAgICAgICAgICAgICAgICAgICAgICAgICAgICAgICAgICAgICAgICAgICAgICAgICAgICAgICAgICAgICAmI3hhOyAgICAgICAgICAgICAgICAgICAgICAgICAgICAgICAgICAgICAgICAgICAgICAgICAgICAgICAgICAgICAgICAgICAgICAgICAgICAgICAgICAgICAgICAgICAgICAgICAgICAmI3hhOyAgICAgICAgICAgICAgICAgICAgICAgICAgICAgICAgICAgICAgICAgICAgICAgICAgICAgICAgICAgICAgICAgICAgICAgICAgICAgICAgICAgICAgICAgICAgICAgICAgICAmI3hhOyAgICAgICAgICAgICAgICAgICAgICAgICAgICAgICAgICAgICAgICAgICAgICAgICAgICAgICAgICAgICAgICAgICAgICAgICAgICAgICAgICAgICAgICAgICAgICAgICAgICAmI3hhOyAgICAgICAgICAgICAgICAgICAgICAgICAgICAgICAgICAgICAgICAgICAgICAgICAgICAgICAgICAgICAgICAgICAgICAgICAgICAgICAgICAgICAgICAgICAgICAgICAgICAmI3hhOyAgICAgICAgICAgICAgICAgICAgICAgICAgICAgICAgICAgICAgICAgICAgICYjeGE7PC9tZXRhZGF0YT4mI3hhOzxzdHlsZSB0eXBlPSJ0ZXh0L2NzcyI+JiN4YTsJLnN0MHtmaWxsOiNGRkZGRkY7fSYjeGE7CS5zdDF7ZmlsbDojMkM1OTY3O30mI3hhOzwvc3R5bGU+JiN4YTs8Zz4mI3hhOwk8Zz4mI3hhOwkJPGc+JiN4YTsJCQk8cGF0aCBkPSJNMi42Nyw0MS41Yy0xLjE5LDAtMi4xNy0wLjk3LTIuMTctMi4xN1YyLjY3YzAtMS4yLDAuOTctMi4xNywyLjE3LTIuMTdoMzYuNjdjMS4xOSwwLDIuMTcsMC45NywyLjE3LDIuMTcmIzEwOyYjOTsmIzk7JiM5OyYjOTt2MzYuNjdjMCwxLjItMC45NywyLjE3LTIuMTcsMi4xN0gyLjY3eiIgY2xhc3M9InN0MCIvPiYjeGE7CQkJPHBhdGggZD0iTTM5LjMzLDFDNDAuMjUsMSw0MSwxLjc1LDQxLDIuNjd2MzYuNjdjMCwwLjkyLTAuNzUsMS42Ny0xLjY3LDEuNjdIMi42N0MxLjc1LDQxLDEsNDAuMjUsMSwzOS4zM1YyLjY3JiMxMDsmIzk7JiM5OyYjOTsmIzk7QzEsMS43NSwxLjc1LDEsMi42NywxSDM5LjMzIE0zOS4zMywwSDIuNjdDMS4yLDAsMCwxLjIsMCwyLjY3djM2LjY3QzAsNDAuOCwxLjIsNDIsMi42Nyw0MmgzNi42N0M0MC44LDQyLDQyLDQwLjgsNDIsMzkuMzNWMi42NyYjMTA7JiM5OyYjOTsmIzk7JiM5O0M0MiwxLjIsNDAuOCwwLDM5LjMzLDBMMzkuMzMsMHoiIGNsYXNzPSJzdDAiLz4mI3hhOwkJPC9nPiYjeGE7CQk8Zz4mI3hhOwkJCTxnPiYjeGE7CQkJCTxwYXRoIGQ9Ik0zMC40NCwxMS42NWwyLjcxLDQuNzJsLTIuNzQsNC43MmgtNS40NWwtMi43MS00LjcybDIuNzQtNC43MkgzMC40NCBNMzEuMywxMC4xN2gtNy4xNmwtMy41OSw2LjJsMy41Nyw2LjImIzEwOyYjOTsmIzk7JiM5OyYjOTsmIzk7aDcuMTZsMy41OS02LjJMMzEuMywxMC4xN0wzMS4zLDEwLjE3eiIgY2xhc3M9InN0MSIvPiYjeGE7CQkJPC9nPiYjeGE7CQkJPGc+JiN4YTsJCQkJPHBhdGggZD0iTTIwLjcyLDI1Ljk0YzIuNTksMCw0LjY5LDIuMSw0LjY5LDQuNjljMCwyLjU5LTIuMSw0LjY5LTQuNjksNC42OWMtMi41OSwwLTQuNjktMi4xLTQuNjktNC42OSYjMTA7JiM5OyYjOTsmIzk7JiM5OyYjOTtDMTYuMDQsMjguMDUsMTguMTQsMjUuOTQsMjAuNzIsMjUuOTQgTTIwLjcyLDI0LjQ2Yy0zLjQyLDAtNi4xNywyLjc2LTYuMTcsNi4xN2MwLDMuNDIsMi43OSw2LjE3LDYuMTcsNi4xNyYjMTA7JiM5OyYjOTsmIzk7JiM5OyYjOTtjMy4zOSwwLDYuMTctMi43Niw2LjE3LTYuMTdDMjYuOSwyNy4yMiwyNC4xNCwyNC40NiwyMC43MiwyNC40NkwyMC43MiwyNC40NnoiIGNsYXNzPSJzdDEiLz4mI3hhOwkJCTwvZz4mI3hhOwkJCTxnPiYjeGE7CQkJCTxwYXRoIGQ9Ik0xMy42LDEyLjgzbDQuMzgsNy45M0g5LjI2TDEzLjYsMTIuODMgTTEzLjU5LDkuNzVMNi43NiwyMi4yNGgxMy43MkwxMy41OSw5Ljc1TDEzLjU5LDkuNzV6IiBjbGFzcz0ic3QxIi8+JiN4YTsJCQk8L2c+JiN4YTsJCTwvZz4mI3hhOwkJPGc+JiN4YTsJCQk8cGF0aCBkPSJNMzkuMzMsNDFIMi42N0MxLjc1LDQxLDEsNDAuMjUsMSwzOS4zM1Y0Ljk5aDQwdjM0LjM1QzQxLDQwLjI1LDQwLjI1LDQxLDM5LjMzLDQxeiBNMi40OCw2LjQ3djMyLjg3JiMxMDsmIzk7JiM5OyYjOTsmIzk7YzAsMC4xLDAuMDgsMC4xOSwwLjE5LDAuMTloMzYuNjdjMC4xLDAsMC4xOS0wLjA4LDAuMTktMC4xOVY2LjQ3SDIuNDh6IiBjbGFzcz0ic3QxIi8+JiN4YTsJCTwvZz4mI3hhOwkJPGc+JiN4YTsJCQk8cGF0aCBkPSJNNDEsMy44N0gxVjIuNjdDMSwxLjc1LDEuNzUsMSwyLjY3LDFoMzYuNjdDNDAuMjUsMSw0MSwxLjc1LDQxLDIuNjdWMy44N3oiIGNsYXNzPSJzdDEiLz4mI3hhOwkJPC9nPiYjeGE7CTwvZz4mI3hhOzwvZz4mI3hhOzwvc3ZnPg==;" parent="1" vertex="1">
          <mxGeometry x="50" y="50" width="42" height="42" as="geometry" />
        </mxCell>
        <mxCell id="SkLUeyNimd3eiYkChvTr-40" value="invoice-data" style="rounded=0;whiteSpace=wrap;html=1;fillColor=#E6E6E6;fontColor=#333333;strokeColor=none;fontStyle=2" parent="1" vertex="1">
          <mxGeometry x="70" y="190" width="120" height="20" as="geometry" />
        </mxCell>
        <mxCell id="SkLUeyNimd3eiYkChvTr-41" value="INVOICE_COLLECTION" style="rounded=0;whiteSpace=wrap;html=1;align=center;verticalAlign=middle;fontFamily=Helvetica;fontSize=12;fontColor=#333333;fontStyle=2;fillColor=#E6E6E6;strokeColor=none;" parent="1" vertex="1">
          <mxGeometry x="570" y="190" width="160" height="20" as="geometry" />
        </mxCell>
        <mxCell id="SkLUeyNimd3eiYkChvTr-45" value="ADMIN" style="rounded=0;whiteSpace=wrap;html=1;align=center;verticalAlign=middle;fontFamily=Helvetica;fontSize=12;fontColor=#333333;fontStyle=2;fillColor=#E6E6E6;strokeColor=none;" parent="1" vertex="1">
          <mxGeometry x="625" y="130" width="80" height="20" as="geometry" />
        </mxCell>
        <mxCell id="-AbonZFBZQS3PhslscCF-5" style="edgeStyle=orthogonalEdgeStyle;rounded=0;orthogonalLoop=1;jettySize=auto;html=1;exitX=1;exitY=0.5;exitDx=0;exitDy=0;entryX=0;entryY=0.5;entryDx=0;entryDy=0;" parent="1" source="SkLUeyNimd3eiYkChvTr-46" target="SkLUeyNimd3eiYkChvTr-10" edge="1">
          <mxGeometry relative="1" as="geometry" />
        </mxCell>
        <mxCell id="SkLUeyNimd3eiYkChvTr-46" value="Package" style="shape=process;whiteSpace=wrap;html=1;backgroundOutline=1;size=0.05555555555555555;rounded=0;strokeColor=default;align=center;verticalAlign=top;spacingLeft=0;spacingTop=4;arcSize=12;fontFamily=Helvetica;fontSize=12;fontColor=default;fillColor=default;fontStyle=1" parent="1" vertex="1">
          <mxGeometry x="310" y="160" width="210" height="160" as="geometry" />
        </mxCell>
        <mxCell id="SkLUeyNimd3eiYkChvTr-47" value="JSON_LOAD" style="rounded=0;whiteSpace=wrap;html=1;align=center;verticalAlign=middle;fontFamily=Helvetica;fontSize=12;fontColor=#333333;fontStyle=2;fillColor=#E6E6E6;strokeColor=none;" parent="1" vertex="1">
          <mxGeometry x="330" y="190" width="170" height="20" as="geometry" />
        </mxCell>
        <mxCell id="-AbonZFBZQS3PhslscCF-1" value="&lt;div&gt;INSERT SELECT&lt;/div&gt;&lt;span style=&quot;background-color: initial;&quot;&gt;FROM EXTERNAL&lt;/span&gt;&lt;div&gt;or&lt;/div&gt;&lt;div&gt;DBMS_CLOUD.&lt;div&gt;COPY_COLLECTION()&lt;/div&gt;&lt;/div&gt;" style="text;html=1;align=center;verticalAlign=middle;whiteSpace=wrap;rounded=0;fillColor=none;opacity=60;fontSize=12;fontFamily=Helvetica;" parent="1" vertex="1">
          <mxGeometry x="350" y="215" width="130" height="100" as="geometry" />
        </mxCell>
        <mxCell id="-AbonZFBZQS3PhslscCF-6" style="edgeStyle=orthogonalEdgeStyle;rounded=0;orthogonalLoop=1;jettySize=auto;html=1;exitX=0.5;exitY=0;exitDx=0;exitDy=0;entryX=0.5;entryY=1;entryDx=0;entryDy=0;" parent="1" source="-AbonZFBZQS3PhslscCF-2" target="SkLUeyNimd3eiYkChvTr-46" edge="1">
          <mxGeometry relative="1" as="geometry" />
        </mxCell>
        <mxCell id="-AbonZFBZQS3PhslscCF-2" value="Scheduler Job" style="shape=process;whiteSpace=wrap;html=1;backgroundOutline=1;size=0.05555555555555555;rounded=0;strokeColor=default;align=center;verticalAlign=top;spacingLeft=0;spacingTop=4;arcSize=12;fontFamily=Helvetica;fontSize=12;fontColor=default;fillColor=default;fontStyle=1" parent="1" vertex="1">
          <mxGeometry x="310" y="340" width="210" height="84" as="geometry" />
        </mxCell>
        <mxCell id="-AbonZFBZQS3PhslscCF-3" value="LOAD_INVOICE_COLLECTION_JOB" style="rounded=0;whiteSpace=wrap;html=1;align=center;verticalAlign=middle;fontFamily=Helvetica;fontSize=12;fontColor=#333333;fontStyle=2;fillColor=#E6E6E6;strokeColor=none;" parent="1" vertex="1">
          <mxGeometry x="310" y="372" width="210" height="20" as="geometry" />
        </mxCell>
        <mxCell id="nYe9gGjDUJy1BD0J7p88-1" value="&lt;b&gt;Views&lt;/b&gt;" style="rounded=1;whiteSpace=wrap;html=1;verticalAlign=top;align=center;spacingLeft=0;spacingTop=4;arcSize=12;" parent="1" vertex="1">
          <mxGeometry x="790" y="160" width="220" height="160" as="geometry" />
        </mxCell>
        <mxCell id="nYe9gGjDUJy1BD0J7p88-2" value="INVOICE_VIEW" style="rounded=0;whiteSpace=wrap;html=1;align=center;verticalAlign=middle;fontFamily=Helvetica;fontSize=12;fontColor=#333333;fontStyle=2;fillColor=#E6E6E6;strokeColor=none;" parent="1" vertex="1">
          <mxGeometry x="810" y="190" width="180" height="20" as="geometry" />
        </mxCell>
        <mxCell id="nYe9gGjDUJy1BD0J7p88-3" value="INVOICE_ADDRESS_VIEW" style="rounded=0;whiteSpace=wrap;html=1;align=center;verticalAlign=middle;fontFamily=Helvetica;fontSize=12;fontColor=#333333;fontStyle=2;fillColor=#E6E6E6;strokeColor=none;" parent="1" vertex="1">
          <mxGeometry x="810" y="223" width="180" height="20" as="geometry" />
        </mxCell>
        <mxCell id="nYe9gGjDUJy1BD0J7p88-4" value="INVOICE_LINE_VIEW" style="rounded=0;whiteSpace=wrap;html=1;align=center;verticalAlign=middle;fontFamily=Helvetica;fontSize=12;fontColor=#333333;fontStyle=2;fillColor=#E6E6E6;strokeColor=none;" parent="1" vertex="1">
          <mxGeometry x="810" y="257" width="180" height="20" as="geometry" />
        </mxCell>
        <mxCell id="nYe9gGjDUJy1BD0J7p88-5" value="INVOICE_TAX_VIEW" style="rounded=0;whiteSpace=wrap;html=1;align=center;verticalAlign=middle;fontFamily=Helvetica;fontSize=12;fontColor=#333333;fontStyle=2;fillColor=#E6E6E6;strokeColor=none;" parent="1" vertex="1">
          <mxGeometry x="810" y="290" width="180" height="20" as="geometry" />
        </mxCell>
        <mxCell id="nYe9gGjDUJy1BD0J7p88-6" style="rounded=0;orthogonalLoop=1;jettySize=auto;html=1;exitX=1;exitY=0.5;exitDx=0;exitDy=0;entryX=0;entryY=0.5;entryDx=0;entryDy=0;" parent="1" source="SkLUeyNimd3eiYkChvTr-10" target="nYe9gGjDUJy1BD0J7p88-2" edge="1">
          <mxGeometry relative="1" as="geometry" />
        </mxCell>
        <mxCell id="nYe9gGjDUJy1BD0J7p88-7" style="rounded=0;orthogonalLoop=1;jettySize=auto;html=1;exitX=1;exitY=0.5;exitDx=0;exitDy=0;entryX=0;entryY=0.5;entryDx=0;entryDy=0;" parent="1" source="SkLUeyNimd3eiYkChvTr-10" target="nYe9gGjDUJy1BD0J7p88-3" edge="1">
          <mxGeometry relative="1" as="geometry" />
        </mxCell>
        <mxCell id="nYe9gGjDUJy1BD0J7p88-8" style="rounded=0;orthogonalLoop=1;jettySize=auto;html=1;exitX=1;exitY=0.5;exitDx=0;exitDy=0;entryX=0;entryY=0.5;entryDx=0;entryDy=0;" parent="1" source="SkLUeyNimd3eiYkChvTr-10" target="nYe9gGjDUJy1BD0J7p88-4" edge="1">
          <mxGeometry relative="1" as="geometry" />
        </mxCell>
        <mxCell id="nYe9gGjDUJy1BD0J7p88-9" style="rounded=0;orthogonalLoop=1;jettySize=auto;html=1;exitX=1;exitY=0.5;exitDx=0;exitDy=0;entryX=0;entryY=0.5;entryDx=0;entryDy=0;" parent="1" source="SkLUeyNimd3eiYkChvTr-10" target="nYe9gGjDUJy1BD0J7p88-5" edge="1">
          <mxGeometry relative="1" as="geometry" />
        </mxCell>
        <mxCell id="nYe9gGjDUJy1BD0J7p88-11" value="Partitioned by Day" style="text;html=1;align=center;verticalAlign=middle;whiteSpace=wrap;rounded=0;fillColor=none;opacity=60;fontSize=12;fontFamily=Helvetica;" parent="1" vertex="1">
          <mxGeometry x="65" y="295" width="130" height="20" as="geometry" />
        </mxCell>
        <mxCell id="nYe9gGjDUJy1BD0J7p88-12" value="Partitioned by Day" style="text;html=1;align=center;verticalAlign=middle;whiteSpace=wrap;rounded=0;fillColor=none;opacity=60;fontSize=12;fontFamily=Helvetica;" parent="1" vertex="1">
          <mxGeometry x="585" y="295" width="130" height="20" as="geometry" />
        </mxCell>
        <mxCell id="nYe9gGjDUJy1BD0J7p88-13" value="Execute every day at 02:15" style="text;html=1;align=center;verticalAlign=middle;whiteSpace=wrap;rounded=0;fillColor=none;opacity=60;fontSize=12;fontFamily=Helvetica;" parent="1" vertex="1">
          <mxGeometry x="333" y="400" width="165" height="20" as="geometry" />
        </mxCell>
      </root>
    </mxGraphModel>
  </diagram>
  <diagram id="_Wdf6FG8unDKkUpVr-tK" name="configuration">
    <mxGraphModel dx="2522" dy="1519" grid="1" gridSize="10" guides="1" tooltips="1" connect="1" arrows="1" fold="1" page="1" pageScale="1" pageWidth="1169" pageHeight="827" math="0" shadow="0">
      <root>
        <mxCell id="0" />
        <mxCell id="1" parent="0" />
        <mxCell id="AX1sSN8mTPLwoX_LTjLj-57" value="&lt;b&gt;&lt;font color=&quot;#ae562c&quot;&gt;Internet&lt;/font&gt;&lt;/b&gt;" style="ellipse;shape=cloud;whiteSpace=wrap;html=1;rounded=1;strokeColor=#9E9892;align=center;verticalAlign=bottom;spacingLeft=10;arcSize=3;fontFamily=Oracle Sans;fontSize=12;fontColor=#312D2A;fillColor=#F5F4F2;spacingBottom=13;" parent="1" vertex="1">
          <mxGeometry x="410" y="530" width="320" height="170" as="geometry" />
        </mxCell>
        <mxCell id="AX1sSN8mTPLwoX_LTjLj-21" value="&lt;b&gt;&lt;font color=&quot;#ae562c&quot;&gt;Region&amp;nbsp;&lt;/font&gt;&lt;/b&gt;&lt;b&gt;UK South (London)&lt;/b&gt;" style="whiteSpace=wrap;html=1;align=left;fontFamily=Oracle Sans;verticalAlign=top;fillColor=#F5F4F2;rounded=1;arcSize=3;strokeColor=#9E9892;fontColor=#312D2A;fontSize=12;spacingLeft=10;" parent="1" vertex="1">
          <mxGeometry x="40" y="40" width="1090" height="490" as="geometry" />
        </mxCell>
        <mxCell id="AX1sSN8mTPLwoX_LTjLj-22" value="&lt;b&gt;&lt;font&gt;VCN&lt;/font&gt;&lt;/b&gt;" style="whiteSpace=wrap;html=1;strokeWidth=2;dashed=1;align=left;fontFamily=Oracle Sans;verticalAlign=top;fillColor=none;fontColor=#AE562C;strokeColor=#AE562C;perimeterSpacing=0;fontSize=12;spacingLeft=5;" parent="1" vertex="1">
          <mxGeometry x="95" y="130" width="310" height="345" as="geometry" />
        </mxCell>
        <mxCell id="AX1sSN8mTPLwoX_LTjLj-23" value="" style="shape=image;verticalLabelPosition=bottom;labelBackgroundColor=default;verticalAlign=top;aspect=fixed;imageAspect=0;image=data:image/svg+xml,PHN2ZyB4bWxucz0iaHR0cDovL3d3dy53My5vcmcvMjAwMC9zdmciIHZpZXdCb3g9IjAgMCA0My41IDQyIiBkYXRhLW5hbWU9IkxheWVyIDEiIGlkPSJMYXllcl8xIj48dGl0bGU+VmlydHVhbCBDbG91ZCBOZXR3b3JrIFZDTl9yZWQ8L3RpdGxlPjxtZXRhZGF0YT4mI3hhOyYjeGE7ICAgJiN4YTsgICAgICAmI3hhOyAgICAgICAgIDIwMjItMTEtMTFUMTQ6MTA6MzgtMDY6MDAmI3hhOyAgICAgICAgIHhtcC5paWQ6MjA3ZGY0OTktZjdiYy00YmRkLTg1ZWUtOTI3NzJmN2ZjZDE0JiN4YTsgICAgICAgICB4bXAuZGlkOmE0MDYwYzU4LWIyMGEtNDQ5NC05Zjc3LTgyOTM3ZDdiYjlmYSYjeGE7ICAgICAgICAgeG1wLmRpZDphNDA2MGM1OC1iMjBhLTQ0OTQtOWY3Ny04MjkzN2Q3YmI5ZmEmI3hhOyAgICAgICAgICYjeGE7ICAgICAgICAgICAgJiN4YTsgICAgICAgICAgICAgICAmI3hhOyAgICAgICAgICAgICAgICAgICYjeGE7ICAgICAgICAgICAgICAgICAgICAgc2F2ZWQmI3hhOyAgICAgICAgICAgICAgICAgICAgIHhtcC5paWQ6YTQwNjBjNTgtYjIwYS00NDk0LTlmNzctODI5MzdkN2JiOWZhJiN4YTsgICAgICAgICAgICAgICAgICAgICAyMDIxLTA4LTMxVDE1OjQ0OjU3LTA1OjAwJiN4YTsgICAgICAgICAgICAgICAgICAgICBBZG9iZSBCcmlkZ2UgMjAyMSAoTWFjaW50b3NoKSYjeGE7ICAgICAgICAgICAgICAgICAgICAgL21ldGFkYXRhJiN4YTsgICAgICAgICAgICAgICAgICAmI3hhOyAgICAgICAgICAgICAgICYjeGE7ICAgICAgICAgICAgICAgJiN4YTsgICAgICAgICAgICAgICAgICAmI3hhOyAgICAgICAgICAgICAgICAgICAgIHNhdmVkJiN4YTsgICAgICAgICAgICAgICAgICAgICB4bXAuaWlkOjIwN2RmNDk5LWY3YmMtNGJkZC04NWVlLTkyNzcyZjdmY2QxNCYjeGE7ICAgICAgICAgICAgICAgICAgICAgMjAyMi0xMS0xMVQxNDoxMDozOC0wNjowMCYjeGE7ICAgICAgICAgICAgICAgICAgICAgQWRvYmUgQnJpZGdlIDIwMjEgKE1hY2ludG9zaCkmI3hhOyAgICAgICAgICAgICAgICAgICAgIC9tZXRhZGF0YSYjeGE7ICAgICAgICAgICAgICAgICAgJiN4YTsgICAgICAgICAgICAgICAmI3hhOyAgICAgICAgICAgICYjeGE7ICAgICAgICAgJiN4YTsgICAgICAgICAmI3hhOyAgICAgICAgICAgICYjeGE7ICAgICAgICAgICAgICAgVmlydHVhbCBDbG91ZCBOZXR3b3JrIFZDTl9yZWQmI3hhOyAgICAgICAgICAgICYjeGE7ICAgICAgICAgJiN4YTsgICAgICAgICAmI3hhOyAgICAgICAgICAgICYjeGE7ICAgICAgICAgICAgICAgTmV0d29yayYjeGE7ICAgICAgICAgICAgICAgQ29ubmVjdGl2aXR5JiN4YTsgICAgICAgICAgICAgICBWQ04mI3hhOyAgICAgICAgICAgICAgIFZpcnR1YWwmI3hhOyAgICAgICAgICAgICAgIE5ldHdvcmtpbmcmI3hhOyAgICAgICAgICAgICAgIGljb24mI3hhOyAgICAgICAgICAgICAgIGNvbm5lY3Rpb25zJiN4YTsgICAgICAgICAgICAmI3hhOyAgICAgICAgICYjeGE7ICAgICAgJiN4YTsgICAmI3hhOyYjeGE7ICAgICAgICAgICAgICAgICAgICAgICAgICAgICAgICAgICAgICAgICAgICAgICAgICAgICAgICAgICAgICAgICAgICAgICAgICAgICAgICAgICAgICAgICAgICAgICAgICAgICYjeGE7ICAgICAgICAgICAgICAgICAgICAgICAgICAgICAgICAgICAgICAgICAgICAgICAgICAgICAgICAgICAgICAgICAgICAgICAgICAgICAgICAgICAgICAgICAgICAgICAgICAgICYjeGE7ICAgICAgICAgICAgICAgICAgICAgICAgICAgICAgICAgICAgICAgICAgICAgICAgICAgICAgICAgICAgICAgICAgICAgICAgICAgICAgICAgICAgICAgICAgICAgICAgICAgICYjeGE7ICAgICAgICAgICAgICAgICAgICAgICAgICAgICAgICAgICAgICAgICAgICAgICAgICAgICAgICAgICAgICAgICAgICAgICAgICAgICAgICAgICAgICAgICAgICAgICAgICAgICYjeGE7ICAgICAgICAgICAgICAgICAgICAgICAgICAgICAgICAgICAgICAgICAgICAgICAgICAgICAgICAgICAgICAgICAgICAgICAgICAgICAgICAgICAgICAgICAgICAgICAgICAgICYjeGE7ICAgICAgICAgICAgICAgICAgICAgICAgICAgICAgICAgICAgICAgICAgICAgICAgICAgICAgICAgICAgICAgICAgICAgICAgICAgICAgICAgICAgICAgICAgICAgICAgICAgICYjeGE7ICAgICAgICAgICAgICAgICAgICAgICAgICAgICAgICAgICAgICAgICAgICAgICAgICAgICAgICAgICAgICAgICAgICAgICAgICAgICAgICAgICAgICAgICAgICAgICAgICAgICYjeGE7ICAgICAgICAgICAgICAgICAgICAgICAgICAgICAgICAgICAgICAgICAgICAgICAgICAgICAgICAgICAgICAgICAgICAgICAgICAgICAgICAgICAgICAgICAgICAgICAgICAgICYjeGE7ICAgICAgICAgICAgICAgICAgICAgICAgICAgICAgICAgICAgICAgICAgICAgICAgICAgICAgICAgICAgICAgICAgICAgICAgICAgICAgICAgICAgICAgICAgICAgICAgICAgICYjeGE7ICAgICAgICAgICAgICAgICAgICAgICAgICAgICAgICAgICAgICAgICAgICAgICAgICAgICAgICAgICAgICAgICAgICAgICAgICAgICAgICAgICAgICAgICAgICAgICAgICAgICYjeGE7ICAgICAgICAgICAgICAgICAgICAgICAgICAgICAgICAgICAgICAgICAgICAgICAgICAgICAgICAgICAgICAgICAgICAgICAgICAgICAgICAgICAgICAgICAgICAgICAgICAgICYjeGE7ICAgICAgICAgICAgICAgICAgICAgICAgICAgICAgICAgICAgICAgICAgICAgICAgICAgICAgICAgICAgICAgICAgICAgICAgICAgICAgICAgICAgICAgICAgICAgICAgICAgICYjeGE7ICAgICAgICAgICAgICAgICAgICAgICAgICAgICAgICAgICAgICAgICAgICAgICAgICAgICAgICAgICAgICAgICAgICAgICAgICAgICAgICAgICAgICAgICAgICAgICAgICAgICYjeGE7ICAmI3hhOzwvbWV0YWRhdGE+JiN4YTs8cGF0aCBmaWxsPSIjZmZmIiBkPSJNMzEuMTYsNDEuNWE2LDYsMCwwLDEtNS44Ny00Ljc3aC03LjFhNiw2LDAsMSwxLTguODUtNi40NEw3LjE1LDIzLjU1YTQuNzMsNC43MywwLDAsMS0uNjUsMCw2LDYsMCwxLDEsNC0xMC40NkwxNi4yNyw5YTYsNiwwLDAsMS0uNTMtMi40Niw2LDYsMCwwLDEsMTIsMEE2LDYsMCwwLDEsMjcuMjIsOUwzMywxMy4xM2E1LjkzLDUuOTMsMCwwLDEsNC0xLjU2LDYsNiwwLDEsMSwwLDEyYy0uMjEsMC0uNDMsMC0uNjQsMGwtMi4yLDYuNzRhNiw2LDAsMCwxLTMsMTEuMjFaIi8+PHBhdGggZmlsbD0iI2ZmZiIgZD0iTTIxLjc1LDFhNS41MSw1LjUxLDAsMCwxLDQuODQsOC4xMkwzMywxMy43OGE1LjUsNS41LDAsMSwxLDQsOS4zQTUuMzYsNS4zNiwwLDAsMSwzNiwyM2wtMi40NSw3LjU1YTUuNSw1LjUsMCwxLDEtNy44NCw1LjY5SDE3Ljc3YTUuNSw1LjUsMCwxLDEtNy44My01LjdMNy40OSwyM2E1LjM2LDUuMzYsMCwwLDEtMSwuMDksNS41MSw1LjUxLDAsMSwxLDQtOS4zMUwxNi45LDkuMTJBNS41MSw1LjUxLDAsMCwxLDIxLjc1LDFtMC0xYTYuNTEsNi41MSwwLDAsMC02LjUxLDYuNSw2LjQxLDYuNDEsMCwwLDAsLjQyLDIuMjlsLTUuMTEsMy43QTYuNTEsNi41MSwwLDEsMCw2LjUsMjQuMDloLjI5bDIsNmE2LjUsNi41LDAsMSwwLDkuODUsNy4xNmg2LjNhNi41MSw2LjUxLDAsMSwwLDkuODYtNy4xNmwyLTZIMzdhNi41MSw2LjUxLDAsMSwwLDAtMTMsNi40NCw2LjQ0LDAsMCwwLTQuMDUsMS40MmwtNS4xLTMuN2E2LjYyLDYuNjIsMCwwLDAsLjQxLTIuMjlBNi41MSw2LjUxLDAsMCwwLDIxLjc1LDBaIi8+PHBhdGggZmlsbD0iI2JiNTAxYyIgZD0iTTM3LDEyLjA3YTUuNSw1LjUsMCwwLDAtNCwxLjcxTDI2LjU5LDkuMTJhNS41MSw1LjUxLDAsMSwwLTkuNjksMGwtNi40Miw0LjY2YTUuNSw1LjUsMCwxLDAtNCw5LjMxLDUuMzYsNS4zNiwwLDAsMCwxLS4wOWwyLjQ1LDcuNTNhNS41LDUuNSwwLDEsMCw3LjgzLDUuN2g3Ljk0YTUuNSw1LjUsMCwxLDAsNy44NC01LjY5TDM2LDIzYTUuMzYsNS4zNiwwLDAsMCwxLC4wOSw1LjUxLDUuNTEsMCwxLDAsMC0xMVpNMzEuMTYsMzkuNTNhNCw0LDAsMSwxLDQtNEE0LDQsMCwwLDEsMzEuMTYsMzkuNTNaTTE3Ljc3LDM0Ljc2YTUuNDYsNS40NiwwLDAsMC0xLjY2LTMuMjVsMy00LjE5YTUuNTcsNS41NywwLDAsMCwyLjYxLjY1LDUuNDUsNS40NSwwLDAsMCwyLjYtLjY1bDMsNC4xOWE1LjQ3LDUuNDcsMCwwLDAtMS42NywzLjI1Wm0tOS40OS43NGE0LDQsMCwxLDEsNCw0QTQsNCwwLDAsMSw4LjI4LDM1LjVaTTYuNSwxMy41NWE0LDQsMCwxLDEtNCw0QTQsNCwwLDAsMSw2LjUsMTMuNTVabTExLjIxLTdhNCw0LDAsMSwxLDQsNEE0LDQsMCwwLDEsMTcuNzEsNi41Wm0xMy44NiwxMkwyNi43MiwyMC4xQTUuNTQsNS41NCwwLDAsMCwyMi40OCwxN1YxMmE1LjQ0LDUuNDQsMCwwLDAsMy4yNC0xLjY2TDMyLjE1LDE1YTUuNDQsNS40NCwwLDAsMC0uNjYsMi42MUE2LDYsMCwwLDAsMzEuNTcsMTguNTRabS01Ljc5LDMuOTNhNCw0LDAsMSwxLTQtNEE0LDQsMCwwLDEsMjUuNzgsMjIuNDdaTTIxLDEyVjE3YTUuNTEsNS41MSwwLDAsMC00LjIzLDMuMDlsLTQuODYtMS41NWE1LjE1LDUuMTUsMCwwLDAsLjA5LTFBNS40OSw1LjQ5LDAsMCwwLDExLjM1LDE1bDYuNDItNC42N0E1LjQ0LDUuNDQsMCwwLDAsMjEsMTJabS05LjU0LDgsNC44NiwxLjU1YTUuMjMsNS4yMywwLDAsMC0uMDksMSw1LjQ1LDUuNDUsMCwwLDAsMS43Miw0bC0zLDQuMmE1LjQzLDUuNDMsMCwwLDAtMi42LS42Niw1LjI1LDUuMjUsMCwwLDAtMSwuMDlMOC44OSwyMi41NEE1LjUsNS41LDAsMCwwLDExLjQ3LDIwWk0zMS4xNiwzMGE1LjU2LDUuNTYsMCwwLDAtMi42LjY1bC0zLTQuMThhNS40OSw1LjQ5LDAsMCwwLDEuNzItNCw1LjE1LDUuMTUsMCwwLDAtLjA5LTFMMzIsMTkuOTRhNS42MSw1LjYxLDAsMCwwLDIuNTgsMi42bC0yLjQ1LDcuNTRBNS4zNiw1LjM2LDAsMCwwLDMxLjE2LDMwWk0zMywxNy41OGE0LDQsMCwxLDEsNCw0QTQsNCwwLDAsMSwzMywxNy41OFoiLz48L3N2Zz4=;" parent="1" vertex="1">
          <mxGeometry x="350.5" y="105" width="44" height="42" as="geometry" />
        </mxCell>
        <mxCell id="AX1sSN8mTPLwoX_LTjLj-24" value="&lt;b&gt;&lt;font&gt;Oracle Services Network&lt;/font&gt;&lt;/b&gt;" style="whiteSpace=wrap;html=1;strokeWidth=2;dashed=1;align=left;fontFamily=Oracle Sans;verticalAlign=top;fillColor=none;fontColor=#AE562C;strokeColor=#AE562C;perimeterSpacing=0;fontSize=12;spacingLeft=5;" parent="1" vertex="1">
          <mxGeometry x="475.5" y="130" width="599.5" height="345" as="geometry" />
        </mxCell>
        <mxCell id="AX1sSN8mTPLwoX_LTjLj-25" value="" style="shape=image;verticalLabelPosition=bottom;labelBackgroundColor=default;verticalAlign=top;aspect=fixed;imageAspect=0;image=data:image/svg+xml,PHN2ZyB4bWxucz0iaHR0cDovL3d3dy53My5vcmcvMjAwMC9zdmciIHZpZXdCb3g9IjAgMCA0NS4zMiA0Mi4zMSIgZGF0YS1uYW1lPSJMYXllciAxIiBpZD0iTGF5ZXJfMSI+PG1ldGFkYXRhPiYjeGE7JiN4YTsgICAmI3hhOyAgICAgICYjeGE7ICAgICAgICAgJiN4YTsgICAgICAgICAgICAmI3hhOyAgICAgICAgICAgICAgIGljb24mI3hhOyAgICAgICAgICAgICAgIG5ldHdvcmsmI3hhOyAgICAgICAgICAgICAgIGNvbW11bmljYXRpb24mI3hhOyAgICAgICAgICAgICAgIGhleGFnb25zJiN4YTsgICAgICAgICAgICAgICBjb25uZWN0aW9uJiN4YTsgICAgICAgICAgICAgICBub2RlcyYjeGE7ICAgICAgICAgICAgICAgT0NTTiYjeGE7ICAgICAgICAgICAgICAgY2x1c3RlciYjeGE7ICAgICAgICAgICAgJiN4YTsgICAgICAgICAmI3hhOyAgICAgICAgIDIwMjItMTEtMTFUMTQ6MTg6MDktMDY6MDAmI3hhOyAgICAgICAgIHhtcC5paWQ6Yjg3YWRmNDMtNGRiOC00ZTI4LWJmMmQtZmYxMDQ1NzNkN2U0JiN4YTsgICAgICAgICB4bXAuZGlkOmRjNWVjNGFlLTdkZjYtNDBhZi04Nzc3LWM0NjhjZGUwYzk2OSYjeGE7ICAgICAgICAgeG1wLmRpZDpkYzVlYzRhZS03ZGY2LTQwYWYtODc3Ny1jNDY4Y2RlMGM5NjkmI3hhOyAgICAgICAgICYjeGE7ICAgICAgICAgICAgJiN4YTsgICAgICAgICAgICAgICAmI3hhOyAgICAgICAgICAgICAgICAgICYjeGE7ICAgICAgICAgICAgICAgICAgICAgc2F2ZWQmI3hhOyAgICAgICAgICAgICAgICAgICAgIHhtcC5paWQ6ZGM1ZWM0YWUtN2RmNi00MGFmLTg3NzctYzQ2OGNkZTBjOTY5JiN4YTsgICAgICAgICAgICAgICAgICAgICAyMDIyLTExLTExVDEzOjIxOjA4LTA2OjAwJiN4YTsgICAgICAgICAgICAgICAgICAgICBBZG9iZSBCcmlkZ2UgMjAyMSAoTWFjaW50b3NoKSYjeGE7ICAgICAgICAgICAgICAgICAgICAgL21ldGFkYXRhJiN4YTsgICAgICAgICAgICAgICAgICAmI3hhOyAgICAgICAgICAgICAgICYjeGE7ICAgICAgICAgICAgICAgJiN4YTsgICAgICAgICAgICAgICAgICAmI3hhOyAgICAgICAgICAgICAgICAgICAgIHNhdmVkJiN4YTsgICAgICAgICAgICAgICAgICAgICB4bXAuaWlkOmI4N2FkZjQzLTRkYjgtNGUyOC1iZjJkLWZmMTA0NTczZDdlNCYjeGE7ICAgICAgICAgICAgICAgICAgICAgMjAyMi0xMS0xMVQxNDoxODowOS0wNjowMCYjeGE7ICAgICAgICAgICAgICAgICAgICAgQWRvYmUgQnJpZGdlIDIwMjEgKE1hY2ludG9zaCkmI3hhOyAgICAgICAgICAgICAgICAgICAgIC9tZXRhZGF0YSYjeGE7ICAgICAgICAgICAgICAgICAgJiN4YTsgICAgICAgICAgICAgICAmI3hhOyAgICAgICAgICAgICYjeGE7ICAgICAgICAgJiN4YTsgICAgICAmI3hhOyAgICYjeGE7JiN4YTsgICAgICAgICAgICAgICAgICAgICAgICAgICAgICAgICAgICAgICAgICAgICAgICAgICAgICAgICAgICAgICAgICAgICAgICAgICAgICAgICAgICAgICAgICAgICAgICAgICAgJiN4YTsgICAgICAgICAgICAgICAgICAgICAgICAgICAgICAgICAgICAgICAgICAgICAgICAgICAgICAgICAgICAgICAgICAgICAgICAgICAgICAgICAgICAgICAgICAgICAgICAgICAgJiN4YTsgICAgICAgICAgICAgICAgICAgICAgICAgICAgICAgICAgICAgICAgICAgICAgICAgICAgICAgICAgICAgICAgICAgICAgICAgICAgICAgICAgICAgICAgICAgICAgICAgICAgJiN4YTsgICAgICAgICAgICAgICAgICAgICAgICAgICAgICAgICAgICAgICAgICAgICAgICAgICAgICAgICAgICAgICAgICAgICAgICAgICAgICAgICAgICAgICAgICAgICAgICAgICAgJiN4YTsgICAgICAgICAgICAgICAgICAgICAgICAgICAgICAgICAgICAgICAgICAgICAgICAgICAgICAgICAgICAgICAgICAgICAgICAgICAgICAgICAgICAgICAgICAgICAgICAgICAgJiN4YTsgICAgICAgICAgICAgICAgICAgICAgICAgICAgICAgICAgICAgICAgICAgICAgICAgICAgICAgICAgICAgICAgICAgICAgICAgICAgICAgICAgICAgICAgICAgICAgICAgICAgJiN4YTsgICAgICAgICAgICAgICAgICAgICAgICAgICAgICAgICAgICAgICAgICAgICAgICAgICAgICAgICAgICAgICAgICAgICAgICAgICAgICAgICAgICAgICAgICAgICAgICAgICAgJiN4YTsgICAgICAgICAgICAgICAgICAgICAgICAgICAgICAgICAgICAgICAgICAgICAgICAgICAgICAgICAgICAgICAgICAgICAgICAgICAgICAgICAgICAgICAgICAgICAgICAgICAgJiN4YTsgICAgICAgICAgICAgICAgICAgICAgICAgICAgICAgICAgICAgICAgICAgICAgICAgICAgICAgICAgICAgICAgICAgICAgICAgICAgICAgICAgICAgICAgICAgICAgICAgICAgJiN4YTsgICAgICAgICAgICAgICAgICAgICAgICAgICAgICAgICAgICAgICAgICAgICAgICAgICAgICAgICAgICAgICAgICAgICAgICAgICAgICAgICAgICAgICAgICAgICAgICAgICAgJiN4YTsgICAgICAgICAgICAgICAgICAgICAgICAgICAgICAgICAgICAgICAgICAgICAgICAgICAgICAgICAgICAgICAgICAgICAgICAgICAgICAgICAgICAgICAgICAgICAgICAgICAgJiN4YTsgICAgICAgICAgICAgICAgICAgICAgICAgICAgICAgICAgICAgICAgICAgICAgICAgICAgICAgICAgICAgICAgICAgICAgICAgICAgICAgICAgICAgICAgICAgICAgICAgICAgJiN4YTsgICAgICAgICAgICAgICAgICAgICAgICAgICAgICAgICAgICAgICAgICAgICAgICAgICAgICAgICAgICAgICAgICAgICAgICAgICAgICAgICAgICAgICAgICAgICAgICAgICAgJiN4YTsgICAgICAgICAgICAgICAgICAgICAgICAgICYjeGE7PC9tZXRhZGF0YT4mI3hhOzxwb2x5Z29uIGZpbGw9IiNmZmYiIHBvaW50cz0iMjYuMjQgMzguODQgMjYuMjQgMzcuMzEgMTkuMDkgMzcuMzEgMTkuMDkgMzguODQgMTQuMDggNDEuNzMgOS4wOCAzOC44NCA5LjA4IDMzLjA2IDEwLjM1IDMyLjMzIDYuOCAyNi4xNSA1LjUgMjYuODkgMC41IDI0IDAuNSAxOC4yMyA1LjUgMTUuMzQgNi44OSAxNi4xNCAxMC4zNiA5Ljk4IDkuMDggOS4yNCA5LjA4IDMuNDcgMTQuMDggMC41OCAxOS4wOSAzLjQ3IDE5LjA5IDUgMjYuMjQgNSAyNi4yNCAzLjQ3IDMxLjI0IDAuNTggMzYuMjQgMy40NyAzNi4yNCA5LjI0IDM0Ljk4IDkuOTggMzguNTIgMTYuMDkgMzkuODIgMTUuMzQgNDQuODMgMTguMjMgNDQuODMgMjQgMzkuODIgMjYuODkgMzguNjEgMjYuMTkgMzQuOTggMzIuMzQgMzYuMjQgMzMuMDYgMzYuMjQgMzguODQgMzEuMjQgNDEuNzMgMjYuMjQgMzguODQiLz48cGF0aCBmaWxsPSIjZmZmIiBkPSJNMzEuMjQsMS4xNWw0LjUxLDIuNjFWOWwtMS40Ni44NCw0LDcsMS40OS0uODYsNC41LDIuNnY1LjIxbC00LjUsMi42LTEuMzktLjgxLTQuMTMsNywxLjQ1LjgzdjUuMmwtNC41MSwyLjYtNC41LTIuNlYzNi44MUgxOC41OXYxLjc0bC00LjUxLDIuNi00LjUtMi42di01LjJMMTEsMzIuNTFsLTQtNy0xLjQ4Ljg2TDEsMjMuNzJWMTguNTFsNC41LTIuNiwxLjU4LjkxLDQtN0w5LjU4LDlWMy43Nmw0LjUtMi42MSw0LjUxLDIuNjFWNS41aDguMTVWMy43Nmw0LjUtMi42MW0wLTEuMTUtLjUuMjktNC41LDIuNi0uNS4yOVY0LjVIMTkuNTlWMy4xOGwtLjUtLjI5TDE0LjU4LjI5LDE0LjA4LDBsLS41LjI5LTQuNSwyLjYtLjUuMjlWOS41M2wuNS4yOS42LjM1LTMsNS4yOC0uNy0uNC0uNS0uMjktLjUuMjlMLjUsMTcuNjVsLS41LjI5djYuMzVsLjUuMjlMNSwyNy4xOGwuNS4yOS41LS4yOS42MS0uMzUsMy4wNiw1LjMyLS41OS4zNC0uNS4yOXY2LjM1bC41LjI5LDQuNSwyLjYuNS4yOS41LS4yOSw0LjUxLTIuNi41LS4yOVYzNy44MWg2LjE1djEuMzJsLjUuMjksNC41LDIuNi41LjI5LjUtLjI5LDQuNTEtMi42LjUtLjI5VjMyLjc4bC0uNS0uMjktLjU4LS4zMywzLjEyLTUuMjkuNTMuMzEuNS4yOS41LS4yOSw0LjUtMi42LjUtLjI5VjE3Ljk0bC0uNS0uMjktNC41LTIuNi0uNS0uMjktLjUuMjktLjYyLjM2LTMtNS4yNS41OS0uMzQuNS0uMjlWMy4xOGwtLjUtLjI5TDMxLjc0LjI5LDMxLjI0LDBaIi8+PHBhdGggZmlsbD0iIzJjNTk2NyIgZD0iTTM5LjgyLDE1LjkxbC0xLjQ5Ljg2LTQtN0wzNS43NSw5VjMuNzZMMzEuMjQsMS4xNWwtNC41LDIuNjFWNS41SDE4LjU5VjMuNzZMMTQuMDgsMS4xNSw5LjU4LDMuNzZWOUwxMSw5LjhsLTQsN0w1LjUsMTUuOTEsMSwxOC41MXY1LjIxbDQuNSwyLjZMNywyNS40Nmw0LDctMS40NS44NHY1LjJsNC41LDIuNiw0LjUxLTIuNlYzNi44MWg4LjE1djEuNzRsNC41LDIuNiw0LjUxLTIuNnYtNS4ybC0xLjQ1LS44Myw0LjEzLTcsMS4zOS44MSw0LjUtMi42VjE4LjUxWk0yOC40NSw0Ljc1bDIuNzktMS42MUwzNCw0Ljc1VjhMMzEuMjQsOS41OCwyOC40NSw4Wm0tMTcuMTYsMCwyLjc5LTEuNjEsMi43OSwxLjYxVjhMMTQuMDgsOS41OCwxMS4yOSw4Wm0tOC41NywxOFYxOS41MUw1LjUsMTcuOWwyLjc5LDEuNjF2My4yMUw1LjUsMjQuMzNaTTE2Ljg3LDM3LjU2bC0yLjc5LDEuNjEtMi43OS0xLjYxVjM0LjM0bDIuNzktMS42MSwyLjc5LDEuNjFabTE3LjE2LDAtMi43OSwxLjYxLTIuNzktMS42MVYzNC4zNGwyLjc5LTEuNjFMMzQsMzQuMzRabS0xLjIyLTUuOS0xLjU3LS45MS0xLjQuODFMMjcuMTcsMjdoLTJsMy4xNyw1LjQ3LTEuNjIuOTNWMzUuMUgxOC41OVYzMy4zNUwxNywzMi40MiwyMC4xNywyN2gtMmwtMi42OSw0LjYyLTEuNDEtLjgyLTEuNTYuOS00LTdMMTAsMjMuNzJWMjJoNC4xYTUuNDcsNS40NywwLDAsMSwxLjcxLTEuNjQuMjUuMjUsMCwwLDAsMC0uMDdIMTBWMTguNTFsLTEuNDUtLjgzLDQtNywxLjU1LjksMS42NC0xLDMuNzUsNi40NmE0LjUyLDQuNTIsMCwwLDEsLjc0LS4wNmguMDhhNS43Nyw1Ljc3LDAsMCwxLC43OC0uNkwxNy4yMSw5Ljc1LDE4LjU5LDlWNy4yMWg4LjE1VjlsMS40My44Mi0zLjQzLDUuOWE1LjMyLDUuMzIsMCwwLDEsMS42NS41OGwzLjI3LTUuNjIsMS41OC45MiwxLjU3LS45MSw0LDctMS41My44OFYyMC4zSDMxLjI2QTUuMTcsNS4xNywwLDAsMSwzMiwyMmgzLjI5djEuNzFsMS42Mi45M1ptOS44LTguOTQtMi43OSwxLjYxTDM3LDIyLjcyVjE5LjUxbDIuNzktMS42MSwyLjc5LDEuNjFaIi8+PHBhdGggZmlsbD0iIzJjNTk2NyIgZD0iTTMwLjE5LDI1LjY2bC4yNC0uNDVBNCw0LDAsMCwwLDI5LDE5LjkxYTQsNCwwLDAsMC0xLjI2LS41Mi42Mi42MiwwLDAsMS0uNDItLjMxLDMuODksMy44OSwwLDAsMC0zLjUxLTIuMTlBMy45NCwzLjk0LDAsMCwwLDIxLDE4LjE0YS41NC41NCwwLDAsMS0uNDcuMTcsMy4xOCwzLjE4LDAsMCwwLTEuNjEuMjdBMy4yNywzLjI3LDAsMCwwLDE3LDIwLjk0YS41OS41OSwwLDAsMS0uMjguNCw0LjIsNC4yLDAsMCwwLTIuMjUsMy40bC0uMDcuOTJabS0xMS41LTQuMzlhMS41NiwxLjU2LDAsMCwxLC45LTEuMTIsMS41MywxLjUzLDAsMCwxLC43Ni0uMTMsMi4yMywyLjIzLDAsMCwwLDEuODgtLjcxLDIuMTksMi4xOSwwLDAsMSwzLjU5LjUzLDIuMzEsMi4zMSwwLDAsMCwxLjU4LDEuMjIsMi40NSwyLjQ1LDAsMCwxLC43My4zLDIuMzMsMi4zMywwLDAsMSwxLDIuNThIMTYuNDVhMi40MywyLjQzLDAsMCwxLDEuMDctMS4wOEEyLjI2LDIuMjYsMCwwLDAsMTguNjksMjEuMjdaIi8+PC9zdmc+;" parent="1" vertex="1">
          <mxGeometry x="1015" y="105" width="45" height="42" as="geometry" />
        </mxCell>
        <mxCell id="AX1sSN8mTPLwoX_LTjLj-27" value="&lt;b&gt;Public Subnet&lt;/b&gt;" style="whiteSpace=wrap;html=1;strokeWidth=1;dashed=1;align=left;fontFamily=Oracle Sans;verticalAlign=top;fillColor=none;fontColor=#AE562C;perimeterSpacing=0;strokeColor=#AE562C;fontSize=12;spacingLeft=5;" parent="1" vertex="1">
          <mxGeometry x="125" y="165" width="240" height="280" as="geometry" />
        </mxCell>
        <mxCell id="AX1sSN8mTPLwoX_LTjLj-41" value="&lt;b&gt;&lt;font color=&quot;#ae562c&quot;&gt;Compartment &lt;/font&gt;&lt;font color=&quot;#000000&quot;&gt;sandbox-london&lt;/font&gt;&lt;/b&gt;" style="whiteSpace=wrap;html=1;strokeWidth=1;dashed=1;align=left;fontFamily=Oracle Sans;verticalAlign=top;fillColor=none;fontColor=#312d2a;strokeColor=#AE562C;dashPattern=1 1;fontSize=12;perimeterSpacing=0;spacingLeft=5;" parent="1" vertex="1">
          <mxGeometry x="70" y="87" width="1030" height="413" as="geometry" />
        </mxCell>
        <mxCell id="AX1sSN8mTPLwoX_LTjLj-26" value="Internet Gateway" style="text;html=1;align=center;verticalAlign=middle;whiteSpace=wrap;rounded=0;fillColor=none;opacity=60;fontSize=12;fontFamily=Oracle Sans Tab;" parent="1" vertex="1">
          <mxGeometry x="375" y="341.5" width="60" height="30" as="geometry" />
        </mxCell>
        <mxCell id="AX1sSN8mTPLwoX_LTjLj-28" value="&lt;b&gt;Client VM&lt;/b&gt;&lt;div&gt;&lt;div style=&quot;&quot;&gt;&lt;br&gt;&lt;/div&gt;&lt;div style=&quot;&quot;&gt;Shape: VM.Standard.E5.Flex&lt;/div&gt;&lt;div style=&quot;&quot;&gt;OCPUs: 1, Memory: 16 GB&lt;/div&gt;&lt;/div&gt;&lt;div style=&quot;&quot;&gt;OS: Oracle Linux, public IP&lt;/div&gt;&lt;div style=&quot;&quot;&gt;&lt;br&gt;&lt;/div&gt;&lt;div style=&quot;&quot;&gt;Python3&lt;/div&gt;&lt;div style=&quot;&quot;&gt;OCI Python SDK and CLI&lt;/div&gt;&lt;div style=&quot;&quot;&gt;Oracle SQLcl&lt;/div&gt;" style="rounded=1;whiteSpace=wrap;html=1;fillColor=#FCFBFA;strokeColor=#759C6C;fontColor=#161513;fontFamily=Oracle Sans;labelBackgroundColor=none;align=left;arcSize=7;verticalAlign=top;spacingLeft=10;" parent="1" vertex="1">
          <mxGeometry x="155" y="202.5" width="180" height="210" as="geometry" />
        </mxCell>
        <mxCell id="AX1sSN8mTPLwoX_LTjLj-29" value="" style="shape=image;verticalLabelPosition=bottom;labelBackgroundColor=default;verticalAlign=top;aspect=fixed;imageAspect=0;image=data:image/svg+xml,PHN2ZyB4bWxuczp4bGluaz0iaHR0cDovL3d3dy53My5vcmcvMTk5OS94bGluayIgeG1sbnM9Imh0dHA6Ly93d3cudzMub3JnLzIwMDAvc3ZnIiB4bWw6c3BhY2U9InByZXNlcnZlIiBzdHlsZT0iZW5hYmxlLWJhY2tncm91bmQ6bmV3IDAgMCA0MiA0MjsiIHZpZXdCb3g9IjAgMCA0MiA0MiIgeT0iMHB4IiB4PSIwcHgiIGlkPSJMYXllcl8xIiB2ZXJzaW9uPSIxLjEiPiYjeGE7PG1ldGFkYXRhPiYjeGE7JiN4YTsgICAmI3hhOyAgICAgICYjeGE7ICAgICAgICAgMjAyMi0xMC0yMVQxMzo0NToyOC0wNTowMCYjeGE7ICAgICAgICAgeG1wLmlpZDoyNTBmZmM0OC1hYWQ5LTQyMDUtYTk3OS0wMDVjMGY0NjFhYzgmI3hhOyAgICAgICAgIHhtcC5kaWQ6NmEwYzAxZDgtOTkzOC00YWM3LWI2MjQtZmM4MjU2OWM5OTM2JiN4YTsgICAgICAgICB4bXAuZGlkOjZhMGMwMWQ4LTk5MzgtNGFjNy1iNjI0LWZjODI1NjljOTkzNiYjeGE7ICAgICAgICAgJiN4YTsgICAgICAgICAgICAmI3hhOyAgICAgICAgICAgICAgICYjeGE7ICAgICAgICAgICAgICAgICAgJiN4YTsgICAgICAgICAgICAgICAgICAgICBzYXZlZCYjeGE7ICAgICAgICAgICAgICAgICAgICAgeG1wLmlpZDo2YTBjMDFkOC05OTM4LTRhYzctYjYyNC1mYzgyNTY5Yzk5MzYmI3hhOyAgICAgICAgICAgICAgICAgICAgIDIwMjEtMDQtMjdUMTM6NDE6MzAtMDU6MDAmI3hhOyAgICAgICAgICAgICAgICAgICAgIEFkb2JlIEJyaWRnZSAyMDIxIChNYWNpbnRvc2gpJiN4YTsgICAgICAgICAgICAgICAgICAgICAvbWV0YWRhdGEmI3hhOyAgICAgICAgICAgICAgICAgICYjeGE7ICAgICAgICAgICAgICAgJiN4YTsgICAgICAgICAgICAgICAmI3hhOyAgICAgICAgICAgICAgICAgICYjeGE7ICAgICAgICAgICAgICAgICAgICAgc2F2ZWQmI3hhOyAgICAgICAgICAgICAgICAgICAgIHhtcC5paWQ6MjUwZmZjNDgtYWFkOS00MjA1LWE5NzktMDA1YzBmNDYxYWM4JiN4YTsgICAgICAgICAgICAgICAgICAgICAyMDIyLTEwLTIxVDEzOjQ1OjI4LTA1OjAwJiN4YTsgICAgICAgICAgICAgICAgICAgICBBZG9iZSBCcmlkZ2UgMjAyMSAoTWFjaW50b3NoKSYjeGE7ICAgICAgICAgICAgICAgICAgICAgL21ldGFkYXRhJiN4YTsgICAgICAgICAgICAgICAgICAmI3hhOyAgICAgICAgICAgICAgICYjeGE7ICAgICAgICAgICAgJiN4YTsgICAgICAgICAmI3hhOyAgICAgICAgIFRydWUmI3hhOyAgICAgICAgICYjeGE7ICAgICAgICAgICAgJiN4YTsgICAgICAgICAgICAgICBDb21wdXRlJiN4YTsgICAgICAgICAgICAgICBWTSYjeGE7ICAgICAgICAgICAgICAgVmlydHVhbCBNYWNoaW5lJiN4YTsgICAgICAgICAgICAgICBpY29uJiN4YTsgICAgICAgICAgICAmI3hhOyAgICAgICAgICYjeGE7ICAgICAgICAgJiN4YTsgICAgICAgICAgICAmI3hhOyAgICAgICAgICAgICAgIE9yYWNsZSBBbGwgUmlnaHRzIFJlc2VydmVkJiN4YTsgICAgICAgICAgICAmI3hhOyAgICAgICAgICYjeGE7ICAgICAgICAgJiN4YTsgICAgICAgICAgICAmI3hhOyAgICAgICAgICAgICAgIENvbXB1dGUmI3hhOyAgICAgICAgICAgICAgIGljb24mI3hhOyAgICAgICAgICAgICYjeGE7ICAgICAgICAgJiN4YTsgICAgICAmI3hhOyAgICYjeGE7JiN4YTsgICAgICAgICAgICAgICAgICAgICAgICAgICAgICAgICAgICAgICAgICAgICAgICAgICAgICAgICAgICAgICAgICAgICAgICAgICAgICAgICAgICAgICAgICAgICAgICAgICAgJiN4YTsgICAgICAgICAgICAgICAgICAgICAgICAgICAgICAgICAgICAgICAgICAgICAgICAgICAgICAgICAgICAgICAgICAgICAgICAgICAgICAgICAgICAgICAgICAgICAgICAgICAgJiN4YTsgICAgICAgICAgICAgICAgICAgICAgICAgICAgICAgICAgICAgICAgICAgICAgICAgICAgICAgICAgICAgICAgICAgICAgICAgICAgICAgICAgICAgICAgICAgICAgICAgICAgJiN4YTsgICAgICAgICAgICAgICAgICAgICAgICAgICAgICAgICAgICAgICAgICAgICAgICAgICAgICAgICAgICAgICAgICAgICAgICAgICAgICAgICAgICAgICAgICAgICAgICAgICAgJiN4YTsgICAgICAgICAgICAgICAgICAgICAgICAgICAgICAgICAgICAgICAgICAgICAgICAgICAgICAgICAgICAgICAgICAgICAgICAgICAgICAgICAgICAgICAgICAgICAgICAgICAgJiN4YTsgICAgICAgICAgICAgICAgICAgICAgICAgICAgICAgICAgICAgICAgICAgICAgICAgICAgICAgICAgICAgICAgICAgICAgICAgICAgICAgICAgICAgICAgICAgICAgICAgICAgJiN4YTsgICAgICAgICAgICAgICAgICAgICAgICAgICAgICAgICAgICAgICAgICAgICAgICAgICAgICAgICAgICAgICAgICAgICAgICAgICAgICAgICAgICAgICAgICAgICAgICAgICAgJiN4YTsgICAgICAgICAgICAgICAgICAgICAgICAgICAgICAgICAgICAgICAgICAgICAgICAgICAgICAgICAgICAgICAgICAgICAgICAgICAgICAgICAgICAgICAgICAgICAgICAgICAgJiN4YTsgICAgICAgICAgICAgICAgICAgICAgICAgICAgICAgICAgICAgICAgICAgICAgICAgICAgICAgICAgICAgICAgICAgICAgICAmI3hhOzwvbWV0YWRhdGE+JiN4YTs8c3R5bGUgdHlwZT0idGV4dC9jc3MiPiYjeGE7CS5zdDB7ZmlsbDojRkZGRkZGO30mI3hhOwkuc3Qxe2ZpbGw6IzJDNTk2Nzt9JiN4YTs8L3N0eWxlPiYjeGE7PGc+JiN4YTsJPGc+JiN4YTsJCTxwYXRoIGQ9Ik0yLjY3LDQxLjVjLTEuMTksMC0yLjE3LTAuOTctMi4xNy0yLjE3VjIuNjdjMC0xLjE5LDAuOTctMi4xNywyLjE3LTIuMTdoMzYuNjdjMS4xOSwwLDIuMTcsMC45NywyLjE3LDIuMTcmIzEwOyYjOTsmIzk7JiM5O3YzNi42N2MwLDEuMTktMC45NywyLjE3LTIuMTcsMi4xN0gyLjY3eiIgY2xhc3M9InN0MCIvPiYjeGE7CQk8cGF0aCBkPSJNMzkuMzMsMUM0MC4yNSwxLDQxLDEuNzUsNDEsMi42N3YzNi42N2MwLDAuOTItMC43NSwxLjY3LTEuNjcsMS42N0gyLjY3QzEuNzUsNDEsMSw0MC4yNSwxLDM5LjMzVjIuNjcmIzEwOyYjOTsmIzk7JiM5O0MxLDEuNzUsMS43NSwxLDIuNjcsMUgzOS4zMyBNMzkuMzMsMEgyLjY3QzEuMiwwLDAsMS4yLDAsMi42N3YzNi42N0MwLDQwLjgsMS4yLDQyLDIuNjcsNDJoMzYuNjdDNDAuOCw0Miw0Miw0MC44LDQyLDM5LjMzVjIuNjcmIzEwOyYjOTsmIzk7JiM5O0M0MiwxLjIsNDAuOCwwLDM5LjMzLDBMMzkuMzMsMHoiIGNsYXNzPSJzdDAiLz4mI3hhOwk8L2c+JiN4YTsJPGc+JiN4YTsJCTxwYXRoIGQ9Ik0zOS4zMywxSDIuNjdDMS43NSwxLDEsMS43NSwxLDIuNjd2MzYuNjdDMSw0MC4yNSwxLjc1LDQxLDIuNjcsNDFoMzYuNjdjMC45MiwwLDEuNjctMC43NSwxLjY3LTEuNjdWMi42NyYjMTA7JiM5OyYjOTsmIzk7QzQxLDEuNzUsNDAuMjUsMSwzOS4zMywxeiBNMzkuNTIsMzkuMzNjMCwwLjEtMC4wOCwwLjE5LTAuMTksMC4xOUgyLjY3Yy0wLjEsMC0wLjE5LTAuMDgtMC4xOS0wLjE5VjIuNjcmIzEwOyYjOTsmIzk7JiM5O2MwLTAuMSwwLjA4LTAuMTksMC4xOS0wLjE5aDM2LjY3YzAuMSwwLDAuMTksMC4wOCwwLjE5LDAuMTlWMzkuMzN6IiBjbGFzcz0ic3QxIi8+JiN4YTsJCTxwYXRoIGQ9Ik02LjU2LDM1LjQ0aDI5LjA3di04Ljg5SDYuNTZWMzUuNDR6IE04LjA0LDI4LjA0aDI2LjExdjUuOTNIOC4wNFYyOC4wNHoiIGNsYXNzPSJzdDEiLz4mI3hhOwkJPGNpcmNsZSByPSIxLjExIiBjeT0iMzEiIGN4PSIzMC44MSIgY2xhc3M9InN0MSIvPiYjeGE7CQk8cGF0aCBkPSJNMTUuNDQsNi41Nkg2LjU2djguODloOC44OVY2LjU2eiBNMTMuOTYsMTMuOTZIOC4wNFY4LjA0aDUuOTNWMTMuOTZ6IiBjbGFzcz0ic3QxIi8+JiN4YTsJCTxwYXRoIGQ9Ik0yNS40NCw2LjU2aC04Ljg5djguODloOC44OVY2LjU2eiBNMjMuOTYsMTMuOTZoLTUuOTNWOC4wNGg1LjkzVjEzLjk2eiIgY2xhc3M9InN0MSIvPiYjeGE7CQk8cGF0aCBkPSJNMTUuNDQsMTYuNTZINi41NnY4Ljg5aDguODlWMTYuNTZ6IE0xMy45NiwyMy45Nkg4LjA0di01LjkzaDUuOTNWMjMuOTZ6IiBjbGFzcz0ic3QxIi8+JiN4YTsJCTxwYXRoIGQ9Ik0yNS40NCwxNi41NmgtOC44OXY4Ljg5aDguODlWMTYuNTZ6IE0yMy45NiwyMy45NmgtNS45M3YtNS45M2g1LjkzVjIzLjk2eiIgY2xhc3M9InN0MSIvPiYjeGE7CQk8cGF0aCBkPSJNMzUuNDQsNi41NmgtOC44OXY4Ljg5aDguODlWNi41NnogTTMzLjk2LDEzLjk2aC01LjkzVjguMDRoNS45M1YxMy45NnoiIGNsYXNzPSJzdDEiLz4mI3hhOwkJPHBhdGggZD0iTTM1LjQ0LDE2LjU2aC04Ljg5djguODloOC44OVYxNi41NnogTTMzLjk2LDIzLjk2aC01Ljkzdi01LjkzaDUuOTNWMjMuOTZ6IiBjbGFzcz0ic3QxIi8+JiN4YTsJPC9nPiYjeGE7PC9nPiYjeGE7PC9zdmc+;" parent="1" vertex="1">
          <mxGeometry x="175" y="355" width="42" height="42" as="geometry" />
        </mxCell>
        <mxCell id="AX1sSN8mTPLwoX_LTjLj-31" value="&lt;b&gt;OCI Object&lt;/b&gt;&lt;div&gt;&lt;b&gt;Storage&lt;/b&gt;&lt;div&gt;&lt;div style=&quot;&quot;&gt;&lt;br&gt;&lt;/div&gt;&lt;div style=&quot;&quot;&gt;Bucket: invoice-data&lt;/div&gt;&lt;/div&gt;&lt;/div&gt;&lt;div style=&quot;&quot;&gt;Storage Tier: Standard&lt;/div&gt;&lt;div style=&quot;&quot;&gt;Visibility: Private&lt;/div&gt;" style="rounded=1;whiteSpace=wrap;html=1;fillColor=#FCFBFA;strokeColor=#759C6C;fontColor=#161513;fontFamily=Oracle Sans;labelBackgroundColor=none;align=left;arcSize=7;verticalAlign=top;spacingLeft=10;" parent="1" vertex="1">
          <mxGeometry x="505.5" y="202.5" width="144.5" height="210" as="geometry" />
        </mxCell>
        <mxCell id="AX1sSN8mTPLwoX_LTjLj-33" value="" style="shape=image;verticalLabelPosition=bottom;labelBackgroundColor=default;verticalAlign=top;aspect=fixed;imageAspect=0;image=data:image/svg+xml,PHN2ZyB4bWxucz0iaHR0cDovL3d3dy53My5vcmcvMjAwMC9zdmciIHZpZXdCb3g9IjAgMCAzOS4zMSA0Mi44MyIgZGF0YS1uYW1lPSJMYXllciAxIiBpZD0iTGF5ZXJfMSI+PHRpdGxlPkludGVybmV0IEdhdGV3YXk8L3RpdGxlPjxtZXRhZGF0YT4mI3hhOyYjeGE7ICAgJiN4YTsgICAgICAmI3hhOyAgICAgICAgICYjeGE7ICAgICAgICAgICAgJiN4YTsgICAgICAgICAgICAgICBJbnRlcm5ldCBHYXRld2F5JiN4YTsgICAgICAgICAgICAmI3hhOyAgICAgICAgICYjeGE7ICAgICAgICAgJiN4YTsgICAgICAgICAgICAmI3hhOyAgICAgICAgICAgICAgIGljb24mI3hhOyAgICAgICAgICAgICAgIENvbm5lY3Rpdml0eSYjeGE7ICAgICAgICAgICAgICAgR2F0ZXdheSYjeGE7ICAgICAgICAgICAgICAgQUkmI3hhOyAgICAgICAgICAgICYjeGE7ICAgICAgICAgJiN4YTsgICAgICAgICAyMDIyLTEwLTIxVDEzOjQ1OjI5LTA1OjAwJiN4YTsgICAgICAgICB4bXAuaWlkOmE5OTVjZDdjLTIxODYtNGYzZi05YTI4LWU0ZTQzMTAwNzlmYiYjeGE7ICAgICAgICAgeG1wLmRpZDo3MDQ2ZWJlMC1hZmMyLTQ5NjMtODAyYy0yMTZlZWI2ZDE1ZmUmI3hhOyAgICAgICAgIHhtcC5kaWQ6NzA0NmViZTAtYWZjMi00OTYzLTgwMmMtMjE2ZWViNmQxNWZlJiN4YTsgICAgICAgICAmI3hhOyAgICAgICAgICAgICYjeGE7ICAgICAgICAgICAgICAgJiN4YTsgICAgICAgICAgICAgICAgICAmI3hhOyAgICAgICAgICAgICAgICAgICAgIHNhdmVkJiN4YTsgICAgICAgICAgICAgICAgICAgICB4bXAuaWlkOjcwNDZlYmUwLWFmYzItNDk2My04MDJjLTIxNmVlYjZkMTVmZSYjeGE7ICAgICAgICAgICAgICAgICAgICAgMjAyMS0wOC0zMVQxNTo0NDoxOS0wNTowMCYjeGE7ICAgICAgICAgICAgICAgICAgICAgQWRvYmUgQnJpZGdlIDIwMjEgKE1hY2ludG9zaCkmI3hhOyAgICAgICAgICAgICAgICAgICAgIC9tZXRhZGF0YSYjeGE7ICAgICAgICAgICAgICAgICAgJiN4YTsgICAgICAgICAgICAgICAmI3hhOyAgICAgICAgICAgICAgICYjeGE7ICAgICAgICAgICAgICAgICAgJiN4YTsgICAgICAgICAgICAgICAgICAgICBzYXZlZCYjeGE7ICAgICAgICAgICAgICAgICAgICAgeG1wLmlpZDphOTk1Y2Q3Yy0yMTg2LTRmM2YtOWEyOC1lNGU0MzEwMDc5ZmImI3hhOyAgICAgICAgICAgICAgICAgICAgIDIwMjItMTAtMjFUMTM6NDU6MjktMDU6MDAmI3hhOyAgICAgICAgICAgICAgICAgICAgIEFkb2JlIEJyaWRnZSAyMDIxIChNYWNpbnRvc2gpJiN4YTsgICAgICAgICAgICAgICAgICAgICAvbWV0YWRhdGEmI3hhOyAgICAgICAgICAgICAgICAgICYjeGE7ICAgICAgICAgICAgICAgJiN4YTsgICAgICAgICAgICAmI3hhOyAgICAgICAgICYjeGE7ICAgICAgJiN4YTsgICAmI3hhOyYjeGE7ICAgICAgICAgICAgICAgICAgICAgICAgICAgICAgICAgICAgICAgICAgICAgICAgICAgICAgICAgICAgICAgICAgICAgICAgICAgICAgICAgICAgICAgICAgICAgICAgICAgICYjeGE7ICAgICAgICAgICAgICAgICAgICAgICAgICAgICAgICAgICAgICAgICAgICAgICAgICAgICAgICAgICAgICAgICAgICAgICAgICAgICAgICAgICAgICAgICAgICAgICAgICAgICYjeGE7ICAgICAgICAgICAgICAgICAgICAgICAgICAgICAgICAgICAgICAgICAgICAgICAgICAgICAgICAgICAgICAgICAgICAgICAgICAgICAgICAgICAgICAgICAgICAgICAgICAgICYjeGE7ICAgICAgICAgICAgICAgICAgICAgICAgICAgICAgICAgICAgICAgICAgICAgICAgICAgICAgICAgICAgICAgICAgICAgICAgICAgICAgICAgICAgICAgICAgICAgICAgICAgICYjeGE7ICAgICAgICAgICAgICAgICAgICAgICAgICAgICAgICAgICAgICAgICAgICAgICAgICAgICAgICAgICAgICAgICAgICAgICAgICAgICAgICAgICAgICAgICAgICAgICAgICAgICYjeGE7ICAgICAgICAgICAgICAgICAgICAgICAgICAgICAgICAgICAgICAgICAgICAgICAgICAgICAgICAgICAgICAgICAgICAgICAgICAgICAgICAgICAgICAgICAgICAgICAgICAgICYjeGE7ICAgICAgICAgICAgICAgICAgICAgICAgICAgICAgICAgICAgICAgICAgICAgICAgICAgICAgICAgICAgICAgICAgICAgICAgICAgICAgICAgICAgICAgICAgICAgICAgICAgICYjeGE7ICAgICAgICAgICAgICAgICAgICAgICAgICAgICAgICAgICAgICAgICAgICAgICAgICAgICAgICAgICAgICAgICAgICAgICAgICAgICAgICAgICAgICAgICAgICAgICAgICAgICYjeGE7ICAgICAgICAgICAgICAgICAgICAgICAgICAgICAgICAgICAgICAgICAgICAgICAgICAgICAgICAgICAgICAgICAgICAgICAgICAgICAgICAgICAgICAgICAgICAgICAgICAgICYjeGE7ICAgICAgICAgICAgICAgICAgICAgICAgICAgICAgICAgICAgICAgICAgICAgICAgICAgICAgICAgICAgICAgICAgICAgICAgICAgICAgICAgICAgICAgICAgICAgICAgICAgICYjeGE7ICAgICAgICAgICAgICAgICAgICAgICAgICAgICAgICAgICAgICAgICAgICAgICAgICAgICAgICAgICAgICAgICAgICAgICAgICAgICAgICAgICAgICAgICAgICAgICAgICAgICYjeGE7ICAgICAgICAgICAgICAgICAgICAgICAgICAgICAgICAgICAgICAgICAgICAgICAgICAgICAgICAgICAgICAgICAgICAgICAgICAgICAgICAgICAgICAgICAgICAgICAgICAgICYjeGE7ICAgICAgICAgICAgICAgICAgICAgICAgICAgICAgICAgICAgICAgICAgICAgICAgICAgICAgICAgICAgICAgICAgICAgICAgICAgICAgICAgICAgICAgICAgICAgICAgICAgICYjeGE7ICAgICAgICAgICAgICAgICAgICAgICAgICAgICAgICAgICAgICAgICAgICAgICAgICAgICAgICAgICAgICAgICAgICAgICAgICAgICAgICAgICAgICAgICAgICAgICAgICAgICYjeGE7ICAgICAgICAgICAgICAgICAgICAgICAgICAgICAmI3hhOzwvbWV0YWRhdGE+JiN4YTs8cGF0aCBmaWxsPSIjZmZmIiBkPSJNMTUuNTUsMzgsMTcsMzYuNTljLS4zLS4wNS0uNi0uMTEtLjktLjE5bC0uMzktLjA5Yy0uMjctLjA3LS41My0uMTUtLjc5LS4yNGE1LDUsMCwwLDEtLjUxLS4xN2wtLjYzLS4yNS0uNjMtLjI3LS40MS0uMi0uOC0uNDMtLjI5LS4xOGMtLjMxLS4xOS0uNTgtLjM2LS44My0uNTRsLS40My0uMzEtLjQzLS4zMi0uNDEtLjM0LDAsMEExNS40OCwxNS40OCwwLDAsMSw4LDMxLjUzSDhsLS4zNi0uNDEtLjMyLS40M0w3LDMwLjI3Yy0uMTgtLjI2LS4zNS0uNTItLjUyLS43OWwtLjItLjM0Yy0uMTQtLjI0LS4yNy0uNDgtLjQtLjczcy0uMTYtLjMyLS4yMy0uNDctLjE5LS40Mi0uMjctLjYzLS4xOC0uNDItLjI1LS42M0E0LDQsMCwwLDEsNSwyNi4yM2MtLjExLS4zMi0uMTktLjU4LS4yNi0uODVMNC42NiwyNWMtLjA3LS4zLS4xNC0uNjEtLjE5LS45MmwtLjA4LS41YzAtLjE4LS4wNi0uMzYtLjA4LS41NWwwLS40OEguNVYyMC4yOUg0LjI4bDAtLjQ4YzAtLjE5LjA1LS4zNy4wOC0uNTVsLjA4LS41YzAtLjMxLjEyLS42Mi4yLS45M3MuMDYtLjI4LjA5LS4zOGMuMDctLjI3LjE1LS41My4yNC0uOHMuMTEtLjMzLjE2LS41LjE3LS40My4yNi0uNjQuMTctLjQxLjI3LS42Mi4xNi0uMzIuMjQtLjQ4LjI1LS40OC4zOS0uNzJsLjIxLS4zNXEuMjQtLjM5LjUxLS43OGwuMzEtLjQyYy4xLS4xNS4yMS0uMy4zMi0uNDRMOCwxMS4yOGwwLDBBMTQuNDQsMTQuNDQsMCwwLDEsOS41NSw5Ljc5aDBsLjQtLjM1LjQ1LS4zMy40LS4zYy4yNi0uMTguNTMtLjM1Ljc5LS41MWwuMzQtLjIxLjc0LS40LjQ3LS4yM3EuMzEtLjE1LjYzLS4yN2wuNjMtLjI2LjQ1LS4xNS44NS0uMjUuMzgtLjFMMTcsNi4yMywxNS41NSw0LjgxbDQuMS00LjEsNC4xMSw0LjFMMjIuMzMsNi4yM2wuOS4xOS4zOS4xYy4yNy4wNy41My4xNS43OS4yNGwuNTEuMTYuNjMuMjYuNjMuMjdjLjEzLjA2LjI2LjEyLjM4LjE5bC4xLjA1cS4zNi4xOC43Mi4zOWwuMjkuMTcuODQuNTUuNDQuMzIuNDIuMzEuNDEuMzQsMCwwYTE0LjI1LDE0LjI1LDAsMCwxLDEuNTEsMS41aDBsLjM2LjQyYy4xMS4xNC4yMi4yOS4zMi40NGwuMzEuNDJxLjI3LjM5LjUxLjc4bC4yMS4zNGMuMTQuMjQuMjcuNDkuMzkuNzNsLjI0LjQ4cS4xNS4zMS4yNy42M2MuMDkuMjEuMTguNDIuMjUuNjNzLjExLjMxLjE2LjQ3LjE4LjU2LjI1LjgzbC4wOS4zOGMuMDguMzEuMTQuNjIuMi45M2wuMDguNWE0Ljg2LDQuODYsMCwwLDEsLjA3LjU1bDAsLjQ4aDMuNzd2Mi4yNUgzNUwzNSwyM2E1LDUsMCwwLDEtLjA3LjU0bC0uMDguNTFjLS4wNi4zMS0uMTIuNjItLjIuOTJsLS4wOS4zOWMtLjA3LjI3LS4xNS41My0uMjQuNzlhNSw1LDAsMCwxLS4xNy41MWMtLjA3LjIxLS4xNi40Mi0uMjUuNjNzLS4xNy40Mi0uMjcuNjNsLS4yMi40NGMtLjE0LjI4LS4yNy41Mi0uNDEuNzZsLS4yMS4zNGMtLjE2LjI3LS4zMy41My0uNTEuNzlsLS4zLjQxLS4zMy40NS0uMzUuNDMsMCwwQTE1LjI3LDE1LjI3LDAsMCwxLDI5Ljc2LDMzaDBsLS40LjM1LS40Mi4zMS0uNDQuMzJjLS4yNi4xOC0uNTIuMzUtLjc5LjUxbC0uMzMuMjFjLS4yNS4xNC0uNDkuMjctLjc0LjM5bC0uMDksMC0uMzguMTktLjYzLjI3LS42My4yNS0uNTEuMTdjLS4yNi4wOS0uNTIuMTctLjc5LjI0bC0uMzkuMDljLS4zLjA4LS42LjE0LS45LjE5TDIzLjc2LDM4bC00LjExLDQuMVptNS4yMy0uMTlMMjIsMzYuNjVsLS4xNCwwYTUuMTcsNS4xNywwLDAsMS0uNTUuMDdsLS40OCwwWm0tMi4yNSwwdi0xbC0uNDgsMGE0Ljg2LDQuODYsMCwwLDEtLjU1LS4wN2wtLjE0LDBaTTIxLjI2LDYuMDdsLjU1LjA4LjE0LDBMMjAuNzgsNVY2Wm0tMy45LjEuMTQsMCwuNTUtLjA4TDE4LjUzLDZWNVoiLz48cGF0aCBmaWxsPSIjZmZmIiBkPSJNMTkuNjUsMS40MWwxLjUxLDEuNTEuMDUuMDUsMS44NCwxLjg0LS44OC44OC0xLTEtLjkzLS45NFY2LjUybC45My4wN3YwbC43Mi4xMS4zLDBjLjMsMCwuNTkuMTIuODkuMTlsLjM3LjA5Ljc3LjIzLjQ5LjE2LjYxLjI1TDI2LDcuOWwuNDYuMjNjLjI0LjEyLjQ3LjI0LjcuMzhsLjMzLjJjLjI2LjE2LjUyLjMyLjc3LjVsLjIzLjE4Yy4yLjE0LjQuMjguNTkuNDNoMGExNS4yNSwxNS4yNSwwLDAsMSwyLjIsMi4yaDBjLjE1LjE5LjI5LjM5LjQzLjU4bC4xOC4yNGMuMTguMjUuMzQuNTEuNS43N3MuMTMuMjEuMi4zMy4yNi40Ni4zOC43LjE1LjMxLjIzLjQ2LjE4LjQuMjYuNjEuMTcuNC4yNC42MS4xMS4zMy4xNy40OS4xNi41MS4yMy43N2wuMDkuMzdjLjA3LjMuMTMuNTkuMTkuODksMCwuMSwwLC4yLDAsLjNzLjA4LjQ4LjExLjcyaDBxMCwuNDcuMDYuOTNoMy43N1YyMkgzNC41NHEwLC40Ny0uMDYuOTNoMGMwLC4yNC0uMDcuNDgtLjExLjcyczAsLjIsMCwuM2MtLjA2LjMtLjEyLjU5LS4xOS44OWwtLjA5LjM3Yy0uMDcuMjYtLjE1LjUxLS4yMy43N3MtLjExLjMyLS4xNy40OS0uMTYuNDEtLjI0LjYxLS4xNy40MS0uMjYuNjFsLS4yMy40Ni0uMzguNy0uMi4zM2MtLjE2LjI2LS4zMi41MS0uNS43NmwtLjE4LjI1Yy0uMTQuMTktLjI4LjM5LS40My41OGgwQTE1LjI1LDE1LjI1LDAsMCwxLDI5LDMzaDBjLS4xOS4xNS0uMzkuMjktLjU5LjQzbC0uMjMuMThjLS4yNS4xOC0uNTEuMzQtLjc3LjVsLS4zMy4yYy0uMjMuMTMtLjQ2LjI2LS43LjM4bC0uNDYuMjMtLjYxLjI2LS42MS4yNC0uNDkuMTctLjc3LjIzLS4zNy4wOS0uODkuMTktLjMsMC0uNzIuMTF2MHEtLjQ3LDAtLjkzLjA2VjM5bC45My0uOTMsMS0xLC44OC44OC0xLjg0LDEuODQtLjY4LjY3LS44OC44OC0uODgtLjg4LS42Ny0uNjdMMTYuMjYsMzhsLjg4LS44OCwxLDFMMTksMzlWMzYuM3EtLjQ3LDAtLjkzLS4wNnYwbC0uNzItLjExLS4zLDAtLjg5LS4xOS0uMzctLjA5LS43Ny0uMjMtLjQ5LS4xN2MtLjIxLS4wNy0uNDEtLjE2LS42MS0uMjRsLS42MS0uMjYtLjQ2LS4yM2MtLjI0LS4xMi0uNDctLjI1LS43LS4zOGwtLjMzLS4yYy0uMjYtLjE2LS41Mi0uMzItLjc3LS41bC0uMjMtLjE4Yy0uMi0uMTQtLjQtLjI4LS41OS0uNDNoMGExNS4yNSwxNS4yNSwwLDAsMS0yLjItMi4yaDBjLS4xNS0uMTktLjI5LS4zOS0uNDMtLjU5cy0uMTItLjE1LS4xOC0uMjRjLS4xOC0uMjUtLjM0LS41LS41LS43Ni0uMDctLjExLS4xNC0uMjItLjItLjMzcy0uMjYtLjQ3LS4zOC0uN2wtLjIzLS40NmMtLjA5LS4yLS4xOC0uNDEtLjI2LS42MXMtLjE3LS40MS0uMjUtLjYxLS4xMS0uMzMtLjE2LS40OS0uMTYtLjUxLS4yMy0uNzdsLS4wOS0uMzdjLS4wNy0uMy0uMTMtLjU5LS4xOS0uOSwwLS4wOSwwLS4xOSwwLS4yOXMtLjA4LS40OC0uMTEtLjcyaDBjMC0uMzEsMC0uNjItLjA3LS45M0gxVjIwLjc5SDQuNzZjMC0uMzEsMC0uNjIuMDctLjkzaDBjMC0uMjQuMDctLjQ4LjExLS43MnMwLS4yLDAtLjNjLjA2LS4zLjEyLS41OS4xOS0uODlsLjA5LS4zN2MuMDctLjI2LjE1LS41Mi4yMy0uNzdsLjE2LS40OWMuMDgtLjIxLjE2LS40MS4yNS0uNjFzLjE3LS40MS4yNi0uNjEuMTUtLjMxLjIzLS40Ni4yNC0uNDcuMzgtLjdBMy43OSwzLjc5LDAsMCwxLDcsMTMuNmMuMTYtLjI1LjMyLS41MS41LS43NmwuMTgtLjI0Yy4xNC0uMTkuMjgtLjM5LjQzLS41OGgwYTE1LjI1LDE1LjI1LDAsMCwxLDIuMi0yLjJoMGwuNTgtLjQzLjI0LS4xOGMuMjUtLjE4LjUxLS4zNC43Ny0uNWEzLjYyLDMuNjIsMCwwLDEsLjMzLS4yYy4yMy0uMTMuNDYtLjI2LjctLjM4bC40Ni0uMjNMMTQsNy42NGwuNjEtLjI1LjQ5LS4xNkwxNS44Miw3bC4zNy0uMDljLjMtLjA3LjU5LS4xNC44OS0uMTlsLjMsMCwuNzItLjExdjBMMTksNi41MlYzLjc5bC0uOTMuOTQtMSwxLS44OC0uODhMMTguMSwzbDAtLjA1LDEuNS0xLjUxbTAtMS40MUwxOSwuNzFsLTEuNSwxLjUtLjA2LDBMMTUuNTUsNC4xbC0uNy43MS43LjcxLjQyLjQxaDBsLS4xMSwwTDE1LjU2LDZsLS44Mi4yNS0uMDUsMC0uNDcuMTUtLjY2LjI2TDEyLjkyLDdsLS40Mi4yMS0uMDcsMGMtLjI2LjEzLS41MS4yNi0uNzUuNGwtLjI2LjE2LS4xLjA2Yy0uMjcuMTctLjU0LjM0LS44MS41M2ExLjA5LDEuMDksMCwwLDAtLjE3LjEzbC0uMDkuMDYtLjE2LjEyTDkuNjMsOWwtLjg1LjY5LDAsMGMtLjI4LjI2LS41NS41Mi0uODEuOGwwLDAtLjcxLjg0LS4zNC40NUw2LjgyLDEybC0uMDYuMDlhMS4wOSwxLjA5LDAsMCwwLS4xMy4xN2MtLjE5LjI3LS4zNi41NC0uNTMuODFsMCwuMDktLjE3LjI3Yy0uMTQuMjQtLjI3LjQ5LS40Ljc1cy0uMTcuMzMtLjI1LjQ5LS4xOS40My0uMjguNjQtLjE3LjQ0LS4yNS42Ni0uMTEuMzEtLjE2LjQ2bDAsLjA2Yy0uMDkuMjctLjE3LjU0LS4yNS44MiwwLC4xLDAsLjItLjA3LjNsMCwuMWMtLjA4LjMxLS4xNS42My0uMiwxbDAsLjIxLDAsLjEsMCwuMjFjMCwuMTktLjA2LjM3LS4wOC41N3YwSDBWMjNIMy44MXYwYzAsLjE5LjA1LjM4LjA4LjU3bDAsLjJMNCwyNGwwLC4yYy4wNS4zMy4xMi42NC4yLDFsMCwuMWMwLC4xLDAsLjIuMDcuMy4wOC4yOC4xNi41NS4yNS44MmwwLDAsLjE1LjQ4Yy4wOS4yMi4xNy40NC4yNi42NXMuMTguNDQuMjguNjVsLjIzLjQ1Yy4xNS4yOS4yOC41NS40Mi43OWwuMTYuMjYuMDYuMWMuMTcuMjcuMzQuNTQuNTMuODFsLjEzLjE4LjA2LjA4LjEyLjE2Yy4xMS4xNi4yMi4zMS4zNC40NmwuNy44NSwwLDBxLjM5LjQyLjgxLjgxbDAsMCwuODMuNy40NS4zNC4xNy4xMi4wOS4wNy4xNi4xMmMuMjcuMTkuNTUuMzYuODIuNTNsLjA5LjA1LjI2LjE2Yy4yNS4xNS41LjI4Ljc2LjQxbC4wNSwwLC40NC4yMi42NS4yOC42NS4yNi40Ny4xNi4wNSwwYy4yNy4wOS41NC4xNy44Mi4yNGwuMy4wOC4xLDBoMGwtLjQyLjQyLS43LjcxLjcuNzEsMS44NCwxLjg0LjY4LjY3Ljg4Ljg4LjcuNzEuNzEtLjcxLjg4LS44OC42OC0uNjcsMS44My0xLjg0LjcxLS43MS0uNzEtLjcxLS40Mi0uNDJoMGwuMSwwLC4zLS4wOGMuMjgtLjA3LjU1LS4xNS44Mi0uMjRsLjUxLS4xNy42Ny0uMjdjLjIxLS4wOC40My0uMTguNjQtLjI4cy4yOS0uMTQuNDMtLjIxbC4wNiwwYy4yNS0uMTMuNTEtLjI2Ljc1LS40MUwyNy45LDM1LDI4LDM1Yy4yNy0uMTcuNTQtLjM0LjgxLS41M2wuMTgtLjEzLjA4LS4wNi4xNi0uMTIuNDYtLjM0Ljg0LS42OSwwLDBjLjI3LS4yNi41NC0uNTIuOC0uOGwwLDAsLjcyLS44NWMuMTItLjE1LjIzLS4zMS4zNS0uNDdsLjExLS4xNS4wNi0uMDguMTMtLjE4Yy4xOS0uMjcuMzYtLjU0LjUzLS44MWwwLS4wOS4xNi0uMjZjLjE1LS4yNS4yOC0uNTEuNDEtLjc2cy4xNy0uMzQuMjQtLjQ5LjItLjQzLjI4LS42NS4xOC0uNDMuMjYtLjY1LjExLS4zMi4xNi0uNDhsMC0uMDVxLjE0LS4zOS4yNC0uODFjMC0uMSwwLS4yLjA4LS4zbDAtLjFjLjA4LS4zMi4xNS0uNjMuMi0uOTVsMC0uMjIsMC0uMSwwLS4yYzAtLjE5LjA2LS4zOC4wOC0uNTd2MGgzLjgxVjE5Ljc5SDM1LjQ5djBjMC0uMi0uMDUtLjM4LS4wOC0uNTdsMC0uMiwwLS4xLDAtLjIyYzAtLjMyLS4xMi0uNjMtLjItMWwwLS4xMWMwLS4xLDAtLjE5LS4wNy0uMjktLjA3LS4yOC0uMTUtLjU1LS4yNC0uODJsMC0uMDVjLS4wNS0uMTYtLjEtLjMxLS4xNi0uNDdzLS4xNy0uNDQtLjI2LS42NS0uMTgtLjQ0LS4yOC0uNjUtLjE0LS4zLS4yMi0uNDVjLS4xNS0uMy0uMjgtLjU1LS40Mi0uNzlsLS4xNi0uMjYtLjA2LS4xYy0uMTctLjI3LS4zNC0uNTQtLjUzLS44MWwtLjEzLS4xN0wzMi40OSwxMmwtLjEyLS4xNmMtLjExLS4xNi0uMjItLjMxLS4zNC0uNDZsLS43LS44NiwwLDBjLS4yNi0uMjgtLjUzLS41NS0uOC0uOGwwLDBMMjkuNjgsOWwtLjQ2LS4zNC0uMTYtLjEyTDI5LDguNTJsLS4xOC0uMTNjLS4yNy0uMTktLjU0LS4zNi0uODItLjUzbC0uMDgtLjA1LS4yNy0uMTdjLS4yNC0uMTQtLjUtLjI3LS43NS0uNGwtLjA2LDBMMjYuMzksN2wtLjY1LS4yOC0uNjUtLjI1LS40Ny0uMTYtLjA1LDBMMjMuNzUsNiwyMy40NSw2bC0uMSwwaDBsLjQyLS40MS43MS0uNzEtLjcxLS43MUwyMS45MiwyLjI2bC0uMDUsMEwyMC4zNi43MSwxOS42NSwwWiIvPjxwYXRoIGZpbGw9IiMyYzU5NjciIGQ9Ik0yMS4yMSwzNXYxLjI2QTE1LDE1LDAsMCwwLDM0LjUsMjNIMzMuMjVBMTMuNzEsMTMuNzEsMCwwLDEsMjEuMjEsMzVaIi8+PHBhdGggZmlsbD0iIzJjNTk2NyIgZD0iTTYuMDYsMjNINC44MUExNSwxNSwwLDAsMCwxOC4xLDM2LjI2VjM1QTEzLjcxLDEzLjcxLDAsMCwxLDYuMDYsMjNaIi8+PHBhdGggZmlsbD0iIzJjNTk2NyIgZD0iTTMzLjI1LDE5Ljg2SDM0LjVBMTUsMTUsMCwwLDAsMjEuMjEsNi41N1Y3LjgyQTEzLjczLDEzLjczLDAsMCwxLDMzLjI1LDE5Ljg2WiIvPjxwYXRoIGZpbGw9IiMyYzU5NjciIGQ9Ik0xOC4xLDcuODJWNi41N0ExNSwxNSwwLDAsMCw0LjgxLDE5Ljg2SDYuMDZBMTMuNzMsMTMuNzMsMCwwLDEsMTguMSw3LjgyWiIvPjxwb2x5Z29uIGZpbGw9IiMyYzU5NjciIHBvaW50cz0iMjAuMjggMy43OSAyMS4yMSA0LjczIDIyLjE3IDUuNjkgMjMuMDUgNC44MSAyMS4yMSAyLjk3IDIxLjE2IDIuOTIgMTkuNjUgMS40MSAxOC4xNSAyLjkyIDE4LjEgMi45NyAxNi4yNiA0LjgxIDE3LjE0IDUuNjkgMTguMSA0LjczIDE5LjAzIDMuNzkgMTkuMDMgMzkuMDMgMTguMSAzOC4xIDE3LjE0IDM3LjE0IDE2LjI2IDM4LjAyIDE4LjEgMzkuODYgMTguNzcgNDAuNTMgMTkuNjUgNDEuNDEgMjAuNTMgNDAuNTMgMjEuMjEgMzkuODYgMjMuMDUgMzguMDIgMjIuMTcgMzcuMTQgMjEuMjEgMzguMSAyMC4yOCAzOS4wMyAyMC4yOCAzLjc5Ii8+PHBvbHlnb24gZmlsbD0iIzJjNTk2NyIgcG9pbnRzPSIyMi43MSAyMC43OSAyMy42NCAxOS44NiAyNC42IDE4LjkgMjMuNzIgMTguMDIgMjEuODggMTkuODYgMjAuMzMgMjEuNDEgMjEuODggMjIuOTcgMjMuNzIgMjQuODEgMjQuNiAyMy45MyAyMy42NCAyMi45NyAyMi43MSAyMi4wNCAzOC4zMSAyMi4wNCAzOC4zMSAyMC43OSAyMi43MSAyMC43OSIvPjxwb2x5Z29uIGZpbGw9IiMyYzU5NjciIHBvaW50cz0iMTYuNiAyMi4wNCAxNS42NyAyMi45NyAxNC43MSAyMy45MyAxNS41OSAyNC44MSAxOC4xIDIyLjI5IDE4Ljk4IDIxLjQxIDE4LjEgMjAuNTQgMTUuNTkgMTguMDIgMTQuNzEgMTguOSAxNS42NyAxOS44NiAxNi42IDIwLjc5IDEgMjAuNzkgMSAyMi4wNCAxNi42IDIyLjA0Ii8+PC9zdmc+;" parent="1" vertex="1">
          <mxGeometry x="378.5" y="277.5" width="54.42" height="60" as="geometry" />
        </mxCell>
        <mxCell id="AX1sSN8mTPLwoX_LTjLj-37" value="&lt;b&gt;Autonomous Data Warehouse&lt;/b&gt;&lt;div&gt;&lt;div style=&quot;&quot;&gt;&lt;br&gt;&lt;/div&gt;&lt;div style=&quot;&quot;&gt;Database version: 23ai&lt;/div&gt;&lt;div style=&quot;&quot;&gt;ECPUs: 16 (auto scaling)&lt;/div&gt;&lt;/div&gt;&lt;div style=&quot;&quot;&gt;Storage: 1 TB&lt;/div&gt;&lt;div style=&quot;&quot;&gt;Access: Allow secure access from anywhere&lt;/div&gt;&lt;div style=&quot;&quot;&gt;Mutual TLS authentication: Required&lt;/div&gt;" style="rounded=1;whiteSpace=wrap;html=1;fillColor=#FCFBFA;strokeColor=#759C6C;fontColor=#161513;fontFamily=Oracle Sans;labelBackgroundColor=none;align=left;arcSize=7;verticalAlign=top;spacingLeft=10;spacingRight=5;" parent="1" vertex="1">
          <mxGeometry x="695.25" y="202.5" width="160" height="210" as="geometry" />
        </mxCell>
        <mxCell id="AX1sSN8mTPLwoX_LTjLj-39" value="&lt;b&gt;Oracle Analytics&lt;/b&gt;&lt;div&gt;&lt;b&gt;Cloud&lt;/b&gt;&lt;div&gt;&lt;div style=&quot;&quot;&gt;&lt;br&gt;&lt;/div&gt;&lt;/div&gt;&lt;div style=&quot;&quot;&gt;Capacity: 2 OCPUs&lt;/div&gt;&lt;div style=&quot;&quot;&gt;Access Type: Public&lt;/div&gt;&lt;/div&gt;" style="rounded=1;whiteSpace=wrap;html=1;fillColor=#FCFBFA;strokeColor=#759C6C;fontColor=#161513;fontFamily=Oracle Sans;labelBackgroundColor=none;align=left;arcSize=7;verticalAlign=top;spacingLeft=10;" parent="1" vertex="1">
          <mxGeometry x="900" y="202.5" width="145" height="210" as="geometry" />
        </mxCell>
        <mxCell id="AX1sSN8mTPLwoX_LTjLj-40" value="" style="shape=image;verticalLabelPosition=bottom;labelBackgroundColor=default;verticalAlign=top;aspect=fixed;imageAspect=0;image=data:image/svg+xml,PHN2ZyB4bWxuczp4bGluaz0iaHR0cDovL3d3dy53My5vcmcvMTk5OS94bGluayIgeG1sbnM9Imh0dHA6Ly93d3cudzMub3JnLzIwMDAvc3ZnIiB4bWw6c3BhY2U9InByZXNlcnZlIiBzdHlsZT0iZW5hYmxlLWJhY2tncm91bmQ6bmV3IDAgMCA0MiA0MjsiIHZpZXdCb3g9IjAgMCA0MiA0MiIgeT0iMHB4IiB4PSIwcHgiIGlkPSJMYXllcl8xIiB2ZXJzaW9uPSIxLjEiPiYjeGE7PG1ldGFkYXRhPiYjeGE7JiN4YTsgICAmI3hhOyAgICAgICYjeGE7ICAgICAgICAgMjAyMi0xMC0yMVQxMzo0NTozMC0wNTowMCYjeGE7ICAgICAgICAgeG1wLmlpZDo2Mjk5Y2E2OC1lMmM1LTRjZGEtYTkwNy1iM2VhNTA4MmI3OGImI3hhOyAgICAgICAgIHhtcC5kaWQ6NWNhZDUyMzUtYjgyYS00YjZhLTgzN2YtZGQ2YmRiZGM5OWIxJiN4YTsgICAgICAgICB4bXAuZGlkOjVjYWQ1MjM1LWI4MmEtNGI2YS04MzdmLWRkNmJkYmRjOTliMSYjeGE7ICAgICAgICAgJiN4YTsgICAgICAgICAgICAmI3hhOyAgICAgICAgICAgICAgICYjeGE7ICAgICAgICAgICAgICAgICAgJiN4YTsgICAgICAgICAgICAgICAgICAgICBzYXZlZCYjeGE7ICAgICAgICAgICAgICAgICAgICAgeG1wLmlpZDo1Y2FkNTIzNS1iODJhLTRiNmEtODM3Zi1kZDZiZGJkYzk5YjEmI3hhOyAgICAgICAgICAgICAgICAgICAgIDIwMjEtMDQtMjdUMTM6NDE6MzAtMDU6MDAmI3hhOyAgICAgICAgICAgICAgICAgICAgIEFkb2JlIEJyaWRnZSAyMDIxIChNYWNpbnRvc2gpJiN4YTsgICAgICAgICAgICAgICAgICAgICAvbWV0YWRhdGEmI3hhOyAgICAgICAgICAgICAgICAgICYjeGE7ICAgICAgICAgICAgICAgJiN4YTsgICAgICAgICAgICAgICAmI3hhOyAgICAgICAgICAgICAgICAgICYjeGE7ICAgICAgICAgICAgICAgICAgICAgc2F2ZWQmI3hhOyAgICAgICAgICAgICAgICAgICAgIHhtcC5paWQ6NjI5OWNhNjgtZTJjNS00Y2RhLWE5MDctYjNlYTUwODJiNzhiJiN4YTsgICAgICAgICAgICAgICAgICAgICAyMDIyLTEwLTIxVDEzOjQ1OjMwLTA1OjAwJiN4YTsgICAgICAgICAgICAgICAgICAgICBBZG9iZSBCcmlkZ2UgMjAyMSAoTWFjaW50b3NoKSYjeGE7ICAgICAgICAgICAgICAgICAgICAgL21ldGFkYXRhJiN4YTsgICAgICAgICAgICAgICAgICAmI3hhOyAgICAgICAgICAgICAgICYjeGE7ICAgICAgICAgICAgJiN4YTsgICAgICAgICAmI3hhOyAgICAgICAgIFRydWUmI3hhOyAgICAgICAgICYjeGE7ICAgICAgICAgICAgJiN4YTsgICAgICAgICAgICAgICBTdG9yYWdlJiN4YTsgICAgICAgICAgICAgICBCdWNrZXRzJiN4YTsgICAgICAgICAgICAgICBPYmplY3QmI3hhOyAgICAgICAgICAgICAgIGljb24mI3hhOyAgICAgICAgICAgICYjeGE7ICAgICAgICAgJiN4YTsgICAgICAgICAmI3hhOyAgICAgICAgICAgICYjeGE7ICAgICAgICAgICAgICAgT3JhY2xlIEFsbCBSaWdodHMgUmVzZXJ2ZWQmI3hhOyAgICAgICAgICAgICYjeGE7ICAgICAgICAgJiN4YTsgICAgICAgICAmI3hhOyAgICAgICAgICAgICYjeGE7ICAgICAgICAgICAgICAgU3RvcmFnZSYjeGE7ICAgICAgICAgICAgICAgT2JqZWN0JiN4YTsgICAgICAgICAgICAgICBpY29uJiN4YTsgICAgICAgICAgICAmI3hhOyAgICAgICAgICYjeGE7ICAgICAgJiN4YTsgICAmI3hhOyYjeGE7ICAgICAgICAgICAgICAgICAgICAgICAgICAgICAgICAgICAgICAgICAgICAgICAgICAgICAgICAgICAgICAgICAgICAgICAgICAgICAgICAgICAgICAgICAgICAgICAgICAgICYjeGE7ICAgICAgICAgICAgICAgICAgICAgICAgICAgICAgICAgICAgICAgICAgICAgICAgICAgICAgICAgICAgICAgICAgICAgICAgICAgICAgICAgICAgICAgICAgICAgICAgICAgICYjeGE7ICAgICAgICAgICAgICAgICAgICAgICAgICAgICAgICAgICAgICAgICAgICAgICAgICAgICAgICAgICAgICAgICAgICAgICAgICAgICAgICAgICAgICAgICAgICAgICAgICAgICYjeGE7ICAgICAgICAgICAgICAgICAgICAgICAgICAgICAgICAgICAgICAgICAgICAgICAgICAgICAgICAgICAgICAgICAgICAgICAgICAgICAgICAgICAgICAgICAgICAgICAgICAgICYjeGE7ICAgICAgICAgICAgICAgICAgICAgICAgICAgICAgICAgICAgICAgICAgICAgICAgICAgICAgICAgICAgICAgICAgICAgICAgICAgICAgICAgICAgICAgICAgICAgICAgICAgICYjeGE7ICAgICAgICAgICAgICAgICAgICAgICAgICAgICAgICAgICAgICAgICAgICAgICAgICAgICAgICAgICAgICAgICAgICAgICAgICAgICAgICAgICAgICAgICAgICAgICAgICAgICYjeGE7ICAgICAgICAgICAgICAgICAgICAgICAgICAgICAgICAgICAgICAgICAgICAgICAgICAgICAgICAgICAgICAgICAgICAgICAgICAgICAgICAgICAgICAgICAgICAgICAgICAgICYjeGE7ICAgICAgICAgICAgICAgICAgICAgICAgICAgICAgICAgICAgICAgICAgICAgICAgICAgICAgICAgICAgICAgICAgICAgICAgICAgICAgICAgICAgICAgICAgICAgICAgICAgICYjeGE7ICAgICAgICAgICAgICAgICAgICAgICAgICAgICAgICAgICAgICYjeGE7PC9tZXRhZGF0YT4mI3hhOzxzdHlsZSB0eXBlPSJ0ZXh0L2NzcyI+JiN4YTsJLnN0MHtmaWxsOiNGRkZGRkY7fSYjeGE7CS5zdDF7ZmlsbDojMkM1OTY3O30mI3hhOzwvc3R5bGU+JiN4YTs8Zz4mI3hhOwk8Zz4mI3hhOwkJPGc+JiN4YTsJCQk8cGF0aCBkPSJNMi42Nyw0MS41Yy0xLjE5LDAtMi4xNy0wLjk3LTIuMTctMi4xN1YyLjY3YzAtMS4xOSwwLjk3LTIuMTcsMi4xNy0yLjE3aDM2LjY3YzEuMTksMCwyLjE3LDAuOTcsMi4xNywyLjE3JiMxMDsmIzk7JiM5OyYjOTsmIzk7djM2LjY3YzAsMS4yLTAuOTcsMi4xNy0yLjE3LDIuMTdIMi42N3oiIGNsYXNzPSJzdDAiLz4mI3hhOwkJCTxwYXRoIGQ9Ik0zOS4zMywxQzQwLjI1LDEsNDEsMS43NSw0MSwyLjY3djIuMzJ2NC44OXYyOS40NmMwLDAuOTItMC43NSwxLjY3LTEuNjcsMS42N0gyLjY3QzEuNzUsNDEsMSw0MC4yNSwxLDM5LjMzJiMxMDsmIzk7JiM5OyYjOTsmIzk7VjkuODdWNC45OVYyLjY3QzEsMS43NSwxLjc1LDEsMi42NywxSDM5LjMzIE0zOS4zMywwSDIuNjdDMS4yLDAsMCwxLjIsMCwyLjY3djIuMzJ2NC44OXYyOS40NkMwLDQwLjgsMS4yLDQyLDIuNjcsNDJoMzYuNjcmIzEwOyYjOTsmIzk7JiM5OyYjOTtDNDAuOCw0Miw0Miw0MC44LDQyLDM5LjMzVjkuODdWNC45OVYyLjY3QzQyLDEuMiw0MC44LDAsMzkuMzMsMEwzOS4zMywweiIgY2xhc3M9InN0MCIvPiYjeGE7CQk8L2c+JiN4YTsJCTxnPiYjeGE7CQkJPHBhdGggZD0iTTI3LjI1LDI3Ljg1bDEuODgtMy4yM2wtMS44NS0zLjIzaC0zLjczbC0xLjg4LDMuMjNsMS44NSwzLjIzSDI3LjI1eiBNMjQuNCwyMi44OGgyLjAybDEsMS43NGwtMS4wMiwxLjc1JiMxMDsmIzk7JiM5OyYjOTsmIzk7aC0yLjAybC0xLTEuNzRMMjQuNCwyMi44OHoiIGNsYXNzPSJzdDEiLz4mI3hhOwkJCTxwYXRoIGQ9Ik0xNy44NCwzMS45NWMwLDEuNzUsMS40MywzLjE4LDMuMTgsMy4xOGMwLjg3LDAsMS42OC0wLjM0LDIuMjgtMC45NWMwLjU5LTAuNiwwLjkxLTEuNCwwLjktMi4yMiYjMTA7JiM5OyYjOTsmIzk7JiM5O2MwLTEuNzUtMS40My0zLjE4LTMuMTgtMy4xOEMxOS4yNywyOC43NywxNy44NCwzMC4yLDE3Ljg0LDMxLjk1eiBNMjEuMDIsMzAuMjZjMC45NCwwLDEuNywwLjc2LDEuNywxLjcxJiMxMDsmIzk7JiM5OyYjOTsmIzk7YzAuMDEsMC40NC0wLjE2LDAuODYtMC40NywxLjE3Yy0wLjMyLDAuMzMtMC43NiwwLjUxLTEuMjIsMC41MWMtMC45NCwwLTEuNy0wLjc2LTEuNy0xLjdDMTkuMzIsMzEuMDIsMjAuMDgsMzAuMjYsMjEuMDIsMzAuMjZ6IiBjbGFzcz0ic3QxIi8+JiN4YTsJCQk8cGF0aCBkPSJNMTYuODIsMjAuNzdsLTMuNzIsNi43Nmg3LjQ0TDE2LjgyLDIwLjc3eiBNMTYuODIsMjMuODVsMS4yMSwyLjIxaC0yLjQzTDE2LjgyLDIzLjg1eiIgY2xhc3M9InN0MSIvPiYjeGE7CQkJPHBhdGggZD0iTTguMTMsMTcuMjlsMy4zMSwyMC42MmgxOS4zMmwzLjA5LTIwLjYyaC0zLjE2di0yLjg5YzAtMS4yLTAuMzctMi4xNS0xLjEtMi44MiYjMTA7JiM5OyYjOTsmIzk7JiM5O2MtMS4xMS0xLjAxLTIuNjUtMC45Ny0yLjk0LTAuOTVjLTAuMDcsMC0wLjI4LDAtMC41OSwwdi0wLjQ5YzAtMC41MS0wLjQyLTAuOTMtMC45My0wLjkzaC03Ljk2Yy0wLjUxLDAtMC45MywwLjQyLTAuOTMsMC45MyYjMTA7JiM5OyYjOTsmIzk7JiM5O3YwLjQ4Yy0wLjUsMC0wLjk1LDAuMDEtMS4zMywwLjAyYy0xLjE2LDAuMDItMi4wNywwLjM5LTIuNjksMS4xMWMtMC45LDEuMDMtMC44MywyLjQyLTAuOCwyLjcxdjIuODRIOC4xM3ogTTI5LjQ4LDM2LjQySDEyLjcmIzEwOyYjOTsmIzk7JiM5OyYjOTtMOS44NiwxOC43N2gyMi4yNkwyOS40OCwzNi40MnogTTEyLjksMTQuMzJjMC0wLjAxLTAuMS0xLDAuNDUtMS42M2MwLjMzLTAuMzgsMC44Ny0wLjU4LDEuNTktMC41OWMwLjM3LTAuMDEsMC44MS0wLjAxLDEuMy0wLjAyJiMxMDsmIzk7JiM5OyYjOTsmIzk7djAuNjNjMCwwLjUxLDAuNDIsMC45MywwLjkzLDAuOTNoNy45NmMwLjUxLDAsMC45My0wLjQyLDAuOTMtMC45M1YxMi4xYzAuMzcsMCwwLjU5LDAsMC42MSwwbDAuMDcsMGMwLjAxLDAsMS4xNS0wLjA4LDEuODYsMC41NyYjMTA7JiM5OyYjOTsmIzk7JiM5O2MwLjQxLDAuMzgsMC42MSwwLjk1LDAuNjEsMS43MnYyLjg5SDEyLjl2LTIuODdMMTIuOSwxNC4zMnoiIGNsYXNzPSJzdDEiLz4mI3hhOwkJCTxwYXRoIGQ9Ik0xLDM5LjMzQzEsNDAuMjUsMS43NSw0MSwyLjY3LDQxaDM2LjY3YzAuOTIsMCwxLjY3LTAuNzUsMS42Ny0xLjY3VjQuOTlIMVYzOS4zM3ogTTIuNDgsNi40N2gzNy4wNHYzMi44NyYjMTA7JiM5OyYjOTsmIzk7JiM5O2MwLDAuMS0wLjA4LDAuMTktMC4xOSwwLjE5SDIuNjdjLTAuMSwwLTAuMTktMC4wOC0wLjE5LTAuMTlWNi40N3oiIGNsYXNzPSJzdDEiLz4mI3hhOwkJCTxwYXRoIGQ9Ik0zOS4zMywxSDIuNjdDMS43NSwxLDEsMS43NSwxLDIuNjd2MS4yMWg0MFYyLjY3QzQxLDEuNzUsNDAuMjUsMSwzOS4zMywxeiIgY2xhc3M9InN0MSIvPiYjeGE7CQk8L2c+JiN4YTsJPC9nPiYjeGE7PC9nPiYjeGE7PC9zdmc+;" parent="1" vertex="1">
          <mxGeometry x="520" y="355" width="42" height="42" as="geometry" />
        </mxCell>
        <mxCell id="AX1sSN8mTPLwoX_LTjLj-42" value="" style="shape=image;verticalLabelPosition=bottom;labelBackgroundColor=default;verticalAlign=top;aspect=fixed;imageAspect=0;image=data:image/svg+xml,PHN2ZyB4bWxuczp4bGluaz0iaHR0cDovL3d3dy53My5vcmcvMTk5OS94bGluayIgeG1sbnM9Imh0dHA6Ly93d3cudzMub3JnLzIwMDAvc3ZnIiB4bWw6c3BhY2U9InByZXNlcnZlIiBzdHlsZT0iZW5hYmxlLWJhY2tncm91bmQ6bmV3IDAgMCA0OC40NyA0Mi4wMjsiIHZpZXdCb3g9IjAgMCA0OC40NyA0Mi4wMiIgeT0iMHB4IiB4PSIwcHgiIGlkPSJMYXllcl8xIiB2ZXJzaW9uPSIxLjEiPiYjeGE7PG1ldGFkYXRhPiYjeGE7JiN4YTsgICAmI3hhOyAgICAgICYjeGE7ICAgICAgICAgMjAyMi0wMy0wNFQxNjoxODowMi0wNjowMCYjeGE7ICAgICAgICAgeG1wLmlpZDphNmVlNzM0Ni03ZWNmLTQyNjItODczYy01MzIxYjBkYTAzZjMmI3hhOyAgICAgICAgIHhtcC5kaWQ6MmQ5YmYzNDgtODYzYy00ZDkzLWFjMzAtYTgxMDcyMDE0NDJhJiN4YTsgICAgICAgICB4bXAuZGlkOjJkOWJmMzQ4LTg2M2MtNGQ5My1hYzMwLWE4MTA3MjAxNDQyYSYjeGE7ICAgICAgICAgJiN4YTsgICAgICAgICAgICAmI3hhOyAgICAgICAgICAgICAgICYjeGE7ICAgICAgICAgICAgICAgICAgJiN4YTsgICAgICAgICAgICAgICAgICAgICBzYXZlZCYjeGE7ICAgICAgICAgICAgICAgICAgICAgeG1wLmlpZDoyZDliZjM0OC04NjNjLTRkOTMtYWMzMC1hODEwNzIwMTQ0MmEmI3hhOyAgICAgICAgICAgICAgICAgICAgIDIwMjEtMDQtMjdUMTM6NDE6MjgtMDU6MDAmI3hhOyAgICAgICAgICAgICAgICAgICAgIEFkb2JlIEJyaWRnZSAyMDIxIChNYWNpbnRvc2gpJiN4YTsgICAgICAgICAgICAgICAgICAgICAvbWV0YWRhdGEmI3hhOyAgICAgICAgICAgICAgICAgICYjeGE7ICAgICAgICAgICAgICAgJiN4YTsgICAgICAgICAgICAgICAmI3hhOyAgICAgICAgICAgICAgICAgICYjeGE7ICAgICAgICAgICAgICAgICAgICAgc2F2ZWQmI3hhOyAgICAgICAgICAgICAgICAgICAgIHhtcC5paWQ6YTZlZTczNDYtN2VjZi00MjYyLTg3M2MtNTMyMWIwZGEwM2YzJiN4YTsgICAgICAgICAgICAgICAgICAgICAyMDIyLTAzLTA0VDE2OjE4OjAyLTA2OjAwJiN4YTsgICAgICAgICAgICAgICAgICAgICBBZG9iZSBCcmlkZ2UgMjAyMSAoTWFjaW50b3NoKSYjeGE7ICAgICAgICAgICAgICAgICAgICAgL21ldGFkYXRhJiN4YTsgICAgICAgICAgICAgICAgICAmI3hhOyAgICAgICAgICAgICAgICYjeGE7ICAgICAgICAgICAgJiN4YTsgICAgICAgICAmI3hhOyAgICAgICAgIFRydWUmI3hhOyAgICAgICAgICYjeGE7ICAgICAgICAgICAgJiN4YTsgICAgICAgICAgICAgICBpY29uJiN4YTsgICAgICAgICAgICAgICBEYXRhJiN4YTsgICAgICAgICAgICAgICBhZ2dyZWdhdGlvbiYjeGE7ICAgICAgICAgICAgICAgbWFuYWdlbWVudCYjeGE7ICAgICAgICAgICAgICAgc3lzdGVtJiN4YTsgICAgICAgICAgICAgICBidXNpbmVzcyYjeGE7ICAgICAgICAgICAgICAgaW50ZWxsaWdlbmNlJiN4YTsgICAgICAgICAgICAgICBhbmFseXRpY3MmI3hhOyAgICAgICAgICAgICAgIHN0b3JlJiN4YTsgICAgICAgICAgICAgICBhbmFseXNpcyYjeGE7ICAgICAgICAgICAgICAgaWNvbiYjeGE7ICAgICAgICAgICAgICAgQnVzaW5lc3MmI3hhOyAgICAgICAgICAgICAgIERhdGEmI3hhOyAgICAgICAgICAgICAgIG1hY2hpbmUgbGVhcm5pbmcmI3hhOyAgICAgICAgICAgICAgIGFydGlmaWNpYWwgaW50ZWxsaWdlbmNlJiN4YTsgICAgICAgICAgICAgICBhdXRvbWF0ZSYjeGE7ICAgICAgICAgICAgICAgYXV0b21hdGl6YXRpb24mI3hhOyAgICAgICAgICAgICAgIHNlY3VyaXR5JiN4YTsgICAgICAgICAgICAgICBiYWNrdXAmI3hhOyAgICAgICAgICAgICAgIHVwZGF0ZSYjeGE7ICAgICAgICAgICAgICAgdGFzayYjeGE7ICAgICAgICAgICAgICAgQURDUyYjeGE7ICAgICAgICAgICAgICAgYXV0b25vbW91cyYjeGE7ICAgICAgICAgICAgICAgc2VydmljZSYjeGE7ICAgICAgICAgICAgJiN4YTsgICAgICAgICAmI3hhOyAgICAgICAgICYjeGE7ICAgICAgICAgICAgJiN4YTsgICAgICAgICAgICAgICBPcmFjbGUgQWxsIFJpZ2h0cyBSZXNlcnZlZCYjeGE7ICAgICAgICAgICAgJiN4YTsgICAgICAgICAmI3hhOyAgICAgICAgICYjeGE7ICAgICAgICAgICAgJiN4YTsgICAgICAgICAgICAgICBEYXRhIE1hbmFnZW1lbnQmI3hhOyAgICAgICAgICAgICAgIFNlcnZpY2UmI3hhOyAgICAgICAgICAgICAgIEF1dG9ub21vdXMmI3hhOyAgICAgICAgICAgICAgIERhdGFiYXNlJiN4YTsgICAgICAgICAgICAgICBDbG91ZCYjeGE7ICAgICAgICAgICAgICAgaWNvbiYjeGE7ICAgICAgICAgICAgJiN4YTsgICAgICAgICAmI3hhOyAgICAgICYjeGE7ICAgJiN4YTsmI3hhOyAgICAgICAgICAgICAgICAgICAgICAgICAgICAgICAgICAgICAgICAgICAgICAgICAgICAgICAgICAgICAgICAgICAgICAgICAgICAgICAgICAgICAgICAgICAgICAgICAgICAmI3hhOyAgICAgICAgICAgICAgICAgICAgICAgICAgICAgICAgICAgICAgICAgICAgICAgICAgICAgICAgICAgICAgICAgICAgICAgICAgICAgICAgICAgICAgICAgICAgICAgICAgICAmI3hhOyAgICAgICAgICAgICAgICAgICAgICAgICAgICAgICAgICAgICAgICAgICAgICAgICAgICAgICAgICAgICAgICAgICAgICAgICAgICAgICAgICAgICAgICAgICAgICAgICAgICAmI3hhOyAgICAgICAgICAgICAgICAgICAgICAgICAgICAgICAgICAgICAgICAgICAgICAgICAgICAgICAgICAgICAgICAgICAgICAgICAgICAgICAgICAgICAgICAgICAgICAgICAgICAmI3hhOyAgICAgICAgICAgICAgICAgICAgICAgICAgICAgICAgICAgICAgICAgICAgICAgICAgICAgICAgICAgICAgICAgICAgICAgICAgICAgICAgICAgICAgICAgICAgICAgICAgICAmI3hhOyAgICAgICAgICAgICAgICAgICAgICAgICAgICAgICAgICAgICAgICAgICAgICAgICAgICAgICAgICAgICAgICAgICAgICAgICAgICAgICAgICAgICAgICAgICAgICAgICAgICAmI3hhOyAgICAgICAgICAgICAgICAgICAgICAgICAgICAgICAgICAgICAgICAgICAgICAgICAgICAgICAgICAgICAgICAgICAgICAgICAgICAgICAgICAgICAgICAgICAgICAgICAgICAmI3hhOyAgICAgICAgICAgICAgICAgICAgICAgICAgICAgICAgICAgICAgICAgICAgICAgICAgICAgICAgICAgICAgICAgICAgICAgICAgICAgICAgICAgICAgICAgICAgICAgICAgICAmI3hhOyAgICAgICAgICAgICAgICAgICAgICAgICAgICAgICAgICAgICAgICAgICAgICAgICAgICAgICAgICAgICAgICAgICAgICAgICAgICAgICAgICAgICAgICAgICAgICAgICAgICAmI3hhOyAgICAgICAgICAgICAgICAgICAgICAgICAgICAgICAgICAgICAgICAgICAgICAgICAgICAgICAgICAgICAgICAgICAgICAgICAgICAgICAgICAgICAgICAgICAgICAgICAgICAmI3hhOyAgICAgICAgICAgICAgICAgICAgICAgICAgICAgICAgICAgICAgICAgICAgICAgICAgICAgICAgICAgICAgICAgICAgICAgICAgICAgICAgICAgICAgICAgICAgICAgICAgICAmI3hhOyAgICAgICAgICAgICAgICAgICAgICAgICAgICAgICAgICAgICAgICAgICAgICAgICAgICAgICAgICAgICAgICAgICAgICAgICAgICAgICAgICAgICAgICAgICAgICAgICAgICAmI3hhOyAgICAgICAgICAgICAgICAgICAgICAgICAgICAgICAgICAgICAgICAgICAgICAgICAgICAgICAgICAgICAgICAgICAgICAgICAgICAgICAgICAgICAgICAgICAgICAgICAgICAmI3hhOyAgICAgICAgICAgICAgICAgICAgICAgICAgICAgICAgICAgICAgICAgICAgICAgICAgICAgICAgICAgICAgICAgICAgICAgICAgICAgICAgICAgICAgICAgICAgICAgICAgICAmI3hhOyAgICAgICAgICAgICAgICAgICAgICAgICAgICAgICAgICAgICAgICAgICAgICAgICAgICAgICAgICAgICAgICAgICAgICAgICAgICAgICAgICAgICAgICAgICAgICAgICAgICAmI3hhOyAgICAgICAgICAgICAgICAgICAgICAgICAgICAgICAgICAgICAgICAgICAgICAgICAgICAgICAgICAgICAgICAgICAgICAgICAgICAgICAgICAgICAgICAgICAgICAgICAgICAmI3hhOyAgICAgICAgICAgICAgICAgICAgICAgICAgICAgICAgICAgICAgICAgICAgICAgICAgICAgICAgICAgICAgICAgICAgICAgICAgICAgICAgICAgICAgICAgICAgICAgICAgICAmI3hhOyAgICAgICAgICAgICAgICAgICAgICAgICAgICAgICAgICAgICAgICAgICAgICAgICAgICAgICAgICAgICAgICAgICAgICAgICAgICAgICAgICAgICAgICAgICAgICAgICAgICAmI3hhOyAgICAgICAgICAgICAgICAgICAgICAgICAgICAgICAgICAgICAgICAgICAgICAgICAgICAgICAgICAgICAgICAgICAgICAgICAgICAgICAgICAgICAgICAgICAgICAgICAgICAmI3hhOyAgICAgICAgICAgICAgICAgICAgICAgICAgICAgICAgICAgICAgICAgICAgICAgICAgICAgICAgICAgICAgICAgICAgICAgICAgICAgICAgICAgICAgICAgICAgICAgICAgICAmI3hhOyAgICAgICAgICAgICAgICAgICAgICAgICAgICYjeGE7PC9tZXRhZGF0YT4mI3hhOzxzdHlsZSB0eXBlPSJ0ZXh0L2NzcyI+JiN4YTsJLnN0MHtmaWxsOiNGRkZGRkY7fSYjeGE7CS5zdDF7ZmlsbDojMkM1OTY3O30mI3hhOzwvc3R5bGU+JiN4YTs8Zz4mI3hhOwk8Zz4mI3hhOwkJPHBhdGggZD0iTTIyLjUsNDEuNTJjLTMuMTIsMC02LjA3LTAuMjktOC4yOS0wLjgzYy0yLjk1LTAuNzEtNC4zOS0xLjc4LTQuMzktMy4yOVYyMi45SDAuNTRsMC4xMS0xLjUyJiMxMDsmIzk7JiM5OyYjOTtjMC4yNy0zLjY3LDIuMzktNi44OSw1LjY1LTguNjFjMC43MS0wLjM4LDEuMjEtMS4wNCwxLjM2LTEuODFjMC41MS0yLjYsMi4yNi00Ljc4LDQuNjgtNS44NWMxLjAyLTAuNDUsMi4xNS0wLjY4LDMuMjYtMC42OCYjMTA7JiM5OyYjOTsmIzk7YzAuMjUsMCwwLjUsMC4wMSwwLjc1LDAuMDNjMC4wOSwwLjAxLDAuMTcsMC4wMSwwLjI2LDAuMDFjMC43MSwwLDEuMzYtMC4yOCwxLjgyLTAuNzhjMS43Mi0xLjg1LDQuMDEtMi45Niw2LjUxLTMuMTVWMC41NGwxLTAuMDImIzEwOyYjOTsmIzk7JiM5O2wwLDAuMDFjMy42OSwwLjA4LDYuOTksMi4xNyw4LjY1LDUuNDljMC4xMiwwLjI0LDAuMjksMC40NywwLjQ4LDAuNjdjMC4yNCwwLjM1LDAuNTYsMC44LDAuODQsMS4yYzMsMC4xLDUuNzMsMS42Nyw3LjMzLDQuMjQmIzEwOyYjOTsmIzk7JiM5O2wwLjA0LDAuMDdsMC4zNSwxLjUzbDQuMTIsNC4xMmwtMi4wMSwyLjAxbC0xLjMtMS4zYy0wLjc5LDQuMTktNC40OSw3LjM0LTguODUsNy4zNGMtMC4xNCwwLTAuMjgsMC0wLjQyLTAuMDF2MTEuNTMmIzEwOyYjOTsmIzk7JiM5O2MwLDEuNS0xLjQ0LDIuNTgtNC4zOSwzLjI5QzI4LjU3LDQxLjIzLDI1LjYyLDQxLjUyLDIyLjUsNDEuNTJ6IiBjbGFzcz0ic3QwIi8+JiN4YTsJCTxwYXRoIGQ9Ik0yNS43MiwxLjAyYzMuNTksMCw2LjgzLDIsOC40Myw1LjIyYzAuMTUsMC4zLDAuMzUsMC41NywwLjU4LDAuOGMwLjIyLDAuMzQsMC42MiwwLjksMC45MywxLjM0JiMxMDsmIzk7JiM5OyYjOTtjMi45OCwwLjAyLDUuNjYsMS41OSw3LjE2LDQuMDFsMC4zNywxLjU4bDMuODcsMy44N2wtMS4zLDEuM2wtMS42Ny0xLjY3Yy0wLjMsNC40Mi0zLjk5LDcuOTItOC40OCw3LjkyJiMxMDsmIzk7JiM5OyYjOTtjLTAuMzEsMC0wLjYyLTAuMDMtMC45Mi0wLjA2djEyLjA4YzAsMS4yNC0xLjMxLDIuMTYtNCwyLjhjLTIuMiwwLjUzLTUuMSwwLjgxLTguMTgsMC44MXMtNS45OC0wLjI5LTguMTgtMC44MSYjMTA7JiM5OyYjOTsmIzk7Yy0yLjY5LTAuNjQtNC0xLjU2LTQtMi44VjIyLjRIMS4wOGwwLjA3LTAuOTljMC4yNi0zLjUsMi4yNy02LjU2LDUuMzktOC4yYzAuODUtMC40NSwxLjQ0LTEuMjMsMS42Mi0yLjE2JiMxMDsmIzk7JiM5OyYjOTtjMC40OC0yLjQ0LDIuMTItNC40OSw0LjM5LTUuNDljMC45Ny0wLjQyLDIuMDEtMC42NCwzLjA2LTAuNjRjMC4yNCwwLDAuNDcsMC4wMSwwLjcsMC4wM2MwLjEsMC4wMSwwLjIsMC4wMSwwLjMxLDAuMDEmIzEwOyYjOTsmIzk7JiM5O2MwLjg0LDAsMS42My0wLjMzLDIuMTktMC45NGMxLjc0LTEuODcsNC4xLTIuOTQsNi42NS0zLjAxbDAuMDIsMC45MmwtMC4wMi0wLjkyQzI1LjU1LDEuMDIsMjUuNjMsMS4wMiwyNS43MiwxLjAyIE0yNi40NCwwJiMxMDsmIzk7JiM5OyYjOTtsLTEsMC4wM2MtMC4wMSwwLTAuMDEsMC0wLjAyLDBsLTAuOTgsMC4wM2wwLDAuMDVDMjIsMC40LDE5Ljc3LDEuNTMsMTguMDgsMy4zNmMtMC4zNywwLjQtMC44OSwwLjYyLTEuNDYsMC42MiYjMTA7JiM5OyYjOTsmIzk7Yy0wLjA3LDAtMC4xNCwwLTAuMjEtMC4wMWMtMC4yNy0wLjAyLTAuNTMtMC4wNC0wLjgtMC4wNGMtMS4xOCwwLTIuMzgsMC4yNS0zLjQ2LDAuNzNjLTIuNTcsMS4xMy00LjQzLDMuNDUtNC45Nyw2LjIxJiMxMDsmIzk7JiM5OyYjOTtjLTAuMTIsMC42My0wLjUzLDEuMTYtMS4xMSwxLjQ2Yy0zLjQyLDEuOC01LjYzLDUuMTctNS45Miw5LjAxbC0wLjA3LDAuOTlMMCwyMy40aDEuMDhoOC4yNHYxNC4wMWMwLDIuNjMsMy41OSwzLjQ5LDQuNzcsMy43NyYjMTA7JiM5OyYjOTsmIzk7YzIuMjcsMC41NCw1LjI2LDAuODQsOC40MSwwLjg0YzMuMTYsMCw2LjE0LTAuMyw4LjQxLTAuODRjMS4xOC0wLjI4LDQuNzctMS4xNCw0Ljc3LTMuNzdWMjYuMzljNC4yNS0wLjA0LDcuOS0yLjkxLDkuMDUtNi44NiYjMTA7JiM5OyYjOTsmIzk7bDAuMzIsMC4zMmwwLjcxLDAuNzFsMC43MS0wLjcxbDEuMy0xLjNsMC43MS0wLjcxbC0wLjcxLTAuNzFsLTMuNjctMy42N2wtMC4zLTEuMzFMNDMuNzYsMTJsLTAuMDktMC4xNCYjMTA7JiM5OyYjOTsmIzk7Yy0xLjY0LTIuNjMtNC40MS00LjI3LTcuNDgtNC40NmMtMC4yMy0wLjMzLTAuNDctMC42OC0wLjYzLTAuOTFsLTAuMDUtMC4wOGwtMC4wNy0wLjA3Yy0wLjE2LTAuMTctMC4zLTAuMzUtMC4zOS0wLjU1JiMxMDsmIzk7JiM5OyYjOTtjLTEuNjctMy4zNC00LjkyLTUuNS04LjYxLTUuNzVMMjYuNDQsMEwyNi40NCwweiIgY2xhc3M9InN0MCIvPiYjeGE7CTwvZz4mI3hhOwk8cGF0aCBkPSJNMy4xMiwyMC41Nmg1LjgydjEuODRIMS4wOGwwLjA3LTAuOTljMC4yNi0zLjUsMi4yNy02LjU2LDUuMzktOC4yYzAuODUtMC40NSwxLjQ0LTEuMjMsMS42Mi0yLjE2JiMxMDsmIzk7JiM5O2MwLjQ4LTIuNDQsMi4xMi00LjQ5LDQuMzktNS40OWMxLjE4LTAuNTIsMi40OC0wLjczLDMuNzYtMC42MWMwLjk2LDAuMDksMS44Ny0wLjI1LDIuNS0wLjkzYzEuNzQtMS44Nyw0LjEtMi45NCw2LjY1LTMuMDFoMCYjMTA7JiM5OyYjOTtjMC4wOCwwLDAuMTcsMCwwLjI1LDBjMy41OSwwLDYuODMsMiw4LjQzLDUuMjJjMC4xNSwwLjMsMC4zNSwwLjU3LDAuNTgsMC44Yy0wLjY5LDAuMDYtMS4zNywwLjE5LTIuMDEsMC4zOSYjMTA7JiM5OyYjOTtjLTAuMDctMC4xMi0wLjE0LTAuMjQtMC4yMS0wLjM3Yy0xLjI5LTIuNTktMy45LTQuMi02Ljc5LTQuMmMtMC4wNywwLTAuMTQsMC0wLjIxLDBjLTIuMDUsMC4wNS0zLjk2LDAuOTItNS4zNiwyLjQyJiMxMDsmIzk7JiM5O2MtMS4wMiwxLjEtMi40OSwxLjY1LTQuMDIsMS41MWMtMC45Ny0wLjA5LTEuOTUsMC4wNy0yLjg1LDAuNDZjLTEuNzIsMC43Ni0yLjk2LDIuMzEtMy4zMyw0LjE2Yy0wLjI5LDEuNDctMS4yMywyLjcyLTIuNTcsMy40MyYjMTA7JiM5OyYjOTtDNS4xNCwxNi4wMiwzLjU5LDE4LjEyLDMuMTIsMjAuNTYgTTM0LjY5LDEyaDEuODJsMi41NSw4Ljg2aC0xLjk2TDM2LjY2LDE5aC0yLjIxbC0wLjQzLDEuODZoLTEuOUwzNC42OSwxMnogTTM0LjgsMTcuNDloMS41MiYjMTA7JiM5OyYjOTtsLTAuNzYtMy4zMUwzNC44LDE3LjQ5eiBNMjcuMTIsMTYuM2wtMS42Ny0xLjY3bC0xLjMsMS4zbDMuODcsMy44N2wzLjg3LTMuODdsLTEuMy0xLjNsLTEuNjIsMS42MmMwLjMyLTMuMzgsMy4xOC02LjAyLDYuNjMtNi4wMiYjMTA7JiM5OyYjOTtjMi41LDAsNC43NCwxLjQsNS44OCwzLjUybDEuMzQtMS4zNGMtMS41Mi0yLjQzLTQuMjItNC4wMS03LjIyLTQuMDFDMzEuMTEsOC4zOCwyNy40MiwxMS44OCwyNy4xMiwxNi4zIE00Ny4wNiwxNy44NGwtMy44Ny0zLjg3JiMxMDsmIzk7JiM5O2wtMy44NywzLjg3bDEuMywxLjNsMS42Mi0xLjYyYy0wLjMyLDMuMzgtMy4xOCw2LjAyLTYuNjMsNi4wMmMtMi41LDAtNC43NC0xLjQtNS44OC0zLjUybC0xLjM0LDEuMzQmIzEwOyYjOTsmIzk7YzEuNTIsMi40Myw0LjIyLDQuMDEsNy4yMiw0LjAxYzQuNDksMCw4LjE4LTMuNSw4LjQ4LTcuOTJsMS42NywxLjY3TDQ3LjA2LDE3Ljg0eiBNMzIuODUsMjYuNThjMC41OSwwLjE4LDEuMjEsMC4zLDEuODQsMC4zNiYjMTA7JiM5OyYjOTt2MTAuNDZjMCwxLjI0LTEuMzEsMi4xNi00LDIuOGMtMi4yLDAuNTMtNS4xLDAuODEtOC4xOCwwLjgxcy01Ljk4LTAuMjktOC4xOC0wLjgxYy0yLjY5LTAuNjQtNC0xLjU2LTQtMi44VjE3LjgmIzEwOyYjOTsmIzk7YzAtMS4yNSwxLjMyLTIuMTQsNC4wMi0yLjczYzIuMTMtMC40Niw1LjAzLTAuNzIsOC4xNi0wLjcyYzAuMTUsMCwwLjMxLDAsMC40NiwwdjEuODRjLTAuMTUsMC0wLjMsMC0wLjQ2LDAmIzEwOyYjOTsmIzk7Yy02LjU1LDAtOS45MywxLjA3LTEwLjM0LDEuNjd2MC4xMWMwLjQ0LDAuNjcsNC4xOSwxLjg0LDEwLjM0LDEuODRjMS4yNywwLDIuNDQtMC4wNSwzLjUtMC4xM2MwLjE4LDAuNjIsMC40MSwxLjIyLDAuNywxLjc4JiMxMDsmIzk7JiM5O2MtMS4zMiwwLjEyLTIuNzQsMC4xOS00LjIsMC4xOWMtMy4wOCwwLTUuOTgtMC4yOS04LjE4LTAuODFjLTAuODYtMC4yMS0xLjU4LTAuNDQtMi4xNy0wLjcxdjQuMjhjMC40NCwwLjY3LDQuMTksMS44NCwxMC4zNCwxLjg0JiMxMDsmIzk7JiM5O2MzLjQxLDAsNi4wNy0wLjM2LDcuODUtMC43OWMwLjc2LDAuNDgsMS41OSwwLjg2LDIuNDcsMS4xMmMtMC41OCwwLjI2LTEuMjksMC40OS0yLjE0LDAuNjljLTIuMiwwLjUzLTUuMSwwLjgxLTguMTgsMC44MSYjMTA7JiM5OyYjOTtzLTUuOTgtMC4yOS04LjE4LTAuODFjLTAuODYtMC4yMS0xLjU4LTAuNDQtMi4xNy0wLjcxdjQuMzNjMC40NCwwLjY3LDQuMTksMS44NCwxMC4zNCwxLjg0czkuOTEtMS4xNywxMC4zNC0xLjg0VjI2LjU4eiYjMTA7JiM5OyYjOTsgTTMyLjg1LDMzLjA2Yy0wLjU4LDAuMjYtMS4zLDAuNS0yLjE3LDAuNzFjLTIuMiwwLjUzLTUuMSwwLjgxLTguMTgsMC44MXMtNS45OC0wLjI5LTguMTgtMC44MWMtMC44Ni0wLjIxLTEuNTgtMC40NC0yLjE3LTAuNzEmIzEwOyYjOTsmIzk7djQuMjljMC4zOSwwLjU2LDMuNzksMS44NCwxMC4zNCwxLjg0czkuOTYtMS4yNywxMC4zNC0xLjg0VjMzLjA2eiIgY2xhc3M9InN0MSIvPiYjeGE7PC9nPiYjeGE7PC9zdmc+;" parent="1" vertex="1">
          <mxGeometry x="710" y="355" width="48" height="42" as="geometry" />
        </mxCell>
        <mxCell id="AX1sSN8mTPLwoX_LTjLj-43" value="" style="shape=image;verticalLabelPosition=bottom;labelBackgroundColor=default;verticalAlign=top;aspect=fixed;imageAspect=0;image=data:image/svg+xml,PHN2ZyB4bWxuczp4bGluaz0iaHR0cDovL3d3dy53My5vcmcvMTk5OS94bGluayIgeG1sbnM9Imh0dHA6Ly93d3cudzMub3JnLzIwMDAvc3ZnIiB4bWw6c3BhY2U9InByZXNlcnZlIiBzdHlsZT0iZW5hYmxlLWJhY2tncm91bmQ6bmV3IDAgMCA0OS4yIDQyOyIgdmlld0JveD0iMCAwIDQ5LjIgNDIiIHk9IjBweCIgeD0iMHB4IiBpZD0iTGF5ZXJfMSIgdmVyc2lvbj0iMS4xIj4mI3hhOzxtZXRhZGF0YT4mI3hhOyYjeGE7ICAgJiN4YTsgICAgICAmI3hhOyAgICAgICAgIDIwMjItMTEtMTFUMTQ6Mzk6MTYtMDY6MDAmI3hhOyAgICAgICAgIHhtcC5paWQ6MTA5YTY4YjMtZDk2Ny00YmY5LTk5NWQtYjRjYjc5NWRlMGNlJiN4YTsgICAgICAgICB4bXAuZGlkOjVkNjZlNzYwLWM4YjYtNDgyMS1hNWQyLWJhYjFkMDQyZTVlYyYjeGE7ICAgICAgICAgeG1wLmRpZDo1ZDY2ZTc2MC1jOGI2LTQ4MjEtYTVkMi1iYWIxZDA0MmU1ZWMmI3hhOyAgICAgICAgICYjeGE7ICAgICAgICAgICAgJiN4YTsgICAgICAgICAgICAgICAmI3hhOyAgICAgICAgICAgICAgICAgICYjeGE7ICAgICAgICAgICAgICAgICAgICAgc2F2ZWQmI3hhOyAgICAgICAgICAgICAgICAgICAgIHhtcC5paWQ6NWQ2NmU3NjAtYzhiNi00ODIxLWE1ZDItYmFiMWQwNDJlNWVjJiN4YTsgICAgICAgICAgICAgICAgICAgICAyMDIxLTA0LTI3VDEzOjM0OjMzLTA1OjAwJiN4YTsgICAgICAgICAgICAgICAgICAgICBBZG9iZSBCcmlkZ2UgMjAyMSAoTWFjaW50b3NoKSYjeGE7ICAgICAgICAgICAgICAgICAgICAgL21ldGFkYXRhJiN4YTsgICAgICAgICAgICAgICAgICAmI3hhOyAgICAgICAgICAgICAgICYjeGE7ICAgICAgICAgICAgICAgJiN4YTsgICAgICAgICAgICAgICAgICAmI3hhOyAgICAgICAgICAgICAgICAgICAgIHNhdmVkJiN4YTsgICAgICAgICAgICAgICAgICAgICB4bXAuaWlkOjEwOWE2OGIzLWQ5NjctNGJmOS05OTVkLWI0Y2I3OTVkZTBjZSYjeGE7ICAgICAgICAgICAgICAgICAgICAgMjAyMi0xMS0xMVQxNDozOToxNi0wNjowMCYjeGE7ICAgICAgICAgICAgICAgICAgICAgQWRvYmUgQnJpZGdlIDIwMjEgKE1hY2ludG9zaCkmI3hhOyAgICAgICAgICAgICAgICAgICAgIC9tZXRhZGF0YSYjeGE7ICAgICAgICAgICAgICAgICAgJiN4YTsgICAgICAgICAgICAgICAmI3hhOyAgICAgICAgICAgICYjeGE7ICAgICAgICAgJiN4YTsgICAgICAgICBUcnVlJiN4YTsgICAgICAgICAmI3hhOyAgICAgICAgICAgICYjeGE7ICAgICAgICAgICAgICAgQW5hbHl0aWNzJiN4YTsgICAgICAgICAgICAgICBTZXJ2aWNlJiN4YTsgICAgICAgICAgICAgICBEYXRhJiN4YTsgICAgICAgICAgICAgICBPdGhlciYjeGE7ICAgICAgICAgICAgICAgaWNvbiYjeGE7ICAgICAgICAgICAgJiN4YTsgICAgICAgICAmI3hhOyAgICAgICAgICYjeGE7ICAgICAgICAgICAgJiN4YTsgICAgICAgICAgICAgICBBbmFseXRpY3MmI3hhOyAgICAgICAgICAgICAgIFNlcnZpY2UmI3hhOyAgICAgICAgICAgICAgIERhdGEmI3hhOyAgICAgICAgICAgICAgIGdyYXBoJiN4YTsgICAgICAgICAgICAgICBCdXNpbmVzcyYjeGE7ICAgICAgICAgICAgICAgYW5hbHlzaXMmI3hhOyAgICAgICAgICAgICAgIGRhdGEmI3hhOyAgICAgICAgICAgICAgIGljb24mI3hhOyAgICAgICAgICAgICAgIG1vbml0b3ImI3hhOyAgICAgICAgICAgICYjeGE7ICAgICAgICAgJiN4YTsgICAgICAgICAmI3hhOyAgICAgICAgICAgICYjeGE7ICAgICAgICAgICAgICAgT3JhY2xlIEFsbCBSaWdodHMgUmVzZXJ2ZWQmI3hhOyAgICAgICAgICAgICYjeGE7ICAgICAgICAgJiN4YTsgICAgICAmI3hhOyAgICYjeGE7JiN4YTsgICAgICAgICAgICAgICAgICAgICAgICAgICAgICAgICAgICAgICAgICAgICAgICAgICAgICAgICAgICAgICAgICAgICAgICAgICAgICAgICAgICAgICAgICAgICAgICAgICAgJiN4YTsgICAgICAgICAgICAgICAgICAgICAgICAgICAgICAgICAgICAgICAgICAgICAgICAgICAgICAgICAgICAgICAgICAgICAgICAgICAgICAgICAgICAgICAgICAgICAgICAgICAgJiN4YTsgICAgICAgICAgICAgICAgICAgICAgICAgICAgICAgICAgICAgICAgICAgICAgICAgICAgICAgICAgICAgICAgICAgICAgICAgICAgICAgICAgICAgICAgICAgICAgICAgICAgJiN4YTsgICAgICAgICAgICAgICAgICAgICAgICAgICAgICAgICAgICAgICAgICAgICAgICAgICAgICAgICAgICAgICAgICAgICAgICAgICAgICAgICAgICAgICAgICAgICAgICAgICAgJiN4YTsgICAgICAgICAgICAgICAgICAgICAgICAgICAgICAgICAgICAgICAgICAgICAgICAgICAgICAgICAgICAgICAgICAgICAgICAgICAgICAgICAgICAgICAgICAgICAgICAgICAgJiN4YTsgICAgICAgICAgICAgICAgICAgICAgICAgICAgICAgICAgICAgICAgICAgICAgICAgICAgICAgICAgICAgICAgICAgICAgICAgICAgICAgICAgICAgICAgICAgICAgICAgICAgJiN4YTsgICAgICAgICAgICAgICAgICAgICAgICAgICAgICAgICAgICAgICAgICAgICAgICAgICAgICAgICAgICAgICAgICAgICAgICAgICAgICAgICAgICAgICAgICAgICAgICAgICAgJiN4YTsgICAgICAgICAgICAgICAgICAgICAgICAgICAgICAgICAgICAgICAgICAgICAgICAgICAgICAgICAgICAgICAgICAgICAgICAgICAgICAgICAgICAgICAgICAgICAgICAgICAgJiN4YTsgICAgICAgICAgICAgICAgICAgICAgICAgICAgICAgICAgICAgICAgICAgICAgICAgICAgICAgICAgJiN4YTs8L21ldGFkYXRhPiYjeGE7PGc+JiN4YTsJPGc+JiN4YTsJCTxwYXRoIGQ9Ik0xNy4zLDQxLjV2LTEuOGwyLjQtMS4ySDIwbDAuMS0wLjVoLTguOFYyNUgwLjVsMC4xLTEuNmMwLjMtNCwyLjYtNy42LDYuMi05LjQmIzEwOyYjOTsmIzk7JiM5O2MwLjgtMC40LDEuNC0xLjIsMS41LTJjMC42LTIuOCwyLjUtNS4yLDUuMS02LjRjMS4xLTAuNSwyLjMtMC43LDMuNi0wLjdjMC4zLDAsMC41LDAsMC44LDBjMC4xLDAsMC4yLDAsMC4zLDAmIzEwOyYjOTsmIzk7JiM5O2MwLjgsMCwxLjUtMC4zLDItMC45YzIuMS0yLjIsNS0zLjUsOC0zLjVjNC4xLDAsNy45LDIuMyw5LjcsNmMwLjQsMC44LDEuMSwxLjQsMiwxLjZjMS4yLDAuMywyLjQsMC44LDMuNSwxLjUmIzEwOyYjOTsmIzk7JiM5O2M0LjksMy4xLDYuNiw5LjYsMy45LDE0LjdMNDcsMjVoLTguOVYzOGgtOC44bDAuMSwwLjVoMC41bDIuNCwxLjJ2MS44SDE3LjN6IiBzdHlsZT0iZmlsbDojRkZGRkZGOyIvPiYjeGE7CQk8cGF0aCBkPSJNMjguMiwxYzQsMCw3LjUsMi4yLDkuMyw1LjdjMC41LDAuOSwxLjMsMS42LDIuNCwxLjhjMS4yLDAuMywyLjMsMC43LDMuNCwxLjQmIzEwOyYjOTsmIzk7JiM5O2M0LjcsMyw2LjMsOS4xLDMuNywxNGwtMC4zLDAuNWgtOS4xdjEyLjloLTguOWwwLjIsMS41aDAuOWwyLDF2MWgtMmgtOS45aC0ydi0xbDItMWgwLjZsMC4yLTEuNWgtOC45VjI0LjVIMS4xbDAuMS0xLjEmIzEwOyYjOTsmIzk7JiM5O2MwLjMtMy45LDIuNS03LjIsNS45LTljMC45LTAuNSwxLjYtMS40LDEuOC0yLjRjMC41LTIuNywyLjMtNC45LDQuOC02YzEuMS0wLjUsMi4yLTAuNywzLjQtMC43YzAuMywwLDAuNSwwLDAuOCwwJiMxMDsmIzk7JiM5OyYjOTtjMC4xLDAsMC4yLDAsMC4zLDBjMC45LDAsMS44LTAuNCwyLjQtMUMyMi42LDIuMiwyNS4zLDEsMjguMiwxIE0yOC4yLDBjLTMuMiwwLTYuMiwxLjMtOC4zLDMuNmMtMC40LDAuNS0xLDAuNy0xLjcsMC43JiMxMDsmIzk7JiM5OyYjOTtjLTAuMSwwLTAuMiwwLTAuMiwwYy0wLjMsMC0wLjYsMC0wLjksMGMtMS4zLDAtMi42LDAuMy0zLjgsMC44Yy0yLjgsMS4yLTQuOCwzLjgtNS40LDYuOGMtMC4xLDAuNy0wLjYsMS4zLTEuMywxLjcmIzEwOyYjOTsmIzk7JiM5O2MtMy43LDItNi4yLDUuNi02LjUsOS44bC0wLjEsMS4xTDAsMjUuNWgxLjFoOS43djExLjl2MWgxaDYuOWwtMS4zLDAuNmwtMC42LDAuM1Y0MHYxdjFoMWgyaDkuOWgyaDF2LTF2LTF2LTAuNmwtMC42LTAuMyYjMTA7JiM5OyYjOTsmIzk7bC0xLjMtMC42aDYuNmgxdi0xVjI1LjVoOC4xaDAuNmwwLjMtMC41bDAuMy0wLjVjMi45LTUuNCwxLjEtMTIuMS00LTE1LjRjLTEuMS0wLjctMi40LTEuMi0zLjctMS41Yy0wLjctMC4yLTEuNC0wLjYtMS43LTEuMyYjMTA7JiM5OyYjOTsmIzk7QzM2LjUsMi40LDMyLjYsMCwyOC4yLDBMMjguMiwweiIgc3R5bGU9ImZpbGw6I0ZGRkZGRjsiLz4mI3hhOwk8L2c+JiN4YTsJPGc+JiN4YTsJCTxwYXRoIGQ9Ik0xMS44LDM3LjVoOC45TDIwLjUsMzloLTAuNnYwbC0yLDF2MWgydjBoOS45djBoMnYtMWwtMi0xdjBoLTAuOWwtMC4yLTEuNWg4Ljl2LTIwSDExLjhWMzcuNXomIzEwOyYjOTsmIzk7JiM5OyBNMjIuNSwzOWwwLjItMS41aDRsMC4yLDEuNUgyMi41eiBNMTMuOCwxOS41aDIxLjh2MTIuNGgtMy4zdjFoLTJ2LTFoLTIuNHYxaC0ydi0xaC0yLjR2MWgtMnYtMWgtMi40djFoLTJ2LTFoLTNWMTkuNXomIzEwOyYjOTsmIzk7JiM5OyBNMTMuOCwzMy45aDIxLjh2MS41SDEzLjhWMzMuOXoiIHN0eWxlPSJmaWxsOiMyQzU5Njc7Ii8+JiN4YTsJCTxwYXRoIGQ9Ik00My4yLDEwYy0xLTAuNy0yLjItMS4xLTMuNC0xLjRjLTEtMC4yLTEuOS0wLjktMi40LTEuOEMzNS43LDMuMiwzMi4yLDEsMjguMiwxJiMxMDsmIzk7JiM5OyYjOTtjLTIuOSwwLTUuNywxLjItNy42LDMuM2MtMC43LDAuNy0xLjcsMS4xLTIuNywxQzE2LjQsNS4yLDE1LDUuNCwxMy43LDZjLTIuNSwxLjEtNC4zLDMuNC00LjgsNmMtMC4yLDEtMC45LDEuOS0xLjgsMi40JiMxMDsmIzk7JiM5OyYjOTtjLTMuNCwxLjgtNS42LDUuMi01LjksOWwtMC4xLDEuMWg5LjJ2LTJIMy4zYzAuNS0yLjcsMi4yLTUsNC43LTYuM2MxLjUtMC44LDIuNS0yLjIsMi44LTMuOGMwLjQtMiwxLjgtMy43LDMuNy00LjYmIzEwOyYjOTsmIzk7JiM5O2MxLTAuNCwyLjEtMC42LDMuMS0wLjVjMS43LDAuMiwzLjMtMC40LDQuNC0xLjdDMjMuNyw0LDI1LjksMywyOC4yLDNjMy4yLDAsNi4xLDEuOCw3LjUsNC42YzAuNywxLjUsMi4xLDIuNiwzLjgsMi45JiMxMDsmIzk7JiM5OyYjOTtjMSwwLjIsMS45LDAuNiwyLjcsMS4xYzMuNiwyLjMsNSw3LDMuMywxMC44aC02LjN2Mmg3LjZsMC4zLTAuNUM0OS42LDE5LjEsNDgsMTIuOSw0My4yLDEweiIgc3R5bGU9ImZpbGw6IzJDNTk2NzsiLz4mI3hhOwkJPHBvbHlnb24gcG9pbnRzPSIxNi44LDI4LjMgMTYuOCwzMS45IDE2LjgsMzIuOSAxOC44LDMyLjkgMTguOCwzMS45IDE4LjgsMjguMyIgc3R5bGU9ImZpbGw6IzJDNTk2NzsiLz4mI3hhOwkJPHBvbHlnb24gcG9pbnRzPSIyMS4zLDI2LjMgMjEuMywzMS45IDIxLjMsMzIuOSAyMy4zLDMyLjkgMjMuMywzMS45IDIzLjMsMjYuMyIgc3R5bGU9ImZpbGw6IzJDNTk2NzsiLz4mI3hhOwkJPHBvbHlnb24gcG9pbnRzPSIyNS44LDIzLjUgMjUuOCwzMS45IDI1LjgsMzIuOSAyNy44LDMyLjkgMjcuOCwzMS45IDI3LjgsMjMuNSIgc3R5bGU9ImZpbGw6IzJDNTk2NzsiLz4mI3hhOwkJPHBvbHlnb24gcG9pbnRzPSIzMC4yLDIxIDMwLjIsMzEuOSAzMC4yLDMyLjkgMzIuMywzMi45IDMyLjMsMzEuOSAzMi4zLDIxIiBzdHlsZT0iZmlsbDojMkM1OTY3OyIvPiYjeGE7CTwvZz4mI3hhOzwvZz4mI3hhOzwvc3ZnPg==;" parent="1" vertex="1">
          <mxGeometry x="920" y="355" width="49" height="42" as="geometry" />
        </mxCell>
        <mxCell id="AX1sSN8mTPLwoX_LTjLj-46" value="SQL Net&lt;div&gt;TCP/1522&lt;/div&gt;" style="text;html=1;align=center;verticalAlign=middle;whiteSpace=wrap;rounded=0;fillColor=none;opacity=60;fontSize=12;fontFamily=Oracle Sans Tab;" parent="1" vertex="1">
          <mxGeometry x="780" y="165" width="65.5" height="30" as="geometry" />
        </mxCell>
        <mxCell id="AX1sSN8mTPLwoX_LTjLj-30" style="edgeStyle=orthogonalEdgeStyle;rounded=0;orthogonalLoop=1;jettySize=auto;html=1;exitX=1;exitY=0.5;exitDx=0;exitDy=0;entryX=0;entryY=0.5;entryDx=0;entryDy=0;endArrow=oval;endFill=1;startArrow=oval;startFill=1;strokeColor=#4D4D4D;" parent="1" source="AX1sSN8mTPLwoX_LTjLj-31" target="AX1sSN8mTPLwoX_LTjLj-37" edge="1">
          <mxGeometry relative="1" as="geometry" />
        </mxCell>
        <mxCell id="AX1sSN8mTPLwoX_LTjLj-32" style="edgeStyle=orthogonalEdgeStyle;rounded=0;orthogonalLoop=1;jettySize=auto;html=1;exitX=1;exitY=0.5;exitDx=0;exitDy=0;entryX=0;entryY=0.5;entryDx=0;entryDy=0;strokeColor=#4D4D4D;align=center;verticalAlign=middle;fontFamily=Helvetica;fontSize=11;fontColor=default;labelBackgroundColor=default;startArrow=oval;startFill=1;endArrow=oval;endFill=1;" parent="1" source="AX1sSN8mTPLwoX_LTjLj-28" target="AX1sSN8mTPLwoX_LTjLj-33" edge="1">
          <mxGeometry relative="1" as="geometry" />
        </mxCell>
        <mxCell id="AX1sSN8mTPLwoX_LTjLj-44" style="edgeStyle=orthogonalEdgeStyle;rounded=0;orthogonalLoop=1;jettySize=auto;html=1;exitX=1;exitY=0.25;exitDx=0;exitDy=0;entryX=0.5;entryY=0;entryDx=0;entryDy=0;endArrow=oval;endFill=1;startArrow=oval;startFill=1;strokeColor=#4D4D4D;" parent="1" source="AX1sSN8mTPLwoX_LTjLj-33" target="AX1sSN8mTPLwoX_LTjLj-37" edge="1">
          <mxGeometry relative="1" as="geometry">
            <Array as="points">
              <mxPoint x="490" y="292" />
              <mxPoint x="490" y="182" />
              <mxPoint x="775" y="182" />
            </Array>
          </mxGeometry>
        </mxCell>
        <mxCell id="AX1sSN8mTPLwoX_LTjLj-45" style="edgeStyle=orthogonalEdgeStyle;rounded=0;orthogonalLoop=1;jettySize=auto;html=1;exitX=1;exitY=0.5;exitDx=0;exitDy=0;entryX=0;entryY=0.5;entryDx=0;entryDy=0;endArrow=oval;endFill=1;startArrow=oval;startFill=1;strokeColor=#4D4D4D;" parent="1" source="AX1sSN8mTPLwoX_LTjLj-33" target="AX1sSN8mTPLwoX_LTjLj-31" edge="1">
          <mxGeometry relative="1" as="geometry" />
        </mxCell>
        <mxCell id="AX1sSN8mTPLwoX_LTjLj-36" style="edgeStyle=orthogonalEdgeStyle;rounded=0;orthogonalLoop=1;jettySize=auto;html=1;exitX=1;exitY=0.5;exitDx=0;exitDy=0;entryX=0;entryY=0.5;entryDx=0;entryDy=0;endArrow=oval;endFill=1;startArrow=oval;startFill=1;strokeColor=#4D4D4D;" parent="1" source="AX1sSN8mTPLwoX_LTjLj-37" target="AX1sSN8mTPLwoX_LTjLj-39" edge="1">
          <mxGeometry relative="1" as="geometry" />
        </mxCell>
        <mxCell id="AX1sSN8mTPLwoX_LTjLj-52" style="edgeStyle=orthogonalEdgeStyle;rounded=0;orthogonalLoop=1;jettySize=auto;html=1;exitX=0.25;exitY=0;exitDx=0;exitDy=0;entryX=1;entryY=0.75;entryDx=0;entryDy=0;strokeColor=#4D4D4D;align=center;verticalAlign=middle;fontFamily=Helvetica;fontSize=11;fontColor=default;labelBackgroundColor=default;startArrow=oval;startFill=1;endArrow=oval;endFill=1;" parent="1" source="AX1sSN8mTPLwoX_LTjLj-47" target="AX1sSN8mTPLwoX_LTjLj-33" edge="1">
          <mxGeometry relative="1" as="geometry">
            <Array as="points">
              <mxPoint x="508" y="560" />
              <mxPoint x="460" y="560" />
              <mxPoint x="460" y="322" />
            </Array>
          </mxGeometry>
        </mxCell>
        <mxCell id="AX1sSN8mTPLwoX_LTjLj-54" style="edgeStyle=orthogonalEdgeStyle;rounded=0;orthogonalLoop=1;jettySize=auto;html=1;exitX=0.75;exitY=0;exitDx=0;exitDy=0;entryX=0.5;entryY=1;entryDx=0;entryDy=0;strokeColor=#4D4D4D;align=center;verticalAlign=middle;fontFamily=Helvetica;fontSize=11;fontColor=default;labelBackgroundColor=default;startArrow=oval;startFill=1;endArrow=oval;endFill=1;" parent="1" source="AX1sSN8mTPLwoX_LTjLj-47" target="AX1sSN8mTPLwoX_LTjLj-37" edge="1">
          <mxGeometry relative="1" as="geometry">
            <Array as="points">
              <mxPoint x="537" y="550" />
              <mxPoint x="775" y="550" />
            </Array>
          </mxGeometry>
        </mxCell>
        <mxCell id="AX1sSN8mTPLwoX_LTjLj-47" value="" style="shape=image;verticalLabelPosition=bottom;labelBackgroundColor=default;verticalAlign=top;aspect=fixed;imageAspect=0;image=data:image/svg+xml,PHN2ZyB4bWxucz0iaHR0cDovL3d3dy53My5vcmcvMjAwMC9zdmciIHZpZXdCb3g9IjAgMCA1Ni45MyA0MiIgZGF0YS1uYW1lPSJMYXllciAxIiBpZD0iTGF5ZXJfMSI+PHRpdGxlPkdyb3VwczwvdGl0bGU+PG1ldGFkYXRhPiYjeGE7JiN4YTsgICAmI3hhOyAgICAgICYjeGE7ICAgICAgICAgJiN4YTsgICAgICAgICAgICAmI3hhOyAgICAgICAgICAgICAgIEdyb3VwcyYjeGE7ICAgICAgICAgICAgJiN4YTsgICAgICAgICAmI3hhOyAgICAgICAgICYjeGE7ICAgICAgICAgICAgJiN4YTsgICAgICAgICAgICAgICBVc2VyJiN4YTsgICAgICAgICAgICAgICBQZXJzb24mI3hhOyAgICAgICAgICAgICAgIFBlb3BsZSYjeGE7ICAgICAgICAgICAgICAgUGVyc29uYSYjeGE7ICAgICAgICAgICAgICAgaWNvbiYjeGE7ICAgICAgICAgICAgJiN4YTsgICAgICAgICAmI3hhOyAgICAgICAgIDIwMjItMTAtMjFUMTM6NDU6MjktMDU6MDAmI3hhOyAgICAgICAgIHhtcC5paWQ6NjgzMjIyOTktOWUxMi00Mzc3LWE1NDUtMzZhYzcxMGU1M2U5JiN4YTsgICAgICAgICB4bXAuZGlkOjMzYzhhYjkxLWM3N2MtNDhjYS1iN2QzLWMxNTQ0YTE2MzY3MCYjeGE7ICAgICAgICAgeG1wLmRpZDozM2M4YWI5MS1jNzdjLTQ4Y2EtYjdkMy1jMTU0NGExNjM2NzAmI3hhOyAgICAgICAgICYjeGE7ICAgICAgICAgICAgJiN4YTsgICAgICAgICAgICAgICAmI3hhOyAgICAgICAgICAgICAgICAgICYjeGE7ICAgICAgICAgICAgICAgICAgICAgc2F2ZWQmI3hhOyAgICAgICAgICAgICAgICAgICAgIHhtcC5paWQ6MzNjOGFiOTEtYzc3Yy00OGNhLWI3ZDMtYzE1NDRhMTYzNjcwJiN4YTsgICAgICAgICAgICAgICAgICAgICAyMDIxLTA4LTMxVDE1OjQ0OjE5LTA1OjAwJiN4YTsgICAgICAgICAgICAgICAgICAgICBBZG9iZSBCcmlkZ2UgMjAyMSAoTWFjaW50b3NoKSYjeGE7ICAgICAgICAgICAgICAgICAgICAgL21ldGFkYXRhJiN4YTsgICAgICAgICAgICAgICAgICAmI3hhOyAgICAgICAgICAgICAgICYjeGE7ICAgICAgICAgICAgICAgJiN4YTsgICAgICAgICAgICAgICAgICAmI3hhOyAgICAgICAgICAgICAgICAgICAgIHNhdmVkJiN4YTsgICAgICAgICAgICAgICAgICAgICB4bXAuaWlkOjY4MzIyMjk5LTllMTItNDM3Ny1hNTQ1LTM2YWM3MTBlNTNlOSYjeGE7ICAgICAgICAgICAgICAgICAgICAgMjAyMi0xMC0yMVQxMzo0NToyOS0wNTowMCYjeGE7ICAgICAgICAgICAgICAgICAgICAgQWRvYmUgQnJpZGdlIDIwMjEgKE1hY2ludG9zaCkmI3hhOyAgICAgICAgICAgICAgICAgICAgIC9tZXRhZGF0YSYjeGE7ICAgICAgICAgICAgICAgICAgJiN4YTsgICAgICAgICAgICAgICAmI3hhOyAgICAgICAgICAgICYjeGE7ICAgICAgICAgJiN4YTsgICAgICAmI3hhOyAgICYjeGE7JiN4YTsgICAgICAgICAgICAgICAgICAgICAgICAgICAgICAgICAgICAgICAgICAgICAgICAgICAgICAgICAgICAgICAgICAgICAgICAgICAgICAgICAgICAgICAgICAgICAgICAgICAgJiN4YTsgICAgICAgICAgICAgICAgICAgICAgICAgICAgICAgICAgICAgICAgICAgICAgICAgICAgICAgICAgICAgICAgICAgICAgICAgICAgICAgICAgICAgICAgICAgICAgICAgICAgJiN4YTsgICAgICAgICAgICAgICAgICAgICAgICAgICAgICAgICAgICAgICAgICAgICAgICAgICAgICAgICAgICAgICAgICAgICAgICAgICAgICAgICAgICAgICAgICAgICAgICAgICAgJiN4YTsgICAgICAgICAgICAgICAgICAgICAgICAgICAgICAgICAgICAgICAgICAgICAgICAgICAgICAgICAgICAgICAgICAgICAgICAgICAgICAgICAgICAgICAgICAgICAgICAgICAgJiN4YTsgICAgICAgICAgICAgICAgICAgICAgICAgICAgICAgICAgICAgICAgICAgICAgICAgICAgICAgICAgICAgICAgICAgICAgICAgICAgICAgICAgICAgICAgICAgICAgICAgICAgJiN4YTsgICAgICAgICAgICAgICAgICAgICAgICAgICAgICAgICAgICAgICAgICAgICAgICAgICAgICAgICAgICAgICAgICAgICAgICAgICAgICAgICAgICAgICAgICAgICAgICAgICAgJiN4YTsgICAgICAgICAgICAgICAgICAgICAgICAgICAgICAgICAgICAgICAgICAgICAgICAgICAgICAgICAgICAgICAgICAgICAgICAgICAgICAgICAgICAgICAgICAgICAgICAgICAgJiN4YTsgICAgICAgICAgICAgICAgICAgICAgICAgICAgICAgICAgICAgICAgICAgICAgICAgICAgICAgICAgICAgICAgICAgICAgICAgICAgICAgICAgICAgICAgICAgICAgICAgICAgJiN4YTsgICAgICAgICAgICAgICAgICAgICAgICAgICAgICAgICAgICAgICAgICAgICAgICAgICAgICAgICAgICAgICAgICAgICAgICAgICAgICAgICAgICAgICAgICAgICAgICAgICAgJiN4YTsgICAgICAgICAgICAgICAgICAgICAgICAgICAgICAgICAgICAgICAgICAgICAgICAgICAgICAgICAgICAgICAgICAgICAgICAgICAgICAgICAgICAgICAgICAgICAgICAgICAgJiN4YTsgICAgICAgICAgICAgICAgICAgICAgICAgICAgICAgICAgICAgICAgICAgICAgICAgICAgICAgICAgICAgICAgICAgICAgICAgICAgICAgICAgICAgICAgICAgICAgICAgICAgJiN4YTsgICAgICAgICAgICAgICAgICAgICAgICAgICAgICAgICAgICAgICAgICAgICAgICAgICAgICAgICAgICAgICAgICAgICAgICAgICAgICAgICAgICAgICAgICAgICAgICAgICAgJiN4YTsgICAgICAgICAgICAgICAgICAgICAgICAgICAgICAgICAgICAgICAgICAgICAgICAgICAgICAgICAgICAgICAgICAgICAgICAgICAgICAgICAgICAgICAgICAgICAgICAgICAgJiN4YTsgICAgICAgICAgICAgICAgICAgICAgICAgICAgICAgICAgICAgICAgICAgICAgICAgICAgICAgICAgICAgICAgICAgICAgICAgICAgICAgICAgICAgICAgICAgICAgICYjeGE7PC9tZXRhZGF0YT4mI3hhOzxwYXRoIGZpbGw9IiNmZmYiIGQ9Ik0uNSw0MS41VjI2LjMxQTUuMzYsNS4zNiwwLDAsMSw1Ljg1LDIxSDh2LS4zMWE3LjQ0LDcuNDQsMCwxLDEsNy43My0uMTVoLjVhNi4zLDYuMywwLDAsMSw1LTIuNDVoMi42VjE3QTguODksOC44OSwwLDEsMSwzMywxN3YxaDIuNjZhNi40NCw2LjQ0LDAsMCwxLDUsMi40NWguNWE3LjQ0LDcuNDQsMCwxLDEsNy44LjExVjIxaDJhNS4zNiw1LjM2LDAsMCwxLDUuMzUsNS4zNVY0MS41WiIvPjxwYXRoIGZpbGw9IiNmZmYiIGQ9Ik0yOC40MiwxYTguMzksOC4zOSwwLDAsMSw0LjEsMTUuNzJ2MS44M2gzLjE2QTYsNiwwLDAsMSw0MC40OCwyMWgzLjIzYTYuOTQsNi45NCwwLDEsMSwzLDBoMS44di40NmgyLjU1YTQuODYsNC44NiwwLDAsMSw0Ljg1LDQuODVWNDFIMVYyNi4zMWE0Ljg2LDQuODYsMCwwLDEsNC44NS00Ljg1SDguNDdWMjFIMTAuMmE2Ljk0LDYuOTQsMCwxLDEsMywwaDMuMjNhNS43OCw1Ljc4LDAsMCwxLDQuNzItMi40NWgzLjFWMTYuNjhBOC4zOSw4LjM5LDAsMCwxLDI4LjQyLDFtMC0xYTkuMzksOS4zOSwwLDAsMC01LjE1LDE3LjI0di4zMWgtMi4xYTYuNjMsNi42MywwLDAsMC0yLjUuNDksNy45NCw3Ljk0LDAsMSwwLTE0LjktMy44MSw4LDgsMCwwLDAsMyw2LjIzaC0xQTUuODYsNS44NiwwLDAsMCwwLDI2LjMxVjQySDU2LjkzVjI2LjMxYTUuODYsNS44NiwwLDAsMC01Ljg1LTUuODVoLTFhNy45NCw3Ljk0LDAsMSwwLTEyLjg0LTYuMjMsNy44Nyw3Ljg3LDAsMCwwLDEsMy44Myw3LDcsMCwwLDAtMi42LS41MUgzMy41MnYtLjI2QTkuNCw5LjQsMCwwLDAsMjguNDIsMFoiLz48cGF0aCBmaWxsPSIjMmM1OTY3IiBkPSJNNDUuMjIsMjEuMTdhNi45NSw2Ljk1LDAsMSwwLTYuOTQtNi45NEE3LDcsMCwwLDAsNDUuMjIsMjEuMTdaTTQ1LjIyLDlBNS4yNyw1LjI3LDAsMSwxLDQwLDE0LjIzLDUuMjgsNS4yOCwwLDAsMSw0NS4yMiw5WiIvPjxwYXRoIGZpbGw9IiMyYzU5NjciIGQ9Ik01MS4wOCwyMS40Nkg0OS42NWwtLjI1LjMzYTUuMjcsNS4yNywwLDAsMS04LjM2LDBsLS4yNS0uMzNoLS4wOGE1LjgyLDUuODIsMCwwLDAtNS0yLjkxSDM0bC0uMjUuMzNhNi43Miw2LjcyLDAsMCwxLTEwLjY2LDBsLS4yNS0uMzNIMjEuMTdhNS44MSw1LjgxLDAsMCwwLTUsMi45MWgwbC0uMjUuMzNhNS4yNyw1LjI3LDAsMCwxLTguMzYsMGwtLjI1LS4zM0g1Ljg1QTQuODYsNC44NiwwLDAsMCwxLDI2LjMxVjQxSDIuNjhWMjYuMzFhMy4xOCwzLjE4LDAsMCwxLDMuMTctMy4xOGguNjJhNyw3LDAsMCwwLDguODksMS4zNlY0MUgxN1YyNC4zNmE0LjEzLDQuMTMsMCwwLDEsNC4xMy00LjEzSDIyYTguNDEsOC40MSwwLDAsMCwxMi43OSwwaC44NmE0LjEzLDQuMTMsMCwwLDEsNC4xMyw0LjEzVjQxaDEuNjhWMjQuNDNhNi45Myw2LjkzLDAsMCwwLDktMS4zaC42MmEzLjE5LDMuMTksMCwwLDEsMy4xOCwzLjE4VjQxaDEuNjdWMjYuMzFBNC44Niw0Ljg2LDAsMCwwLDUxLjA4LDIxLjQ2WiIvPjxwYXRoIGZpbGw9IiMyYzU5NjciIGQ9Ik0xMS43MSwyMS4xN2E2Ljk1LDYuOTUsMCwxLDAtNi45NC02Ljk0QTcsNywwLDAsMCwxMS43MSwyMS4xN1pNMTEuNzEsOWE1LjI3LDUuMjcsMCwxLDEtNS4yNyw1LjI3QTUuMjcsNS4yNywwLDAsMSwxMS43MSw5WiIvPjxwYXRoIGZpbGw9IiMyYzU5NjciIGQ9Ik0yOC40MiwxNy43OUE4LjQsOC40LDAsMSwwLDIwLDkuNCw4LjQsOC40LDAsMCwwLDI4LjQyLDE3Ljc5Wm0wLTE1LjExQTYuNzIsNi43MiwwLDEsMSwyMS43LDkuNCw2LjczLDYuNzMsMCwwLDEsMjguNDIsMi42OFoiLz48cG9seWdvbiBmaWxsPSIjMmM1OTY3IiBwb2ludHM9IjIxLjE3IDMwLjY0IDIwLjMzIDMwLjY0IDIwLjMzIDQxIDIwLjc1IDQxIDIyLjAxIDQxIDIyLjAxIDMyLjMyIDIxLjE3IDMwLjY0Ii8+PHBvbHlnb24gZmlsbD0iIzJjNTk2NyIgcG9pbnRzPSIzNS42MiAzMC42NCAzNS42MiAzMC42NCAzNC43OCAzMi4zMiAzNC43OCA0MSAzNi4xOCA0MSAzNi40NiA0MSAzNi40NiAzMC42NCAzNS42MiAzMC42NCIvPjxwb2x5Z29uIGZpbGw9IiMyYzU5NjciIHBvaW50cz0iNTAuMDcgMzMuOTkgNTAuMDcgNDEgNTEuNzUgNDEgNTEuNzUgMzIuMzIgNTAuOTEgMzIuMzIgNTAuMDcgMzMuOTkiLz48cG9seWdvbiBmaWxsPSIjMmM1OTY3IiBwb2ludHM9IjUuMTggMzIuMzIgNS4xOCA0MSA2Ljg1IDQxIDYuODUgMzMuOTkgNi4wMSAzMi4zMiA1LjE4IDMyLjMyIi8+PC9zdmc+;" parent="1" vertex="1">
          <mxGeometry x="494" y="590" width="57" height="42" as="geometry" />
        </mxCell>
        <mxCell id="AX1sSN8mTPLwoX_LTjLj-48" value="Developers" style="text;html=1;align=center;verticalAlign=middle;whiteSpace=wrap;rounded=0;fillColor=none;opacity=60;fontSize=12;fontFamily=Oracle Sans Tab;" parent="1" vertex="1">
          <mxGeometry x="492.5" y="640" width="60" height="20" as="geometry" />
        </mxCell>
        <mxCell id="AX1sSN8mTPLwoX_LTjLj-49" value="" style="shape=image;verticalLabelPosition=bottom;labelBackgroundColor=default;verticalAlign=top;aspect=fixed;imageAspect=0;image=data:image/svg+xml,PHN2ZyB4bWxucz0iaHR0cDovL3d3dy53My5vcmcvMjAwMC9zdmciIHZpZXdCb3g9IjAgMCA1Ni45MyA0MiIgZGF0YS1uYW1lPSJMYXllciAxIiBpZD0iTGF5ZXJfMSI+PHRpdGxlPkdyb3VwczwvdGl0bGU+PG1ldGFkYXRhPiYjeGE7JiN4YTsgICAmI3hhOyAgICAgICYjeGE7ICAgICAgICAgJiN4YTsgICAgICAgICAgICAmI3hhOyAgICAgICAgICAgICAgIEdyb3VwcyYjeGE7ICAgICAgICAgICAgJiN4YTsgICAgICAgICAmI3hhOyAgICAgICAgICYjeGE7ICAgICAgICAgICAgJiN4YTsgICAgICAgICAgICAgICBVc2VyJiN4YTsgICAgICAgICAgICAgICBQZXJzb24mI3hhOyAgICAgICAgICAgICAgIFBlb3BsZSYjeGE7ICAgICAgICAgICAgICAgUGVyc29uYSYjeGE7ICAgICAgICAgICAgICAgaWNvbiYjeGE7ICAgICAgICAgICAgJiN4YTsgICAgICAgICAmI3hhOyAgICAgICAgIDIwMjItMTAtMjFUMTM6NDU6MjktMDU6MDAmI3hhOyAgICAgICAgIHhtcC5paWQ6NjgzMjIyOTktOWUxMi00Mzc3LWE1NDUtMzZhYzcxMGU1M2U5JiN4YTsgICAgICAgICB4bXAuZGlkOjMzYzhhYjkxLWM3N2MtNDhjYS1iN2QzLWMxNTQ0YTE2MzY3MCYjeGE7ICAgICAgICAgeG1wLmRpZDozM2M4YWI5MS1jNzdjLTQ4Y2EtYjdkMy1jMTU0NGExNjM2NzAmI3hhOyAgICAgICAgICYjeGE7ICAgICAgICAgICAgJiN4YTsgICAgICAgICAgICAgICAmI3hhOyAgICAgICAgICAgICAgICAgICYjeGE7ICAgICAgICAgICAgICAgICAgICAgc2F2ZWQmI3hhOyAgICAgICAgICAgICAgICAgICAgIHhtcC5paWQ6MzNjOGFiOTEtYzc3Yy00OGNhLWI3ZDMtYzE1NDRhMTYzNjcwJiN4YTsgICAgICAgICAgICAgICAgICAgICAyMDIxLTA4LTMxVDE1OjQ0OjE5LTA1OjAwJiN4YTsgICAgICAgICAgICAgICAgICAgICBBZG9iZSBCcmlkZ2UgMjAyMSAoTWFjaW50b3NoKSYjeGE7ICAgICAgICAgICAgICAgICAgICAgL21ldGFkYXRhJiN4YTsgICAgICAgICAgICAgICAgICAmI3hhOyAgICAgICAgICAgICAgICYjeGE7ICAgICAgICAgICAgICAgJiN4YTsgICAgICAgICAgICAgICAgICAmI3hhOyAgICAgICAgICAgICAgICAgICAgIHNhdmVkJiN4YTsgICAgICAgICAgICAgICAgICAgICB4bXAuaWlkOjY4MzIyMjk5LTllMTItNDM3Ny1hNTQ1LTM2YWM3MTBlNTNlOSYjeGE7ICAgICAgICAgICAgICAgICAgICAgMjAyMi0xMC0yMVQxMzo0NToyOS0wNTowMCYjeGE7ICAgICAgICAgICAgICAgICAgICAgQWRvYmUgQnJpZGdlIDIwMjEgKE1hY2ludG9zaCkmI3hhOyAgICAgICAgICAgICAgICAgICAgIC9tZXRhZGF0YSYjeGE7ICAgICAgICAgICAgICAgICAgJiN4YTsgICAgICAgICAgICAgICAmI3hhOyAgICAgICAgICAgICYjeGE7ICAgICAgICAgJiN4YTsgICAgICAmI3hhOyAgICYjeGE7JiN4YTsgICAgICAgICAgICAgICAgICAgICAgICAgICAgICAgICAgICAgICAgICAgICAgICAgICAgICAgICAgICAgICAgICAgICAgICAgICAgICAgICAgICAgICAgICAgICAgICAgICAgJiN4YTsgICAgICAgICAgICAgICAgICAgICAgICAgICAgICAgICAgICAgICAgICAgICAgICAgICAgICAgICAgICAgICAgICAgICAgICAgICAgICAgICAgICAgICAgICAgICAgICAgICAgJiN4YTsgICAgICAgICAgICAgICAgICAgICAgICAgICAgICAgICAgICAgICAgICAgICAgICAgICAgICAgICAgICAgICAgICAgICAgICAgICAgICAgICAgICAgICAgICAgICAgICAgICAgJiN4YTsgICAgICAgICAgICAgICAgICAgICAgICAgICAgICAgICAgICAgICAgICAgICAgICAgICAgICAgICAgICAgICAgICAgICAgICAgICAgICAgICAgICAgICAgICAgICAgICAgICAgJiN4YTsgICAgICAgICAgICAgICAgICAgICAgICAgICAgICAgICAgICAgICAgICAgICAgICAgICAgICAgICAgICAgICAgICAgICAgICAgICAgICAgICAgICAgICAgICAgICAgICAgICAgJiN4YTsgICAgICAgICAgICAgICAgICAgICAgICAgICAgICAgICAgICAgICAgICAgICAgICAgICAgICAgICAgICAgICAgICAgICAgICAgICAgICAgICAgICAgICAgICAgICAgICAgICAgJiN4YTsgICAgICAgICAgICAgICAgICAgICAgICAgICAgICAgICAgICAgICAgICAgICAgICAgICAgICAgICAgICAgICAgICAgICAgICAgICAgICAgICAgICAgICAgICAgICAgICAgICAgJiN4YTsgICAgICAgICAgICAgICAgICAgICAgICAgICAgICAgICAgICAgICAgICAgICAgICAgICAgICAgICAgICAgICAgICAgICAgICAgICAgICAgICAgICAgICAgICAgICAgICAgICAgJiN4YTsgICAgICAgICAgICAgICAgICAgICAgICAgICAgICAgICAgICAgICAgICAgICAgICAgICAgICAgICAgICAgICAgICAgICAgICAgICAgICAgICAgICAgICAgICAgICAgICAgICAgJiN4YTsgICAgICAgICAgICAgICAgICAgICAgICAgICAgICAgICAgICAgICAgICAgICAgICAgICAgICAgICAgICAgICAgICAgICAgICAgICAgICAgICAgICAgICAgICAgICAgICAgICAgJiN4YTsgICAgICAgICAgICAgICAgICAgICAgICAgICAgICAgICAgICAgICAgICAgICAgICAgICAgICAgICAgICAgICAgICAgICAgICAgICAgICAgICAgICAgICAgICAgICAgICAgICAgJiN4YTsgICAgICAgICAgICAgICAgICAgICAgICAgICAgICAgICAgICAgICAgICAgICAgICAgICAgICAgICAgICAgICAgICAgICAgICAgICAgICAgICAgICAgICAgICAgICAgICAgICAgJiN4YTsgICAgICAgICAgICAgICAgICAgICAgICAgICAgICAgICAgICAgICAgICAgICAgICAgICAgICAgICAgICAgICAgICAgICAgICAgICAgICAgICAgICAgICAgICAgICAgICAgICAgJiN4YTsgICAgICAgICAgICAgICAgICAgICAgICAgICAgICAgICAgICAgICAgICAgICAgICAgICAgICAgICAgICAgICAgICAgICAgICAgICAgICAgICAgICAgICAgICAgICAgICYjeGE7PC9tZXRhZGF0YT4mI3hhOzxwYXRoIGZpbGw9IiNmZmYiIGQ9Ik0uNSw0MS41VjI2LjMxQTUuMzYsNS4zNiwwLDAsMSw1Ljg1LDIxSDh2LS4zMWE3LjQ0LDcuNDQsMCwxLDEsNy43My0uMTVoLjVhNi4zLDYuMywwLDAsMSw1LTIuNDVoMi42VjE3QTguODksOC44OSwwLDEsMSwzMywxN3YxaDIuNjZhNi40NCw2LjQ0LDAsMCwxLDUsMi40NWguNWE3LjQ0LDcuNDQsMCwxLDEsNy44LjExVjIxaDJhNS4zNiw1LjM2LDAsMCwxLDUuMzUsNS4zNVY0MS41WiIvPjxwYXRoIGZpbGw9IiNmZmYiIGQ9Ik0yOC40MiwxYTguMzksOC4zOSwwLDAsMSw0LjEsMTUuNzJ2MS44M2gzLjE2QTYsNiwwLDAsMSw0MC40OCwyMWgzLjIzYTYuOTQsNi45NCwwLDEsMSwzLDBoMS44di40NmgyLjU1YTQuODYsNC44NiwwLDAsMSw0Ljg1LDQuODVWNDFIMVYyNi4zMWE0Ljg2LDQuODYsMCwwLDEsNC44NS00Ljg1SDguNDdWMjFIMTAuMmE2Ljk0LDYuOTQsMCwxLDEsMywwaDMuMjNhNS43OCw1Ljc4LDAsMCwxLDQuNzItMi40NWgzLjFWMTYuNjhBOC4zOSw4LjM5LDAsMCwxLDI4LjQyLDFtMC0xYTkuMzksOS4zOSwwLDAsMC01LjE1LDE3LjI0di4zMWgtMi4xYTYuNjMsNi42MywwLDAsMC0yLjUuNDksNy45NCw3Ljk0LDAsMSwwLTE0LjktMy44MSw4LDgsMCwwLDAsMyw2LjIzaC0xQTUuODYsNS44NiwwLDAsMCwwLDI2LjMxVjQySDU2LjkzVjI2LjMxYTUuODYsNS44NiwwLDAsMC01Ljg1LTUuODVoLTFhNy45NCw3Ljk0LDAsMSwwLTEyLjg0LTYuMjMsNy44Nyw3Ljg3LDAsMCwwLDEsMy44Myw3LDcsMCwwLDAtMi42LS41MUgzMy41MnYtLjI2QTkuNCw5LjQsMCwwLDAsMjguNDIsMFoiLz48cGF0aCBmaWxsPSIjMmM1OTY3IiBkPSJNNDUuMjIsMjEuMTdhNi45NSw2Ljk1LDAsMSwwLTYuOTQtNi45NEE3LDcsMCwwLDAsNDUuMjIsMjEuMTdaTTQ1LjIyLDlBNS4yNyw1LjI3LDAsMSwxLDQwLDE0LjIzLDUuMjgsNS4yOCwwLDAsMSw0NS4yMiw5WiIvPjxwYXRoIGZpbGw9IiMyYzU5NjciIGQ9Ik01MS4wOCwyMS40Nkg0OS42NWwtLjI1LjMzYTUuMjcsNS4yNywwLDAsMS04LjM2LDBsLS4yNS0uMzNoLS4wOGE1LjgyLDUuODIsMCwwLDAtNS0yLjkxSDM0bC0uMjUuMzNhNi43Miw2LjcyLDAsMCwxLTEwLjY2LDBsLS4yNS0uMzNIMjEuMTdhNS44MSw1LjgxLDAsMCwwLTUsMi45MWgwbC0uMjUuMzNhNS4yNyw1LjI3LDAsMCwxLTguMzYsMGwtLjI1LS4zM0g1Ljg1QTQuODYsNC44NiwwLDAsMCwxLDI2LjMxVjQxSDIuNjhWMjYuMzFhMy4xOCwzLjE4LDAsMCwxLDMuMTctMy4xOGguNjJhNyw3LDAsMCwwLDguODksMS4zNlY0MUgxN1YyNC4zNmE0LjEzLDQuMTMsMCwwLDEsNC4xMy00LjEzSDIyYTguNDEsOC40MSwwLDAsMCwxMi43OSwwaC44NmE0LjEzLDQuMTMsMCwwLDEsNC4xMyw0LjEzVjQxaDEuNjhWMjQuNDNhNi45Myw2LjkzLDAsMCwwLDktMS4zaC42MmEzLjE5LDMuMTksMCwwLDEsMy4xOCwzLjE4VjQxaDEuNjdWMjYuMzFBNC44Niw0Ljg2LDAsMCwwLDUxLjA4LDIxLjQ2WiIvPjxwYXRoIGZpbGw9IiMyYzU5NjciIGQ9Ik0xMS43MSwyMS4xN2E2Ljk1LDYuOTUsMCwxLDAtNi45NC02Ljk0QTcsNywwLDAsMCwxMS43MSwyMS4xN1pNMTEuNzEsOWE1LjI3LDUuMjcsMCwxLDEtNS4yNyw1LjI3QTUuMjcsNS4yNywwLDAsMSwxMS43MSw5WiIvPjxwYXRoIGZpbGw9IiMyYzU5NjciIGQ9Ik0yOC40MiwxNy43OUE4LjQsOC40LDAsMSwwLDIwLDkuNCw4LjQsOC40LDAsMCwwLDI4LjQyLDE3Ljc5Wm0wLTE1LjExQTYuNzIsNi43MiwwLDEsMSwyMS43LDkuNCw2LjczLDYuNzMsMCwwLDEsMjguNDIsMi42OFoiLz48cG9seWdvbiBmaWxsPSIjMmM1OTY3IiBwb2ludHM9IjIxLjE3IDMwLjY0IDIwLjMzIDMwLjY0IDIwLjMzIDQxIDIwLjc1IDQxIDIyLjAxIDQxIDIyLjAxIDMyLjMyIDIxLjE3IDMwLjY0Ii8+PHBvbHlnb24gZmlsbD0iIzJjNTk2NyIgcG9pbnRzPSIzNS42MiAzMC42NCAzNS42MiAzMC42NCAzNC43OCAzMi4zMiAzNC43OCA0MSAzNi4xOCA0MSAzNi40NiA0MSAzNi40NiAzMC42NCAzNS42MiAzMC42NCIvPjxwb2x5Z29uIGZpbGw9IiMyYzU5NjciIHBvaW50cz0iNTAuMDcgMzMuOTkgNTAuMDcgNDEgNTEuNzUgNDEgNTEuNzUgMzIuMzIgNTAuOTEgMzIuMzIgNTAuMDcgMzMuOTkiLz48cG9seWdvbiBmaWxsPSIjMmM1OTY3IiBwb2ludHM9IjUuMTggMzIuMzIgNS4xOCA0MSA2Ljg1IDQxIDYuODUgMzMuOTkgNi4wMSAzMi4zMiA1LjE4IDMyLjMyIi8+PC9zdmc+;" parent="1" vertex="1">
          <mxGeometry x="619" y="590" width="57" height="42" as="geometry" />
        </mxCell>
        <mxCell id="AX1sSN8mTPLwoX_LTjLj-50" value="Users" style="text;html=1;align=center;verticalAlign=middle;whiteSpace=wrap;rounded=0;fillColor=none;opacity=60;fontSize=12;fontFamily=Oracle Sans Tab;" parent="1" vertex="1">
          <mxGeometry x="617.5" y="640" width="60" height="20" as="geometry" />
        </mxCell>
        <mxCell id="AX1sSN8mTPLwoX_LTjLj-53" style="edgeStyle=orthogonalEdgeStyle;rounded=0;orthogonalLoop=1;jettySize=auto;html=1;exitX=0.5;exitY=0;exitDx=0;exitDy=0;entryX=0.5;entryY=1;entryDx=0;entryDy=0;strokeColor=#4D4D4D;align=center;verticalAlign=middle;fontFamily=Helvetica;fontSize=11;fontColor=default;labelBackgroundColor=default;startArrow=oval;startFill=1;endArrow=oval;endFill=1;" parent="1" source="AX1sSN8mTPLwoX_LTjLj-47" target="AX1sSN8mTPLwoX_LTjLj-31" edge="1">
          <mxGeometry relative="1" as="geometry">
            <Array as="points">
              <mxPoint x="522" y="540" />
              <mxPoint x="578" y="540" />
            </Array>
          </mxGeometry>
        </mxCell>
        <mxCell id="AX1sSN8mTPLwoX_LTjLj-55" style="edgeStyle=orthogonalEdgeStyle;rounded=0;orthogonalLoop=1;jettySize=auto;html=1;exitX=1;exitY=0;exitDx=0;exitDy=0;entryX=0.25;entryY=1;entryDx=0;entryDy=0;strokeColor=#4D4D4D;align=center;verticalAlign=middle;fontFamily=Helvetica;fontSize=11;fontColor=default;labelBackgroundColor=default;startArrow=oval;startFill=1;endArrow=oval;endFill=1;" parent="1" source="AX1sSN8mTPLwoX_LTjLj-47" target="AX1sSN8mTPLwoX_LTjLj-39" edge="1">
          <mxGeometry relative="1" as="geometry">
            <Array as="points">
              <mxPoint x="551" y="560" />
              <mxPoint x="936" y="560" />
            </Array>
          </mxGeometry>
        </mxCell>
        <mxCell id="AX1sSN8mTPLwoX_LTjLj-56" style="edgeStyle=orthogonalEdgeStyle;rounded=0;orthogonalLoop=1;jettySize=auto;html=1;exitX=0.5;exitY=0;exitDx=0;exitDy=0;entryX=0.54;entryY=0.997;entryDx=0;entryDy=0;entryPerimeter=0;strokeColor=#4D4D4D;align=center;verticalAlign=middle;fontFamily=Helvetica;fontSize=11;fontColor=default;labelBackgroundColor=default;startArrow=oval;startFill=1;endArrow=oval;endFill=1;" parent="1" source="AX1sSN8mTPLwoX_LTjLj-49" target="AX1sSN8mTPLwoX_LTjLj-39" edge="1">
          <mxGeometry relative="1" as="geometry">
            <Array as="points">
              <mxPoint x="648" y="570" />
              <mxPoint x="978" y="570" />
            </Array>
          </mxGeometry>
        </mxCell>
        <mxCell id="AX1sSN8mTPLwoX_LTjLj-58" value="SQL Net&lt;div&gt;TCP/1522&lt;/div&gt;" style="text;html=1;align=center;verticalAlign=middle;whiteSpace=wrap;rounded=0;fillColor=none;opacity=60;fontSize=12;fontFamily=Oracle Sans Tab;" parent="1" vertex="1">
          <mxGeometry x="780" y="430" width="65.5" height="30" as="geometry" />
        </mxCell>
        <mxCell id="AX1sSN8mTPLwoX_LTjLj-59" value="HTTPS&lt;div&gt;TCP/443&lt;/div&gt;" style="text;html=1;align=center;verticalAlign=middle;whiteSpace=wrap;rounded=0;fillColor=none;opacity=60;fontSize=12;fontFamily=Oracle Sans Tab;" parent="1" vertex="1">
          <mxGeometry x="640" y="430" width="65.5" height="30" as="geometry" />
        </mxCell>
        <mxCell id="AX1sSN8mTPLwoX_LTjLj-60" value="HTTPS&lt;div&gt;TCP/443&lt;/div&gt;" style="text;html=1;align=center;verticalAlign=middle;whiteSpace=wrap;rounded=0;fillColor=none;opacity=60;fontSize=12;fontFamily=Oracle Sans Tab;" parent="1" vertex="1">
          <mxGeometry x="979.5" y="430" width="65.5" height="30" as="geometry" />
        </mxCell>
        <mxCell id="AX1sSN8mTPLwoX_LTjLj-61" value="SSH&lt;div&gt;TCP/22&lt;/div&gt;" style="text;html=1;align=center;verticalAlign=middle;whiteSpace=wrap;rounded=0;fillColor=none;opacity=60;fontSize=12;fontFamily=Oracle Sans Tab;" parent="1" vertex="1">
          <mxGeometry x="400" y="430" width="60" height="30" as="geometry" />
        </mxCell>
      </root>
    </mxGraphModel>
  </diagram>
  <diagram id="hZnx28TJ2k7rRNVqu5fw" name="model">
    <mxGraphModel dx="2522" dy="1519" grid="1" gridSize="10" guides="1" tooltips="1" connect="1" arrows="1" fold="1" page="1" pageScale="1" pageWidth="1169" pageHeight="827" math="0" shadow="0">
      <root>
        <mxCell id="0" />
        <mxCell id="1" parent="0" />
        <mxCell id="9OTNe9Qs4-yeGuedBU2K-1" value="&lt;div&gt;{&lt;/div&gt;&lt;div&gt;&amp;nbsp; &quot;document_date&quot;: &quot;document date&quot;,..&lt;/div&gt;&lt;div&gt;&amp;nbsp; &quot;document_body&quot;: {&lt;/div&gt;&lt;div&gt;&amp;nbsp; &amp;nbsp; &quot;detail&quot;: {&lt;/div&gt;&lt;div&gt;&amp;nbsp; &amp;nbsp; &amp;nbsp; &quot;document_id&quot;: &quot;unique ID of the document&quot;,&lt;/div&gt;&lt;div&gt;&amp;nbsp; &amp;nbsp; &amp;nbsp; &quot;invoice_number&quot;: &quot;invoice number&quot;,..&lt;/div&gt;&lt;div&gt;&amp;nbsp; &amp;nbsp; },&lt;/div&gt;&lt;div&gt;&amp;nbsp; &amp;nbsp; &quot;customer&quot;: {&lt;/div&gt;&lt;div&gt;&amp;nbsp; &amp;nbsp; &amp;nbsp; &quot;customer_number&quot;: &quot;customer number&quot;,&lt;/div&gt;&lt;div&gt;&amp;nbsp; &amp;nbsp; &amp;nbsp; &quot;name&quot;: &quot;customer name&quot;,&lt;/div&gt;&lt;div&gt;&amp;nbsp; &amp;nbsp; &amp;nbsp; &quot;addresses&quot;: [&lt;/div&gt;&lt;div&gt;&amp;nbsp; &amp;nbsp; &amp;nbsp; &amp;nbsp; {&lt;/div&gt;&lt;div&gt;&amp;nbsp; &amp;nbsp; &amp;nbsp; &amp;nbsp; &amp;nbsp; &quot;address_type&quot;: &quot;address type&quot;,&lt;/div&gt;&lt;div&gt;&amp;nbsp; &amp;nbsp; &amp;nbsp; &amp;nbsp; &amp;nbsp; &quot;contact_name&quot;: &quot;contact name&quot;,..&lt;/div&gt;&lt;div&gt;&amp;nbsp; &amp;nbsp; &amp;nbsp; &amp;nbsp; },..&lt;/div&gt;&lt;div&gt;&amp;nbsp; &amp;nbsp; &amp;nbsp; ]&lt;/div&gt;&lt;div&gt;&amp;nbsp; &amp;nbsp; },&lt;/div&gt;&lt;div&gt;&amp;nbsp; &amp;nbsp; &quot;total&quot;: {&lt;/div&gt;&lt;div&gt;&amp;nbsp; &amp;nbsp; &amp;nbsp; &quot;base_amount&quot;: total base amount,&lt;/div&gt;&lt;div&gt;&amp;nbsp; &amp;nbsp; &amp;nbsp; &quot;net_amount&quot;: net amount,..&lt;/div&gt;&lt;div&gt;&amp;nbsp; &amp;nbsp; },&lt;/div&gt;&lt;div&gt;&amp;nbsp; &amp;nbsp; &quot;tax_lines&quot;: [&lt;/div&gt;&lt;div&gt;&amp;nbsp; &amp;nbsp; &amp;nbsp; {&lt;/div&gt;&lt;div&gt;&amp;nbsp; &amp;nbsp; &amp;nbsp; &amp;nbsp; &quot;tax_code&quot;: &quot;tax code&quot;,&lt;/div&gt;&lt;div&gt;&amp;nbsp; &amp;nbsp; &amp;nbsp; &amp;nbsp; &quot;tax_pct&quot;: tax percentage,..&lt;/div&gt;&lt;div&gt;&amp;nbsp; &amp;nbsp; &amp;nbsp; },..&lt;/div&gt;&lt;div&gt;&amp;nbsp; &amp;nbsp; ],&lt;/div&gt;&lt;div&gt;&amp;nbsp; &amp;nbsp; &quot;lines&quot;: [&lt;/div&gt;&lt;div&gt;&amp;nbsp; &amp;nbsp; &amp;nbsp; {&lt;/div&gt;&lt;div&gt;&amp;nbsp; &amp;nbsp; &amp;nbsp; &amp;nbsp; &quot;line_number&quot;: line number,&lt;/div&gt;&lt;div&gt;&amp;nbsp; &amp;nbsp; &amp;nbsp; &amp;nbsp; &quot;product_code&quot;: &quot;product code&quot;,..&lt;/div&gt;&lt;div&gt;&amp;nbsp; &amp;nbsp; &amp;nbsp; },..&lt;/div&gt;&lt;div&gt;&amp;nbsp; &amp;nbsp; ],&lt;/div&gt;&lt;div&gt;&amp;nbsp; &amp;nbsp; &quot;comments&quot;: [&lt;/div&gt;&lt;div&gt;&amp;nbsp; &amp;nbsp; &amp;nbsp; {&lt;/div&gt;&lt;div&gt;&amp;nbsp; &amp;nbsp; &amp;nbsp; &amp;nbsp; &quot;comment_number&quot;: comment number,&lt;/div&gt;&lt;div&gt;&amp;nbsp; &amp;nbsp; &amp;nbsp; &amp;nbsp; &quot;comment_text&quot;: &quot;invoice comment&quot;&lt;/div&gt;&lt;div&gt;&amp;nbsp; &amp;nbsp; &amp;nbsp; },..&lt;/div&gt;&lt;div&gt;&amp;nbsp; &amp;nbsp; ]&lt;/div&gt;&lt;div&gt;&amp;nbsp; }&lt;/div&gt;&lt;div&gt;}&lt;/div&gt;" style="shape=document;whiteSpace=wrap;html=1;boundedLbl=1;size=0.12962962962962984;fontSize=10;fontFamily=Lucida Console;align=left;verticalAlign=top;fillColor=#FFF2CC;spacingLeft=6;" parent="1" vertex="1">
          <mxGeometry x="40" y="40" width="320" height="540" as="geometry" />
        </mxCell>
        <mxCell id="uSfrNIYk9S4OBJwJfiQj-4" value="" style="group" parent="1" vertex="1" connectable="0">
          <mxGeometry x="380" y="140" width="300" height="340" as="geometry" />
        </mxCell>
        <mxCell id="9OTNe9Qs4-yeGuedBU2K-13" style="edgeStyle=orthogonalEdgeStyle;rounded=0;orthogonalLoop=1;jettySize=auto;html=1;exitX=0.25;exitY=1;exitDx=0;exitDy=0;entryX=0;entryY=0.5;entryDx=0;entryDy=0;endArrow=none;endFill=0;strokeColor=#B3B3B3;" parent="uSfrNIYk9S4OBJwJfiQj-4" source="9OTNe9Qs4-yeGuedBU2K-2" target="9OTNe9Qs4-yeGuedBU2K-3" edge="1">
          <mxGeometry relative="1" as="geometry" />
        </mxCell>
        <mxCell id="9OTNe9Qs4-yeGuedBU2K-2" value="$ (root)" style="rounded=1;whiteSpace=wrap;html=1;fontFamily=Lucida Console;fontSize=10;align=left;spacingLeft=6;strokeWidth=2;" parent="uSfrNIYk9S4OBJwJfiQj-4" vertex="1">
          <mxGeometry width="120" height="20" as="geometry" />
        </mxCell>
        <mxCell id="9OTNe9Qs4-yeGuedBU2K-15" style="edgeStyle=orthogonalEdgeStyle;rounded=0;orthogonalLoop=1;jettySize=auto;html=1;exitX=0.25;exitY=1;exitDx=0;exitDy=0;entryX=0;entryY=0.5;entryDx=0;entryDy=0;endArrow=none;endFill=0;strokeColor=#B3B3B3;" parent="uSfrNIYk9S4OBJwJfiQj-4" source="9OTNe9Qs4-yeGuedBU2K-3" target="9OTNe9Qs4-yeGuedBU2K-4" edge="1">
          <mxGeometry relative="1" as="geometry" />
        </mxCell>
        <mxCell id="9OTNe9Qs4-yeGuedBU2K-16" style="edgeStyle=orthogonalEdgeStyle;rounded=0;orthogonalLoop=1;jettySize=auto;html=1;exitX=0.25;exitY=1;exitDx=0;exitDy=0;entryX=0;entryY=0.5;entryDx=0;entryDy=0;endArrow=none;endFill=0;strokeColor=#B3B3B3;" parent="uSfrNIYk9S4OBJwJfiQj-4" source="9OTNe9Qs4-yeGuedBU2K-3" target="9OTNe9Qs4-yeGuedBU2K-5" edge="1">
          <mxGeometry relative="1" as="geometry" />
        </mxCell>
        <mxCell id="9OTNe9Qs4-yeGuedBU2K-17" style="edgeStyle=orthogonalEdgeStyle;rounded=0;orthogonalLoop=1;jettySize=auto;html=1;exitX=0.25;exitY=1;exitDx=0;exitDy=0;entryX=0;entryY=0.5;entryDx=0;entryDy=0;endArrow=none;endFill=0;strokeColor=#B3B3B3;" parent="uSfrNIYk9S4OBJwJfiQj-4" source="9OTNe9Qs4-yeGuedBU2K-3" target="9OTNe9Qs4-yeGuedBU2K-8" edge="1">
          <mxGeometry relative="1" as="geometry" />
        </mxCell>
        <mxCell id="9OTNe9Qs4-yeGuedBU2K-18" style="edgeStyle=orthogonalEdgeStyle;rounded=0;orthogonalLoop=1;jettySize=auto;html=1;exitX=0.25;exitY=1;exitDx=0;exitDy=0;entryX=0;entryY=0.5;entryDx=0;entryDy=0;endArrow=none;endFill=0;strokeColor=#B3B3B3;" parent="uSfrNIYk9S4OBJwJfiQj-4" source="9OTNe9Qs4-yeGuedBU2K-3" target="9OTNe9Qs4-yeGuedBU2K-9" edge="1">
          <mxGeometry relative="1" as="geometry" />
        </mxCell>
        <mxCell id="9OTNe9Qs4-yeGuedBU2K-19" style="edgeStyle=orthogonalEdgeStyle;rounded=0;orthogonalLoop=1;jettySize=auto;html=1;exitX=0.25;exitY=1;exitDx=0;exitDy=0;entryX=0;entryY=0.5;entryDx=0;entryDy=0;endArrow=none;endFill=0;strokeColor=#B3B3B3;" parent="uSfrNIYk9S4OBJwJfiQj-4" source="9OTNe9Qs4-yeGuedBU2K-3" target="9OTNe9Qs4-yeGuedBU2K-10" edge="1">
          <mxGeometry relative="1" as="geometry" />
        </mxCell>
        <mxCell id="9OTNe9Qs4-yeGuedBU2K-20" style="edgeStyle=orthogonalEdgeStyle;rounded=0;orthogonalLoop=1;jettySize=auto;html=1;exitX=0.25;exitY=1;exitDx=0;exitDy=0;entryX=0;entryY=0.5;entryDx=0;entryDy=0;endArrow=none;endFill=0;strokeColor=#B3B3B3;" parent="uSfrNIYk9S4OBJwJfiQj-4" source="9OTNe9Qs4-yeGuedBU2K-3" target="9OTNe9Qs4-yeGuedBU2K-11" edge="1">
          <mxGeometry relative="1" as="geometry" />
        </mxCell>
        <mxCell id="9OTNe9Qs4-yeGuedBU2K-3" value="document_body" style="rounded=1;whiteSpace=wrap;html=1;fontFamily=Lucida Console;fontSize=10;align=left;spacingLeft=6;" parent="uSfrNIYk9S4OBJwJfiQj-4" vertex="1">
          <mxGeometry x="60" y="40" width="120" height="20" as="geometry" />
        </mxCell>
        <mxCell id="9OTNe9Qs4-yeGuedBU2K-4" value="detail" style="rounded=1;whiteSpace=wrap;html=1;fontFamily=Lucida Console;fontSize=10;align=left;spacingLeft=6;" parent="uSfrNIYk9S4OBJwJfiQj-4" vertex="1">
          <mxGeometry x="120" y="80" width="120" height="20" as="geometry" />
        </mxCell>
        <mxCell id="9OTNe9Qs4-yeGuedBU2K-21" style="edgeStyle=orthogonalEdgeStyle;rounded=0;orthogonalLoop=1;jettySize=auto;html=1;exitX=0.25;exitY=1;exitDx=0;exitDy=0;entryX=0;entryY=0.5;entryDx=0;entryDy=0;endArrow=none;endFill=0;strokeColor=#B3B3B3;" parent="uSfrNIYk9S4OBJwJfiQj-4" source="9OTNe9Qs4-yeGuedBU2K-5" target="9OTNe9Qs4-yeGuedBU2K-7" edge="1">
          <mxGeometry relative="1" as="geometry" />
        </mxCell>
        <mxCell id="9OTNe9Qs4-yeGuedBU2K-5" value="customer" style="rounded=1;whiteSpace=wrap;html=1;fontFamily=Lucida Console;fontSize=10;align=left;spacingLeft=6;" parent="uSfrNIYk9S4OBJwJfiQj-4" vertex="1">
          <mxGeometry x="120" y="120" width="120" height="20" as="geometry" />
        </mxCell>
        <mxCell id="9OTNe9Qs4-yeGuedBU2K-7" value="addresses[]" style="rounded=1;whiteSpace=wrap;html=1;fontFamily=Lucida Console;fontSize=10;align=left;spacingLeft=6;strokeWidth=2;" parent="uSfrNIYk9S4OBJwJfiQj-4" vertex="1">
          <mxGeometry x="180" y="160" width="120" height="20" as="geometry" />
        </mxCell>
        <mxCell id="9OTNe9Qs4-yeGuedBU2K-8" value="total" style="rounded=1;whiteSpace=wrap;html=1;fontFamily=Lucida Console;fontSize=10;align=left;spacingLeft=6;" parent="uSfrNIYk9S4OBJwJfiQj-4" vertex="1">
          <mxGeometry x="120" y="200" width="120" height="20" as="geometry" />
        </mxCell>
        <mxCell id="9OTNe9Qs4-yeGuedBU2K-9" value="tax_lines[]" style="rounded=1;whiteSpace=wrap;html=1;fontFamily=Lucida Console;fontSize=10;align=left;spacingLeft=6;strokeWidth=2;" parent="uSfrNIYk9S4OBJwJfiQj-4" vertex="1">
          <mxGeometry x="120" y="240" width="120" height="20" as="geometry" />
        </mxCell>
        <mxCell id="9OTNe9Qs4-yeGuedBU2K-10" value="lines[]" style="rounded=1;whiteSpace=wrap;html=1;fontFamily=Lucida Console;fontSize=10;align=left;spacingLeft=6;strokeWidth=2;" parent="uSfrNIYk9S4OBJwJfiQj-4" vertex="1">
          <mxGeometry x="120" y="280" width="120" height="20" as="geometry" />
        </mxCell>
        <mxCell id="9OTNe9Qs4-yeGuedBU2K-11" value="comments[]" style="rounded=1;whiteSpace=wrap;html=1;fontFamily=Lucida Console;fontSize=10;align=left;spacingLeft=6;strokeWidth=2;" parent="uSfrNIYk9S4OBJwJfiQj-4" vertex="1">
          <mxGeometry x="120" y="320" width="120" height="20" as="geometry" />
        </mxCell>
        <mxCell id="uSfrNIYk9S4OBJwJfiQj-5" value="" style="group" parent="1" vertex="1" connectable="0">
          <mxGeometry x="770" y="100" width="360" height="410" as="geometry" />
        </mxCell>
        <mxCell id="9OTNe9Qs4-yeGuedBU2K-47" style="edgeStyle=orthogonalEdgeStyle;rounded=0;orthogonalLoop=1;jettySize=auto;html=1;exitX=1;exitY=0.5;exitDx=0;exitDy=0;entryX=0;entryY=0.5;entryDx=0;entryDy=0;endArrow=ERmany;endFill=0;strokeColor=#B3B3B3;" parent="uSfrNIYk9S4OBJwJfiQj-5" source="9OTNe9Qs4-yeGuedBU2K-22" target="9OTNe9Qs4-yeGuedBU2K-28" edge="1">
          <mxGeometry relative="1" as="geometry" />
        </mxCell>
        <mxCell id="9OTNe9Qs4-yeGuedBU2K-48" style="edgeStyle=orthogonalEdgeStyle;rounded=0;orthogonalLoop=1;jettySize=auto;html=1;exitX=0.5;exitY=1;exitDx=0;exitDy=0;entryX=0.5;entryY=0;entryDx=0;entryDy=0;strokeColor=#B3B3B3;align=center;verticalAlign=middle;fontFamily=Helvetica;fontSize=11;fontColor=default;labelBackgroundColor=default;endArrow=ERmany;endFill=0;" parent="uSfrNIYk9S4OBJwJfiQj-5" source="9OTNe9Qs4-yeGuedBU2K-22" target="9OTNe9Qs4-yeGuedBU2K-41" edge="1">
          <mxGeometry relative="1" as="geometry" />
        </mxCell>
        <mxCell id="9OTNe9Qs4-yeGuedBU2K-49" style="edgeStyle=orthogonalEdgeStyle;rounded=0;orthogonalLoop=1;jettySize=auto;html=1;exitX=1;exitY=0.75;exitDx=0;exitDy=0;entryX=0;entryY=0.5;entryDx=0;entryDy=0;strokeColor=#B3B3B3;align=center;verticalAlign=middle;fontFamily=Helvetica;fontSize=11;fontColor=default;labelBackgroundColor=default;endArrow=ERmany;endFill=0;" parent="uSfrNIYk9S4OBJwJfiQj-5" source="9OTNe9Qs4-yeGuedBU2K-22" target="9OTNe9Qs4-yeGuedBU2K-34" edge="1">
          <mxGeometry relative="1" as="geometry" />
        </mxCell>
        <mxCell id="9OTNe9Qs4-yeGuedBU2K-22" value="INVOICE_VIEW" style="rounded=1;whiteSpace=wrap;html=1;fontFamily=Lucida Console;fontSize=10;align=center;spacingLeft=6;verticalAlign=top;arcSize=9;" parent="uSfrNIYk9S4OBJwJfiQj-5" vertex="1">
          <mxGeometry width="160" height="190" as="geometry" />
        </mxCell>
        <mxCell id="9OTNe9Qs4-yeGuedBU2K-23" value="$ (root)" style="rounded=1;whiteSpace=wrap;html=1;fontFamily=Lucida Console;fontSize=10;align=left;spacingLeft=6;strokeWidth=2;" parent="uSfrNIYk9S4OBJwJfiQj-5" vertex="1">
          <mxGeometry x="20" y="30" width="120" height="20" as="geometry" />
        </mxCell>
        <mxCell id="9OTNe9Qs4-yeGuedBU2K-24" value="document_body" style="rounded=1;whiteSpace=wrap;html=1;fontFamily=Lucida Console;fontSize=10;align=left;spacingLeft=6;" parent="uSfrNIYk9S4OBJwJfiQj-5" vertex="1">
          <mxGeometry x="20" y="60" width="120" height="20" as="geometry" />
        </mxCell>
        <mxCell id="9OTNe9Qs4-yeGuedBU2K-25" value="detail" style="rounded=1;whiteSpace=wrap;html=1;fontFamily=Lucida Console;fontSize=10;align=left;spacingLeft=6;" parent="uSfrNIYk9S4OBJwJfiQj-5" vertex="1">
          <mxGeometry x="20" y="90" width="120" height="20" as="geometry" />
        </mxCell>
        <mxCell id="9OTNe9Qs4-yeGuedBU2K-26" value="customer" style="rounded=1;whiteSpace=wrap;html=1;fontFamily=Lucida Console;fontSize=10;align=left;spacingLeft=6;" parent="uSfrNIYk9S4OBJwJfiQj-5" vertex="1">
          <mxGeometry x="20" y="120" width="120" height="20" as="geometry" />
        </mxCell>
        <mxCell id="9OTNe9Qs4-yeGuedBU2K-27" value="total" style="rounded=1;whiteSpace=wrap;html=1;fontFamily=Lucida Console;fontSize=10;align=left;spacingLeft=6;" parent="uSfrNIYk9S4OBJwJfiQj-5" vertex="1">
          <mxGeometry x="20" y="150" width="120" height="20" as="geometry" />
        </mxCell>
        <mxCell id="9OTNe9Qs4-yeGuedBU2K-28" value="INVOICE_LINE_VIEW" style="rounded=1;whiteSpace=wrap;html=1;fontFamily=Lucida Console;fontSize=10;align=center;spacingLeft=6;verticalAlign=top;arcSize=9;" parent="uSfrNIYk9S4OBJwJfiQj-5" vertex="1">
          <mxGeometry x="200" width="160" height="190" as="geometry" />
        </mxCell>
        <mxCell id="9OTNe9Qs4-yeGuedBU2K-29" value="$ (root)" style="rounded=1;whiteSpace=wrap;html=1;fontFamily=Lucida Console;fontSize=10;align=left;spacingLeft=6;" parent="uSfrNIYk9S4OBJwJfiQj-5" vertex="1">
          <mxGeometry x="220" y="30" width="120" height="20" as="geometry" />
        </mxCell>
        <mxCell id="9OTNe9Qs4-yeGuedBU2K-30" value="document_body" style="rounded=1;whiteSpace=wrap;html=1;fontFamily=Lucida Console;fontSize=10;align=left;spacingLeft=6;" parent="uSfrNIYk9S4OBJwJfiQj-5" vertex="1">
          <mxGeometry x="220" y="60" width="120" height="20" as="geometry" />
        </mxCell>
        <mxCell id="9OTNe9Qs4-yeGuedBU2K-31" value="detail" style="rounded=1;whiteSpace=wrap;html=1;fontFamily=Lucida Console;fontSize=10;align=left;spacingLeft=6;" parent="uSfrNIYk9S4OBJwJfiQj-5" vertex="1">
          <mxGeometry x="220" y="90" width="120" height="20" as="geometry" />
        </mxCell>
        <mxCell id="9OTNe9Qs4-yeGuedBU2K-32" value="customer" style="rounded=1;whiteSpace=wrap;html=1;fontFamily=Lucida Console;fontSize=10;align=left;spacingLeft=6;" parent="uSfrNIYk9S4OBJwJfiQj-5" vertex="1">
          <mxGeometry x="220" y="120" width="120" height="20" as="geometry" />
        </mxCell>
        <mxCell id="9OTNe9Qs4-yeGuedBU2K-33" value="lines[]" style="rounded=1;whiteSpace=wrap;html=1;fontFamily=Lucida Console;fontSize=10;align=left;spacingLeft=6;strokeWidth=2;" parent="uSfrNIYk9S4OBJwJfiQj-5" vertex="1">
          <mxGeometry x="220" y="150" width="120" height="20" as="geometry" />
        </mxCell>
        <mxCell id="9OTNe9Qs4-yeGuedBU2K-34" value="INVOICE_ADDRESS_VIEW" style="rounded=1;whiteSpace=wrap;html=1;fontFamily=Lucida Console;fontSize=10;align=center;spacingLeft=6;verticalAlign=top;arcSize=9;" parent="uSfrNIYk9S4OBJwJfiQj-5" vertex="1">
          <mxGeometry x="200" y="220" width="160" height="190" as="geometry" />
        </mxCell>
        <mxCell id="9OTNe9Qs4-yeGuedBU2K-35" value="$ (root)" style="rounded=1;whiteSpace=wrap;html=1;fontFamily=Lucida Console;fontSize=10;align=left;spacingLeft=6;" parent="uSfrNIYk9S4OBJwJfiQj-5" vertex="1">
          <mxGeometry x="220" y="250" width="120" height="20" as="geometry" />
        </mxCell>
        <mxCell id="9OTNe9Qs4-yeGuedBU2K-36" value="document_body" style="rounded=1;whiteSpace=wrap;html=1;fontFamily=Lucida Console;fontSize=10;align=left;spacingLeft=6;" parent="uSfrNIYk9S4OBJwJfiQj-5" vertex="1">
          <mxGeometry x="220" y="280" width="120" height="20" as="geometry" />
        </mxCell>
        <mxCell id="9OTNe9Qs4-yeGuedBU2K-37" value="detail" style="rounded=1;whiteSpace=wrap;html=1;fontFamily=Lucida Console;fontSize=10;align=left;spacingLeft=6;" parent="uSfrNIYk9S4OBJwJfiQj-5" vertex="1">
          <mxGeometry x="220" y="310" width="120" height="20" as="geometry" />
        </mxCell>
        <mxCell id="9OTNe9Qs4-yeGuedBU2K-38" value="customer" style="rounded=1;whiteSpace=wrap;html=1;fontFamily=Lucida Console;fontSize=10;align=left;spacingLeft=6;" parent="uSfrNIYk9S4OBJwJfiQj-5" vertex="1">
          <mxGeometry x="220" y="340" width="120" height="20" as="geometry" />
        </mxCell>
        <mxCell id="9OTNe9Qs4-yeGuedBU2K-39" value="addresses[]" style="rounded=1;whiteSpace=wrap;html=1;fontFamily=Lucida Console;fontSize=10;align=left;spacingLeft=6;strokeWidth=2;" parent="uSfrNIYk9S4OBJwJfiQj-5" vertex="1">
          <mxGeometry x="220" y="370" width="120" height="20" as="geometry" />
        </mxCell>
        <mxCell id="9OTNe9Qs4-yeGuedBU2K-41" value="INVOICE_TAX_VIEW" style="rounded=1;whiteSpace=wrap;html=1;fontFamily=Lucida Console;fontSize=10;align=center;spacingLeft=6;verticalAlign=top;arcSize=9;" parent="uSfrNIYk9S4OBJwJfiQj-5" vertex="1">
          <mxGeometry y="220" width="160" height="190" as="geometry" />
        </mxCell>
        <mxCell id="9OTNe9Qs4-yeGuedBU2K-42" value="$ (root)" style="rounded=1;whiteSpace=wrap;html=1;fontFamily=Lucida Console;fontSize=10;align=left;spacingLeft=6;" parent="uSfrNIYk9S4OBJwJfiQj-5" vertex="1">
          <mxGeometry x="20" y="250" width="120" height="20" as="geometry" />
        </mxCell>
        <mxCell id="9OTNe9Qs4-yeGuedBU2K-43" value="document_body" style="rounded=1;whiteSpace=wrap;html=1;fontFamily=Lucida Console;fontSize=10;align=left;spacingLeft=6;" parent="uSfrNIYk9S4OBJwJfiQj-5" vertex="1">
          <mxGeometry x="20" y="280" width="120" height="20" as="geometry" />
        </mxCell>
        <mxCell id="9OTNe9Qs4-yeGuedBU2K-44" value="detail" style="rounded=1;whiteSpace=wrap;html=1;fontFamily=Lucida Console;fontSize=10;align=left;spacingLeft=6;" parent="uSfrNIYk9S4OBJwJfiQj-5" vertex="1">
          <mxGeometry x="20" y="310" width="120" height="20" as="geometry" />
        </mxCell>
        <mxCell id="9OTNe9Qs4-yeGuedBU2K-45" value="customer" style="rounded=1;whiteSpace=wrap;html=1;fontFamily=Lucida Console;fontSize=10;align=left;spacingLeft=6;" parent="uSfrNIYk9S4OBJwJfiQj-5" vertex="1">
          <mxGeometry x="20" y="340" width="120" height="20" as="geometry" />
        </mxCell>
        <mxCell id="9OTNe9Qs4-yeGuedBU2K-46" value="tax_lines[]" style="rounded=1;whiteSpace=wrap;html=1;fontFamily=Lucida Console;fontSize=10;align=left;spacingLeft=6;strokeWidth=2;" parent="uSfrNIYk9S4OBJwJfiQj-5" vertex="1">
          <mxGeometry x="20" y="370" width="120" height="20" as="geometry" />
        </mxCell>
        <mxCell id="uSfrNIYk9S4OBJwJfiQj-1" value="1:N" style="text;html=1;align=center;verticalAlign=middle;whiteSpace=wrap;rounded=0;fillColor=none;opacity=60;fontSize=10;fontFamily=Lucida Console;" parent="uSfrNIYk9S4OBJwJfiQj-5" vertex="1">
          <mxGeometry x="30" y="200" width="40" height="15" as="geometry" />
        </mxCell>
        <mxCell id="uSfrNIYk9S4OBJwJfiQj-2" value="1:N" style="text;html=1;align=center;verticalAlign=middle;whiteSpace=wrap;rounded=0;fillColor=none;opacity=60;fontSize=10;fontFamily=Lucida Console;" parent="uSfrNIYk9S4OBJwJfiQj-5" vertex="1">
          <mxGeometry x="183" y="200" width="40" height="15" as="geometry" />
        </mxCell>
        <mxCell id="uSfrNIYk9S4OBJwJfiQj-3" value="1:N" style="text;html=1;align=center;verticalAlign=middle;whiteSpace=wrap;rounded=0;fillColor=none;opacity=60;fontSize=10;fontFamily=Lucida Console;" parent="uSfrNIYk9S4OBJwJfiQj-5" vertex="1">
          <mxGeometry x="160" y="69" width="40" height="15" as="geometry" />
        </mxCell>
        <mxCell id="uSfrNIYk9S4OBJwJfiQj-6" value="" style="html=1;shadow=0;dashed=0;align=center;verticalAlign=middle;shape=mxgraph.arrows2.arrow;dy=0.6;dx=40;notch=0;fillColor=#CCCCCC;fontColor=#333333;strokeColor=none;" parent="1" vertex="1">
          <mxGeometry x="371" y="280" width="69" height="50" as="geometry" />
        </mxCell>
        <mxCell id="uSfrNIYk9S4OBJwJfiQj-7" value="" style="html=1;shadow=0;dashed=0;align=center;verticalAlign=middle;shape=mxgraph.arrows2.arrow;dy=0.6;dx=40;notch=0;fillColor=#CCCCCC;fontColor=#333333;strokeColor=none;" parent="1" vertex="1">
          <mxGeometry x="697" y="280" width="69" height="50" as="geometry" />
        </mxCell>
      </root>
    </mxGraphModel>
  </diagram>
</mxfile>
